<svg width="68" height="68" viewBox="0 0 68 68" fill="none" xmlns="http://www.w3.org/2000/svg">
<path d="M53.1698 47.1937C49.515 52.0643 45.0111 55.5174 40.7277 57.1923C36.4274 58.8738 32.5115 58.7162 29.7983 56.6803C27.0851 54.6443 25.8392 50.9285 26.2516 46.3297C26.6624 41.7488 28.7188 36.4592 32.3736 31.5886C35.9566 26.8138 41.2377 23.9648 46.0018 22.5709C48.3795 21.8753 50.5962 21.552 52.3636 21.5244C53.2479 21.5106 54 21.5712 54.5932 21.687C55.2041 21.8062 55.568 21.969 55.7452 22.102C55.9224 22.235 56.1805 22.5389 56.4657 23.0921C56.7427 23.6292 57.0111 24.3345 57.245 25.1874C57.7126 26.892 58.0218 29.1107 58.0185 31.5881C58.0119 36.5519 56.7527 42.4189 53.1698 47.1937Z" fill="#3AA980" stroke="white" stroke-width="2"/>
<rect x="48.3431" y="30.3003" width="2" height="32" rx="1" transform="rotate(36.8839 48.3431 30.3003)" fill="white"/>
<rect x="48.9972" y="45.7939" width="2" height="14" rx="1" transform="rotate(81.8839 48.9972 45.7939)" fill="white"/>
<rect x="41.0197" y="29.3677" width="2" height="9.43876" rx="1" transform="rotate(-8.11606 41.0197 29.3677)" fill="white"/>
<rect x="31.0529" y="45.7505" width="2" height="7.30861" rx="1" transform="rotate(-8.11606 31.0529 45.7505)" fill="white"/>
<path d="M37.9333 34.1037C39.5093 39.9856 39.446 45.6606 38.1198 50.0645C36.7884 54.4856 34.2473 57.4693 30.9707 58.3472C27.6942 59.2252 24.0017 57.9118 20.638 54.7487C17.2876 51.5979 14.3953 46.7149 12.8192 40.833C11.2742 35.0669 12.2925 29.1533 14.1365 24.5447C15.0569 22.2446 16.1708 20.301 17.24 18.8935C17.775 18.1893 18.2869 17.6349 18.7441 17.2397C19.2151 16.8327 19.5678 16.6469 19.7818 16.5895C19.9958 16.5322 20.3941 16.5167 21.0055 16.6338C21.599 16.7474 22.3196 16.9716 23.135 17.314C24.7647 17.9983 26.7012 19.1245 28.6483 20.6563C32.5495 23.7254 36.3882 28.3376 37.9333 34.1037Z" fill="#3AA980" stroke="white" stroke-width="2"/>
<rect x="21.6628" y="27.4736" width="2" height="32" rx="1" transform="rotate(-15 21.6628 27.4736)" fill="white"/>
<rect x="34.2562" y="36.5225" width="2" height="14" rx="1" transform="rotate(30 34.2562 36.5225)" fill="white"/>
<rect x="16.1488" y="39.7324" width="2" height="12.883" rx="1" transform="rotate(-60 16.1488 39.7324)" fill="white"/>
<rect x="23.1459" y="50.6138" width="2" height="7.30861" rx="1" transform="rotate(-60 23.1459 50.6138)" fill="white"/>
</svg>
