<svg width="68" height="68" viewBox="0 0 68 68" fill="none" xmlns="http://www.w3.org/2000/svg">
<mask id="path-2-inside-1_3896_114681" fill="white">
<path fill-rule="evenodd" clip-rule="evenodd" d="M36 10C29.933 10 22.957 11.6815 18.2662 16.7345C15.7574 19.4369 15.7174 23.1756 16.3241 26.2766C16.7039 28.2178 17.8864 29.7111 19.4697 30.6849C19.7884 30.8809 20.0002 31.2192 20.0002 31.5933V52.0002C20.0002 53.6571 21.3434 55.0002 23.0002 55.0002H49.0002C50.6571 55.0002 52.0002 53.6571 52.0002 52.0002V31.5931C52.0002 31.219 52.212 30.8807 52.5307 30.6846C54.1138 29.7109 55.2962 28.2177 55.6759 26.2766C56.2826 23.1756 56.2426 19.4369 53.7338 16.7345C49.043 11.6815 42.067 10 36 10Z"/>
</mask>
<path fill-rule="evenodd" clip-rule="evenodd" d="M36 10C29.933 10 22.957 11.6815 18.2662 16.7345C15.7574 19.4369 15.7174 23.1756 16.3241 26.2766C16.7039 28.2178 17.8864 29.7111 19.4697 30.6849C19.7884 30.8809 20.0002 31.2192 20.0002 31.5933V52.0002C20.0002 53.6571 21.3434 55.0002 23.0002 55.0002H49.0002C50.6571 55.0002 52.0002 53.6571 52.0002 52.0002V31.5931C52.0002 31.219 52.212 30.8807 52.5307 30.6846C54.1138 29.7109 55.2962 28.2177 55.6759 26.2766C56.2826 23.1756 56.2426 19.4369 53.7338 16.7345C49.043 11.6815 42.067 10 36 10Z" fill="#3AA980"/>
<path d="M18.2662 16.7345L19.7319 18.0952V18.0952L18.2662 16.7345ZM16.3241 26.2766L14.3613 26.6606V26.6606L16.3241 26.2766ZM55.6759 26.2766L57.6387 26.6606V26.6606L55.6759 26.2766ZM53.7338 16.7345L52.2681 18.0952L53.7338 16.7345ZM52.5307 30.6846L51.4828 28.9811L52.5307 30.6846ZM19.4697 30.6849L20.5174 28.9813L19.4697 30.6849ZM19.7319 18.0952C23.8959 13.6098 30.225 12 36 12V8C29.6409 8 22.0182 9.75315 16.8004 15.3738L19.7319 18.0952ZM18.2869 25.8925C17.7194 22.9921 17.8875 20.0821 19.7319 18.0952L16.8004 15.3738C13.6274 18.7917 13.7154 23.359 14.3613 26.6606L18.2869 25.8925ZM20.5174 28.9813C19.3424 28.2586 18.545 27.2121 18.2869 25.8925L14.3613 26.6606C14.8627 29.2236 16.4303 31.1636 18.422 32.3885L20.5174 28.9813ZM22.0002 52.0002V31.5933H18.0002V52.0002H22.0002ZM23.0002 53.0002C22.4479 53.0002 22.0002 52.5525 22.0002 52.0002H18.0002C18.0002 54.7617 20.2388 57.0002 23.0002 57.0002V53.0002ZM49.0002 53.0002H23.0002V57.0002H49.0002V53.0002ZM50.0002 52.0002C50.0002 52.5525 49.5525 53.0002 49.0002 53.0002V57.0002C51.7616 57.0002 54.0002 54.7617 54.0002 52.0002H50.0002ZM50.0002 31.5931V52.0002H54.0002V31.5931H50.0002ZM53.7131 25.8925C53.455 27.212 52.6577 28.2585 51.4828 28.9811L53.5785 32.3882C55.57 31.1633 57.1373 29.2234 57.6387 26.6606L53.7131 25.8925ZM52.2681 18.0952C54.1125 20.0821 54.2806 22.9921 53.7131 25.8925L57.6387 26.6606C58.2846 23.359 58.3726 18.7917 55.1996 15.3738L52.2681 18.0952ZM36 12C41.775 12 48.1041 13.6098 52.2681 18.0952L55.1996 15.3738C49.9818 9.75315 42.3591 8 36 8V12ZM54.0002 31.5931C54.0002 31.995 53.7788 32.265 53.5785 32.3882L51.4828 28.9811C50.6452 29.4963 50.0002 30.4429 50.0002 31.5931H54.0002ZM18.422 32.3885C18.2217 32.2653 18.0002 31.9952 18.0002 31.5933H22.0002C22.0002 30.4431 21.3552 29.4965 20.5174 28.9813L18.422 32.3885Z" fill="#3AA980" mask="url(#path-2-inside-1_3896_114681)"/>
<mask id="path-4-outside-2_3896_114681" maskUnits="userSpaceOnUse" x="18" y="12" width="37" height="42" fill="black">
<rect fill="white" x="18" y="12" width="37" height="42"/>
<path fill-rule="evenodd" clip-rule="evenodd" d="M36.1607 14C31.5768 14 25.1021 15.0826 21.7717 19.0882C19.1671 22.221 19.9099 25.2158 20.9975 27.1825C21.5129 28.1145 22.3442 28.7339 23.3099 29.0959C23.7464 29.2596 24.0728 29.6544 24.0728 30.1206V49.2335C24.0728 50.4853 25.0876 51.5002 26.3394 51.5002H45.9836C47.2354 51.5002 48.2502 50.4853 48.2502 49.2335V30.2103C48.2502 29.7288 48.5973 29.3254 49.0543 29.1737C49.9647 28.8714 50.7724 28.3452 51.3349 27.5375C52.6928 25.588 53.861 22.4159 50.7717 19.0882C47.2274 15.2705 40.7446 14 36.1607 14Z"/>
</mask>
<path fill-rule="evenodd" clip-rule="evenodd" d="M36.1607 14C31.5768 14 25.1021 15.0826 21.7717 19.0882C19.1671 22.221 19.9099 25.2158 20.9975 27.1825C21.5129 28.1145 22.3442 28.7339 23.3099 29.0959C23.7464 29.2596 24.0728 29.6544 24.0728 30.1206V49.2335C24.0728 50.4853 25.0876 51.5002 26.3394 51.5002H45.9836C47.2354 51.5002 48.2502 50.4853 48.2502 49.2335V30.2103C48.2502 29.7288 48.5973 29.3254 49.0543 29.1737C49.9647 28.8714 50.7724 28.3452 51.3349 27.5375C52.6928 25.588 53.861 22.4159 50.7717 19.0882C47.2274 15.2705 40.7446 14 36.1607 14Z" fill="#3AA980"/>
<path d="M21.7717 19.0882L23.3096 20.3668L21.7717 19.0882ZM20.9975 27.1825L19.2473 28.1503H19.2473L20.9975 27.1825ZM51.3349 27.5375L52.9761 28.6806V28.6806L51.3349 27.5375ZM50.7717 19.0882L52.2374 17.7275V17.7275L50.7717 19.0882ZM49.0543 29.1737L48.4241 27.2756L49.0543 29.1737ZM23.3099 29.0959L22.6077 30.9686L23.3099 29.0959ZM23.3096 20.3668C24.6296 18.7793 26.6683 17.6682 29.0634 16.9599C31.4422 16.2563 34.0075 16 36.1607 16V12C33.7299 12 30.7659 12.285 27.9289 13.1241C25.1081 13.9584 22.2443 15.3915 20.2339 17.8096L23.3096 20.3668ZM22.7477 26.2147C22.3108 25.4246 21.9973 24.5215 22 23.5783C22.0026 22.6791 22.2904 21.5927 23.3096 20.3668L20.2339 17.8096C18.6484 19.7165 18.0053 21.6938 18 23.5669C17.9949 25.3959 18.5966 26.9737 19.2473 28.1503L22.7477 26.2147ZM24.012 27.2232C23.3976 26.9929 22.988 26.6492 22.7477 26.2147L19.2473 28.1503C20.0377 29.5798 21.2908 30.4748 22.6077 30.9686L24.012 27.2232ZM26.0728 49.2335V30.1206H22.0728V49.2335H26.0728ZM26.3394 49.5002C26.1922 49.5002 26.0728 49.3808 26.0728 49.2335H22.0728C22.0728 51.5899 23.983 53.5002 26.3394 53.5002V49.5002ZM45.9836 49.5002H26.3394V53.5002H45.9836V49.5002ZM46.2502 49.2335C46.2502 49.3808 46.1308 49.5002 45.9836 49.5002V53.5002C48.3399 53.5002 50.2502 51.5899 50.2502 49.2335H46.2502ZM46.2502 30.2103V49.2335H50.2502V30.2103H46.2502ZM49.6938 26.3945C49.4248 26.7806 49.0103 27.081 48.4241 27.2756L49.6845 31.0718C50.919 30.6619 52.1199 29.9098 52.9761 28.6806L49.6938 26.3945ZM49.3059 20.4489C50.5157 21.7521 50.7688 22.8597 50.7237 23.7257C50.6746 24.6699 50.2533 25.5911 49.6938 26.3945L52.9761 28.6806C53.7744 27.5344 54.6162 25.8949 54.7183 23.9337C54.8245 21.8943 54.117 19.7521 52.2374 17.7275L49.3059 20.4489ZM36.1607 16C38.2865 16 40.8555 16.2969 43.2788 17.0273C45.7182 17.7627 47.86 18.8915 49.3059 20.4489L52.2374 17.7275C50.1391 15.4672 47.2673 14.0519 44.4333 13.1976C41.5831 12.3384 38.6187 12 36.1607 12V16ZM50.2502 30.2103C50.2502 30.7471 49.8862 31.0049 49.6845 31.0718L48.4241 27.2756C47.3083 27.646 46.2502 28.7105 46.2502 30.2103H50.2502ZM22.6077 30.9686C22.416 30.8967 22.0728 30.6399 22.0728 30.1206H26.0728C26.0728 28.6689 25.0769 27.6225 24.012 27.2232L22.6077 30.9686Z" fill="#3AA980" mask="url(#path-4-outside-2_3896_114681)"/>
<circle cx="46" cy="25" r="1" fill="#3AA980"/>
<circle cx="40.5" cy="20.5" r="1.5" fill="#3AA980"/>
<circle cx="32.5" cy="46.5" r="1.5" fill="#3AA980"/>
<circle cx="29" cy="39" r="1" fill="#3AA980"/>
<circle cx="41" cy="26" r="1" fill="#3AA980"/>
<circle cx="38" cy="44" r="1" fill="#3AA980"/>
<circle cx="42" cy="47" r="1" fill="#3AA980"/>
<path d="M14.7795 20.8042C14.7795 20.8042 17.8668 16.8857 23.8394 13.8032C29.812 10.7208 33.5 11.5 33.5 11.5" stroke="#3AA980" stroke-width="2" stroke-linecap="round"/>
<mask id="path-14-inside-3_3896_114681" fill="white">
<path fill-rule="evenodd" clip-rule="evenodd" d="M32 13C25.933 13 18.957 14.6815 14.2662 19.7345C11.7574 22.4369 11.7174 26.1756 12.3241 29.2766C12.7039 31.2178 13.8864 32.7111 15.4697 33.6849C15.7884 33.8809 16.0002 34.2192 16.0002 34.5933V55.0002C16.0002 56.6571 17.3434 58.0002 19.0002 58.0002H45.0002C46.6571 58.0002 48.0002 56.6571 48.0002 55.0002V34.5931C48.0002 34.219 48.212 33.8807 48.5307 33.6846C50.1138 32.7109 51.2962 31.2177 51.6759 29.2766C52.2826 26.1756 52.2426 22.4369 49.7338 19.7345C45.043 14.6815 38.067 13 32 13Z"/>
</mask>
<path fill-rule="evenodd" clip-rule="evenodd" d="M32 13C25.933 13 18.957 14.6815 14.2662 19.7345C11.7574 22.4369 11.7174 26.1756 12.3241 29.2766C12.7039 31.2178 13.8864 32.7111 15.4697 33.6849C15.7884 33.8809 16.0002 34.2192 16.0002 34.5933V55.0002C16.0002 56.6571 17.3434 58.0002 19.0002 58.0002H45.0002C46.6571 58.0002 48.0002 56.6571 48.0002 55.0002V34.5931C48.0002 34.219 48.212 33.8807 48.5307 33.6846C50.1138 32.7109 51.2962 31.2177 51.6759 29.2766C52.2826 26.1756 52.2426 22.4369 49.7338 19.7345C45.043 14.6815 38.067 13 32 13Z" fill="#3AA980"/>
<path d="M14.2662 19.7345L15.7319 21.0952V21.0952L14.2662 19.7345ZM12.3241 29.2766L10.3613 29.6606V29.6606L12.3241 29.2766ZM51.6759 29.2766L53.6387 29.6606V29.6606L51.6759 29.2766ZM49.7338 19.7345L48.2681 21.0952L49.7338 19.7345ZM48.5307 33.6846L47.4828 31.9811L48.5307 33.6846ZM15.4697 33.6849L16.5174 31.9813L15.4697 33.6849ZM15.7319 21.0952C19.8959 16.6098 26.225 15 32 15V11C25.6409 11 18.0182 12.7531 12.8004 18.3738L15.7319 21.0952ZM14.2869 28.8925C13.7194 25.9921 13.8875 23.0821 15.7319 21.0952L12.8004 18.3738C9.62739 21.7917 9.71536 26.359 10.3613 29.6606L14.2869 28.8925ZM16.5174 31.9813C15.3424 31.2586 14.545 30.2121 14.2869 28.8925L10.3613 29.6606C10.8627 32.2236 12.4303 34.1636 14.422 35.3885L16.5174 31.9813ZM18.0002 55.0002V34.5933H14.0002V55.0002H18.0002ZM19.0002 56.0002C18.4479 56.0002 18.0002 55.5525 18.0002 55.0002H14.0002C14.0002 57.7617 16.2388 60.0002 19.0002 60.0002V56.0002ZM45.0002 56.0002H19.0002V60.0002H45.0002V56.0002ZM46.0002 55.0002C46.0002 55.5525 45.5525 56.0002 45.0002 56.0002V60.0002C47.7616 60.0002 50.0002 57.7617 50.0002 55.0002H46.0002ZM46.0002 34.5931V55.0002H50.0002V34.5931H46.0002ZM49.7131 28.8925C49.455 30.212 48.6577 31.2585 47.4828 31.9811L49.5785 35.3882C51.57 34.1633 53.1373 32.2234 53.6387 29.6606L49.7131 28.8925ZM48.2681 21.0952C50.1125 23.0821 50.2806 25.9921 49.7131 28.8925L53.6387 29.6606C54.2846 26.359 54.3726 21.7917 51.1996 18.3738L48.2681 21.0952ZM32 15C37.775 15 44.1041 16.6098 48.2681 21.0952L51.1996 18.3738C45.9818 12.7532 38.3591 11 32 11V15ZM50.0002 34.5931C50.0002 34.995 49.7788 35.265 49.5785 35.3882L47.4828 31.9811C46.6452 32.4963 46.0002 33.4429 46.0002 34.5931H50.0002ZM14.422 35.3885C14.2217 35.2653 14.0002 34.9952 14.0002 34.5933H18.0002C18.0002 33.4431 17.3552 32.4965 16.5174 31.9813L14.422 35.3885Z" fill="#3AA980" mask="url(#path-14-inside-3_3896_114681)"/>
<mask id="path-16-outside-4_3896_114681" maskUnits="userSpaceOnUse" x="14" y="15" width="37" height="42" fill="black">
<rect fill="white" x="14" y="15" width="37" height="42"/>
<path fill-rule="evenodd" clip-rule="evenodd" d="M32.1607 17C27.5768 17 21.1021 18.0826 17.7717 22.0882C15.1671 25.221 15.9099 28.2158 16.9975 30.1825C17.5129 31.1145 18.3442 31.7339 19.3099 32.0959C19.7464 32.2596 20.0728 32.6544 20.0728 33.1206V52.2335C20.0728 53.4853 21.0876 54.5002 22.3394 54.5002H41.9836C43.2354 54.5002 44.2502 53.4853 44.2502 52.2335V33.2103C44.2502 32.7288 44.5973 32.3254 45.0543 32.1737C45.9647 31.8714 46.7724 31.3452 47.3349 30.5375C48.6928 28.588 49.861 25.4159 46.7717 22.0882C43.2274 18.2705 36.7446 17 32.1607 17Z"/>
</mask>
<path fill-rule="evenodd" clip-rule="evenodd" d="M32.1607 17C27.5768 17 21.1021 18.0826 17.7717 22.0882C15.1671 25.221 15.9099 28.2158 16.9975 30.1825C17.5129 31.1145 18.3442 31.7339 19.3099 32.0959C19.7464 32.2596 20.0728 32.6544 20.0728 33.1206V52.2335C20.0728 53.4853 21.0876 54.5002 22.3394 54.5002H41.9836C43.2354 54.5002 44.2502 53.4853 44.2502 52.2335V33.2103C44.2502 32.7288 44.5973 32.3254 45.0543 32.1737C45.9647 31.8714 46.7724 31.3452 47.3349 30.5375C48.6928 28.588 49.861 25.4159 46.7717 22.0882C43.2274 18.2705 36.7446 17 32.1607 17Z" fill="white"/>
<path d="M17.7717 22.0882L19.3096 23.3668L17.7717 22.0882ZM16.9975 30.1825L15.2473 31.1503H15.2473L16.9975 30.1825ZM47.3349 30.5375L48.9761 31.6806V31.6806L47.3349 30.5375ZM46.7717 22.0882L48.2374 20.7275V20.7275L46.7717 22.0882ZM45.0543 32.1737L44.4241 30.2756L45.0543 32.1737ZM19.3099 32.0959L18.6077 33.9686L19.3099 32.0959ZM19.3096 23.3668C20.6296 21.7793 22.6683 20.6682 25.0634 19.9599C27.4422 19.2563 30.0075 19 32.1607 19V15C29.7299 15 26.7659 15.285 23.9289 16.1241C21.1081 16.9584 18.2443 18.3915 16.2339 20.8096L19.3096 23.3668ZM18.7477 29.2147C18.3108 28.4246 17.9973 27.5215 18 26.5783C18.0026 25.6791 18.2904 24.5927 19.3096 23.3668L16.2339 20.8096C14.6484 22.7165 14.0053 24.6938 14 26.5669C13.9949 28.3959 14.5966 29.9737 15.2473 31.1503L18.7477 29.2147ZM20.012 30.2232C19.3976 29.9929 18.988 29.6492 18.7477 29.2147L15.2473 31.1503C16.0377 32.5798 17.2908 33.4748 18.6077 33.9686L20.012 30.2232ZM22.0728 52.2335V33.1206H18.0728V52.2335H22.0728ZM22.3394 52.5002C22.1922 52.5002 22.0728 52.3808 22.0728 52.2335H18.0728C18.0728 54.5899 19.983 56.5002 22.3394 56.5002V52.5002ZM41.9836 52.5002H22.3394V56.5002H41.9836V52.5002ZM42.2502 52.2335C42.2502 52.3808 42.1308 52.5002 41.9836 52.5002V56.5002C44.3399 56.5002 46.2502 54.5899 46.2502 52.2335H42.2502ZM42.2502 33.2103V52.2335H46.2502V33.2103H42.2502ZM45.6938 29.3945C45.4248 29.7806 45.0103 30.081 44.4241 30.2756L45.6845 34.0718C46.919 33.6619 48.1199 32.9098 48.9761 31.6806L45.6938 29.3945ZM45.3059 23.4489C46.5157 24.7521 46.7688 25.8597 46.7237 26.7257C46.6746 27.6699 46.2533 28.5911 45.6938 29.3945L48.9761 31.6806C49.7744 30.5344 50.6162 28.8949 50.7183 26.9337C50.8245 24.8943 50.117 22.7521 48.2374 20.7275L45.3059 23.4489ZM32.1607 19C34.2865 19 36.8555 19.2969 39.2788 20.0273C41.7182 20.7627 43.86 21.8915 45.3059 23.4489L48.2374 20.7275C46.1391 18.4672 43.2673 17.0519 40.4333 16.1976C37.5831 15.3384 34.6187 15 32.1607 15V19ZM46.2502 33.2103C46.2502 33.7471 45.8862 34.0049 45.6845 34.0718L44.4241 30.2756C43.3083 30.646 42.2502 31.7105 42.2502 33.2103H46.2502ZM18.6077 33.9686C18.416 33.8967 18.0728 33.6399 18.0728 33.1206H22.0728C22.0728 31.6689 21.0769 30.6225 20.012 30.2232L18.6077 33.9686Z" fill="#3AA980" mask="url(#path-16-outside-4_3896_114681)"/>
<circle cx="42" cy="28" r="1" fill="#3AA980"/>
<circle cx="36.5" cy="23.5" r="1.5" fill="#3AA980"/>
<circle cx="28.5" cy="49.5" r="1.5" fill="#3AA980"/>
<circle cx="25" cy="42" r="1" fill="#3AA980"/>
<circle cx="37" cy="29" r="1" fill="#3AA980"/>
<circle cx="22" cy="26" r="1" fill="#3AA980"/>
<circle cx="34" cy="47" r="1" fill="#3AA980"/>
<circle cx="38" cy="50" r="1" fill="#3AA980"/>
<path d="M46.0002 55.5004L50.3303 53.0004L50.8048 54.3911L46.4435 57.6376L46.0002 55.5004Z" fill="#3AA980"/>
</svg>
