<svg width="68" height="68" viewBox="0 0 68 68" fill="none" xmlns="http://www.w3.org/2000/svg">
<path d="M38 16.5C38 20.0899 35 23 34 23C33 23 30 20.0899 30 16.5C30 12.9101 33 10 34 10C35 10 38 12.9101 38 16.5Z" fill="#3AA980"/>
<path d="M33.9636 35.9904C33.6529 35.811 33.4368 35.5351 33.2921 35.3063C33.1363 35.06 33.0035 34.7722 32.8923 34.4662C32.6692 33.8528 32.5036 33.0851 32.4352 32.2421C32.299 30.5619 32.5403 28.4556 33.6335 26.5622C34.7267 24.6687 36.4302 23.4066 37.9533 22.6845C38.7176 22.3221 39.4652 22.0818 40.108 21.9682C40.4286 21.9116 40.7443 21.8827 41.0355 21.8945C41.3059 21.9054 41.6529 21.9545 41.9636 22.134C42.2744 22.3134 42.4904 22.5893 42.6351 22.8181C42.7909 23.0643 42.9238 23.3522 43.035 23.6581C43.2581 24.2716 43.4237 25.0392 43.492 25.8823C43.6282 27.5624 43.387 29.6687 42.2938 31.5622C41.2006 33.4556 39.4971 34.7178 37.974 35.4399C37.2097 35.8022 36.4621 36.0426 35.8193 36.1562C35.4987 36.2128 35.183 36.2416 34.8918 36.2299C34.6214 36.2189 34.2744 36.1698 33.9636 35.9904Z" fill="#3AA980" stroke="white" stroke-width="2"/>
<path d="M33.9636 47.9904C33.6529 47.811 33.4368 47.5351 33.2921 47.3063C33.1363 47.06 33.0035 46.7722 32.8923 46.4662C32.6692 45.8528 32.5036 45.0851 32.4352 44.2421C32.299 42.5619 32.5403 40.4556 33.6335 38.5622C34.7267 36.6687 36.4302 35.4066 37.9533 34.6845C38.7176 34.3221 39.4652 34.0818 40.108 33.9682C40.4286 33.9116 40.7443 33.8827 41.0355 33.8945C41.3059 33.9054 41.6529 33.9545 41.9636 34.134C42.2744 34.3134 42.4904 34.5893 42.6351 34.8181C42.7909 35.0643 42.9238 35.3522 43.035 35.6581C43.2581 36.2716 43.4237 37.0392 43.492 37.8823C43.6282 39.5624 43.387 41.6687 42.2938 43.5622C41.2006 45.4556 39.4971 46.7178 37.974 47.4399C37.2097 47.8022 36.4621 48.0426 35.8193 48.1562C35.4987 48.2128 35.183 48.2416 34.8918 48.2299C34.6214 48.2189 34.2744 48.1698 33.9636 47.9904Z" fill="#3AA980" stroke="white" stroke-width="2"/>
<path d="M33.9636 59.9904C33.6529 59.811 33.4368 59.5351 33.2921 59.3063C33.1363 59.06 33.0035 58.7722 32.8923 58.4662C32.6692 57.8528 32.5036 57.0851 32.4352 56.2421C32.299 54.5619 32.5403 52.4556 33.6335 50.5622C34.7267 48.6687 36.4302 47.4066 37.9533 46.6845C38.7176 46.3221 39.4652 46.0818 40.108 45.9682C40.4286 45.9116 40.7443 45.8827 41.0355 45.8945C41.3059 45.9054 41.6529 45.9545 41.9636 46.134C42.2744 46.3134 42.4904 46.5893 42.6351 46.8181C42.7909 47.0643 42.9238 47.3522 43.035 47.6581C43.2581 48.2716 43.4237 49.0392 43.492 49.8823C43.6282 51.5624 43.387 53.6687 42.2938 55.5622C41.2006 57.4556 39.4971 58.7178 37.974 59.4399C37.2097 59.8022 36.4621 60.0426 35.8193 60.1562C35.4987 60.2128 35.183 60.2416 34.8918 60.2299C34.6214 60.2189 34.2744 60.1698 33.9636 59.9904Z" fill="#3AA980" stroke="white" stroke-width="2"/>
<path d="M33.9641 35.9904C34.2749 35.811 34.4909 35.5351 34.6356 35.3063C34.7914 35.06 34.9242 34.7722 35.0355 34.4662C35.2585 33.8528 35.4242 33.0851 35.4925 32.2421C35.6287 30.5619 35.3874 28.4556 34.2942 26.5622C33.201 24.6687 31.4976 23.4066 29.9744 22.6845C29.2102 22.3221 28.4625 22.0818 27.8197 21.9682C27.4992 21.9116 27.1835 21.8827 26.8923 21.8945C26.6218 21.9054 26.2749 21.9545 25.9641 22.134C25.6533 22.3134 25.4373 22.5893 25.2926 22.8181C25.1368 23.0643 25.004 23.3522 24.8927 23.6581C24.6697 24.2716 24.504 25.0392 24.4357 25.8823C24.2995 27.5624 24.5408 29.6687 25.634 31.5622C26.7272 33.4556 28.4306 34.7178 29.9538 35.4399C30.718 35.8022 31.4657 36.0426 32.1085 36.1562C32.429 36.2128 32.7447 36.2416 33.0359 36.2299C33.3064 36.2189 33.6533 36.1698 33.9641 35.9904Z" fill="#3AA980" stroke="white" stroke-width="2"/>
<path d="M33.9641 47.9904C34.2749 47.811 34.4909 47.5351 34.6356 47.3063C34.7914 47.06 34.9242 46.7722 35.0355 46.4662C35.2585 45.8528 35.4242 45.0851 35.4925 44.2421C35.6287 42.5619 35.3874 40.4556 34.2942 38.5622C33.201 36.6687 31.4976 35.4066 29.9744 34.6845C29.2102 34.3221 28.4625 34.0818 27.8197 33.9682C27.4992 33.9116 27.1835 33.8827 26.8923 33.8945C26.6218 33.9054 26.2749 33.9545 25.9641 34.134C25.6533 34.3134 25.4373 34.5893 25.2926 34.8181C25.1368 35.0643 25.004 35.3522 24.8927 35.6581C24.6697 36.2716 24.504 37.0392 24.4357 37.8823C24.2995 39.5624 24.5408 41.6687 25.634 43.5622C26.7272 45.4556 28.4306 46.7178 29.9538 47.4399C30.718 47.8022 31.4657 48.0426 32.1085 48.1562C32.429 48.2128 32.7447 48.2416 33.0359 48.2299C33.3064 48.2189 33.6533 48.1698 33.9641 47.9904Z" fill="#3AA980" stroke="white" stroke-width="2"/>
<path d="M33.9641 59.9904C34.2749 59.811 34.4909 59.5351 34.6356 59.3063C34.7914 59.06 34.9242 58.7722 35.0355 58.4662C35.2585 57.8528 35.4242 57.0851 35.4925 56.2421C35.6287 54.5619 35.3874 52.4556 34.2942 50.5622C33.201 48.6687 31.4976 47.4066 29.9744 46.6845C29.2102 46.3221 28.4625 46.0818 27.8197 45.9682C27.4992 45.9116 27.1835 45.8827 26.8923 45.8945C26.6218 45.9054 26.2749 45.9545 25.9641 46.134C25.6533 46.3134 25.4373 46.5893 25.2926 46.8181C25.1368 47.0643 25.004 47.3522 24.8927 47.6581C24.6697 48.2716 24.504 49.0392 24.4357 49.8823C24.2995 51.5624 24.5408 53.6687 25.634 55.5622C26.7272 57.4556 28.4306 58.7178 29.9538 59.4399C30.718 59.8022 31.4657 60.0426 32.1085 60.1562C32.429 60.2128 32.7447 60.2416 33.0359 60.2299C33.3064 60.2189 33.6533 60.1698 33.9641 59.9904Z" fill="#3AA980" stroke="white" stroke-width="2"/>
</svg>
