<svg width="68" height="68" viewBox="0 0 68 68" fill="none" xmlns="http://www.w3.org/2000/svg">
<path d="M21.5 17.535C18.9663 18.8019 18.0417 21.3017 17.4356 23.1978C17.226 23.8533 17.7189 24.5448 18.407 24.5543L49.8899 24.9848C50.4833 24.9929 50.9559 24.4829 50.8747 23.895C50.2391 19.2893 48.4908 17.9055 46 16.6602C43.6797 15.5 41.5 18.1601 39 16.6601C36.5 15.1601 34.5 12.535 31 15.035C27.5 17.535 25.5 15.535 21.5 17.535Z" fill="#3AA980"/>
<path d="M27.5002 59.0001C32.7978 59.0001 36.7435 57.4947 39.339 54.4845C41.9093 51.5037 43.0002 47.2233 43.0002 42C43.0002 35.6674 40.0912 31.0574 37.2229 28.0587C35.7892 26.56 34.3573 25.4536 33.2823 24.7206C32.744 24.3536 32.2931 24.0788 31.9732 23.8939C31.8132 23.8015 31.6858 23.7314 31.5964 23.6834C31.5517 23.6594 31.5165 23.641 31.4914 23.628L31.4824 23.6234L31.4584 23.6092L31.3169 23.5263C31.1951 23.4551 31.0207 23.3537 30.8096 23.2324C30.388 22.9901 29.817 22.6667 29.2236 22.3446C28.6333 22.0242 28.0069 21.6976 27.4784 21.4532C27.2159 21.3318 26.9593 21.2221 26.7339 21.1432C26.6215 21.1039 26.5003 21.0664 26.3796 21.0398C26.2761 21.017 26.0954 20.984 25.8933 21.0057C25.6523 21.0316 25.3519 21.0583 25.0089 21.0887L24.9897 21.0904C24.6431 21.1212 24.2594 21.1553 23.8763 21.1948C23.1333 21.2712 22.3092 21.375 21.7305 21.537C21.7086 21.5432 21.553 21.564 21.0978 21.3436C20.821 21.2096 20.5652 21.0584 20.2665 20.8818C20.0625 20.7612 19.8385 20.6287 19.5741 20.4818C18.4447 19.8544 16.7505 19.085 14.9861 20.1426C14.242 20.5886 13.7155 21.1107 13.3919 21.7405C13.0718 22.3635 13.0001 22.9968 13.0002 23.5687C13.0002 23.9133 13.0308 24.3158 13.0589 24.686C13.0731 24.8729 13.0867 25.0516 13.0954 25.2105C13.1245 25.741 13.1214 26.2637 13.0174 26.8144C12.9064 27.4021 12.6771 28.1499 12.3715 29.0664C12.2786 29.345 12.1788 29.6389 12.0748 29.9449C11.8459 30.6189 11.597 31.3515 11.3586 32.1084C10.6627 34.3174 10 36.8978 10 39.5C10 44.8074 11.6319 49.6734 14.6569 53.2295C17.6949 56.8008 22.0985 59.0001 27.5002 59.0001Z" fill="#3AA980" stroke="white" stroke-width="2"/>
<path d="M18 48C19.3333 47.1667 22.1 44.2 22.5 39" stroke="white" stroke-width="2" stroke-linecap="round"/>
<path d="M39.5 59C49.8385 59 58 49.4684 58 38C58 33.1555 56.375 28.0119 53.8447 24.0268C53.7156 23.7178 53.6688 23.352 53.6429 22.9345C53.6397 22.8829 53.6366 22.8251 53.6333 22.7643C53.6247 22.6053 53.615 22.4257 53.5998 22.2815C53.583 22.1224 53.5423 21.7366 53.3119 21.4162C52.9848 20.9613 52.6273 20.649 52.1977 20.4512C51.8472 20.2898 51.4838 20.2278 51.2336 20.1851C51.2078 20.1807 51.1832 20.1765 51.16 20.1724C50.6824 20.0887 50.0976 19.9824 49.1173 19.2133C48.5375 18.7584 47.9191 18.6103 47.3093 18.6779C46.7656 18.7382 46.2733 18.9689 45.9226 19.1373C45.0891 19.5375 44.7419 19.6961 44.322 19.5533C43.8372 19.3884 43.4051 19.043 42.8099 18.5672C42.689 18.4706 42.5614 18.3686 42.4252 18.2616C41.7192 17.7069 40.7463 17 39.5 17C37.7355 17 36.5707 17.9048 35.6438 18.8003C35.3931 19.0426 35.1642 19.2765 34.9457 19.4998C34.3087 20.151 33.7599 20.7119 33.0146 21.1257C32.4392 21.4451 31.9831 21.4685 31.3496 21.5009C31.2484 21.506 31.1427 21.5114 31.0312 21.5183C30.6395 21.5425 30.1627 21.5917 29.6663 21.7904C29.1551 21.995 28.6838 22.3324 28.2409 22.8491C28.0255 23.1003 27.8483 23.4337 27.7125 23.7141C27.5674 24.0137 27.4243 24.3509 27.2948 24.6579C27.2849 24.6814 27.275 24.7048 27.2653 24.728C27.143 25.0181 27.0337 25.2774 26.9317 25.4947C26.8305 25.71 26.772 25.8043 26.7572 25.8282C26.7537 25.8339 26.7526 25.8356 26.7541 25.834C26.701 25.8934 26.6017 25.9735 26.408 26.0881C26.2813 26.163 26.1819 26.216 26.0665 26.2776C25.9684 26.3299 25.8587 26.3883 25.7108 26.4717C25.1909 26.7648 24.4697 27.2256 24.0852 28.096C23.7084 28.9492 23.846 29.9303 23.9376 30.5838L23.9397 30.5987L23.9473 30.6529C24.0547 31.4185 24.1211 31.8919 24.0298 32.2577C23.8669 32.9102 23.3983 33.7962 22.8713 34.2224C22.0499 34.8865 21.5344 35.5047 21.2593 36.1912C20.9991 36.8404 20.9996 37.4568 21 37.9448C21 37.9634 21 37.9818 21 38C21 49.4684 29.1615 59 39.5 59Z" fill="#3AA980" stroke="white" stroke-width="2"/>
<path d="M46 33C46 38 46.5 47 38 53" stroke="white" stroke-width="2" stroke-linecap="round"/>
<path d="M45.5 41.5C47.3333 41.6667 51.5 41.4 53.5 39" stroke="white" stroke-width="2" stroke-linecap="round"/>
<path d="M43 48.5C44.8333 48.6667 46.5 48.5 49 46.5" stroke="white" stroke-width="2" stroke-linecap="round"/>
<path d="M44.5 43.5C41.6667 42.8333 37.6 40.3 36 35.5" stroke="white" stroke-width="2" stroke-linecap="round"/>
<path d="M41 49.5C37.5 49.5 36 48.5 34 45" stroke="white" stroke-width="2" stroke-linecap="round"/>
<path d="M17.5009 30.5C13 43.5 19.0005 55 28.5005 59" stroke="white" stroke-width="2" stroke-linecap="round"/>
</svg>
