<svg width="72" height="72" viewBox="0 0 72 72" fill="none" xmlns="http://www.w3.org/2000/svg">
<path d="M57.6074 20.3899C54.3263 19.0729 48.5611 20.804 46.4962 22.6351" stroke="#FB934E" stroke-width="5" stroke-linecap="round"/>
<path d="M52.4961 12.2427L46.4961 22.635" stroke="#FB934E" stroke-width="5" stroke-linecap="round"/>
<path d="M39.1828 9.90338C41.7809 11.4034 43.2998 16.1707 41.2998 19.6348" stroke="#FB934E" stroke-width="5" stroke-linecap="round"/>
<path fill-rule="evenodd" clip-rule="evenodd" d="M18.0936 57.3277C17.1034 62.0539 22.7243 65.299 26.3221 62.0784L28.6785 59.9692L28.0412 59.6013C27.0846 59.049 26.7568 57.8258 27.3091 56.8693C27.8614 55.9127 29.0846 55.5849 30.0412 56.1372L31.8152 57.1614L42.9612 47.1843L38.0138 44.3279C37.0572 43.7756 36.7295 42.5524 37.2818 41.5958C37.8341 40.6392 39.0572 40.3115 40.0138 40.8638L46.098 44.3765L48.2616 42.4397C51.2573 39.7582 52.3558 35.5432 51.0498 31.7406L50.9751 31.5232C50.1911 29.2403 48.6077 27.318 46.5173 26.1111L42.831 23.9828L39.1446 21.8545C37.0542 20.6476 34.5978 20.2375 32.2288 20.7L32.0031 20.744C30.2673 21.0828 28.6951 21.8645 27.4081 22.9687L28.1567 23.4009C29.1133 23.9532 29.4411 25.1763 28.8888 26.1329C28.3365 27.0895 27.1133 27.4173 26.1567 26.865L24.9374 26.161C24.5774 26.8962 24.3044 27.6829 24.1315 28.5082L21.5317 40.9174L25.8433 43.4067C26.7998 43.959 27.1276 45.1822 26.5753 46.1388C26.023 47.0954 24.7998 47.4231 23.8433 46.8708L20.6684 45.0378L18.0936 57.3277Z" fill="#FB934E"/>
</svg>
