<svg width="72" height="72" viewBox="0 0 72 72" fill="none" xmlns="http://www.w3.org/2000/svg">
<path d="M13.2305 20.3899C16.5116 19.0729 22.2768 20.804 24.3417 22.6351" stroke="#FB934E" stroke-width="5" stroke-linecap="round"/>
<path d="M18.3418 12.2427L24.3418 22.635" stroke="#FB934E" stroke-width="5" stroke-linecap="round"/>
<path d="M31.6551 9.90338C29.057 11.4034 27.5381 16.1707 29.5381 19.6348" stroke="#FB934E" stroke-width="5" stroke-linecap="round"/>
<path fill-rule="evenodd" clip-rule="evenodd" d="M52.7443 57.3279C53.7344 62.0541 48.1136 65.2993 44.5157 62.0787L42.1596 59.9696L42.7976 59.6013C43.7542 59.049 44.0819 57.8258 43.5296 56.8693C42.9774 55.9127 41.7542 55.5849 40.7976 56.1372L39.0229 57.1618L27.8769 47.1847L32.8249 44.328C33.7814 43.7757 34.1092 42.5525 33.5569 41.5959C33.0046 40.6393 31.7814 40.3116 30.8249 40.8639L24.7401 44.3769L22.5763 42.44C19.5805 39.7584 18.4821 35.5434 19.7881 31.7409L19.8628 31.5234C20.6468 29.2405 22.2301 27.3182 24.3205 26.1113L28.0069 23.983L31.6932 21.8547C33.7836 20.6478 36.24 20.2378 38.6091 20.7002L38.8348 20.7443C40.5707 21.0831 42.143 21.8648 43.43 22.9691L42.682 23.401C41.7254 23.9533 41.3976 25.1765 41.9499 26.1331C42.5022 27.0896 43.7254 27.4174 44.682 26.8651L45.9006 26.1615C46.2605 26.8966 46.5335 27.6833 46.7064 28.5085L49.3062 40.9177L44.9948 43.4069C44.0382 43.9592 43.7104 45.1823 44.2627 46.1389C44.815 47.0955 46.0382 47.4233 46.9948 46.871L50.1695 45.0381L52.7443 57.3279Z" fill="#FB934E"/>
</svg>
