<svg width="68" height="68" viewBox="0 0 68 68" fill="none" xmlns="http://www.w3.org/2000/svg">
<path d="M52.5076 19.5205C49.8835 18.4672 45.2727 19.8517 43.6212 21.3161" stroke="#3AA980" stroke-width="3.15605" stroke-linecap="round"/>
<path d="M48.4196 13.0054L43.621 21.3167" stroke="#3AA980" stroke-width="3.15605" stroke-linecap="round"/>
<path d="M37.772 11.1346C39.8498 12.3343 41.0646 16.147 39.4651 18.9175" stroke="#3AA980" stroke-width="3.15605" stroke-linecap="round"/>
<path fill-rule="evenodd" clip-rule="evenodd" d="M19.0056 50.5535C17.7909 55.331 23.6157 58.6939 27.1457 55.2531L27.1475 55.2514L26.5403 54.9008C25.8397 54.4963 25.5997 53.6005 26.0042 52.8999C26.4087 52.1993 27.3045 51.9592 28.0051 52.3637L29.327 53.127L39.7709 42.9472L35.7164 40.6063C35.0158 40.2019 34.7758 39.306 35.1803 38.6054C35.5848 37.9048 36.4806 37.6648 37.1812 38.0693L41.9505 40.8228L44.7327 38.111C47.0786 35.8244 48.0173 32.455 47.1917 29.2848C46.5768 26.9235 45.0408 24.9072 42.9276 23.6871L40.6896 22.395L38.4516 21.1029C36.3384 19.8829 33.8243 19.5609 31.4718 20.209C29.9207 20.6363 28.5407 21.4562 27.4423 22.5562L28.3041 23.0537C29.0047 23.4582 29.2448 24.3541 28.8403 25.0547C28.4358 25.7552 27.54 25.9953 26.8394 25.5908L25.7255 24.9477C25.4431 25.5174 25.218 26.1211 25.0577 26.7516L21.8851 39.2289L25.2361 41.1636C25.9367 41.5681 26.1767 42.4639 25.7722 43.1645C25.3678 43.8651 24.4719 44.1051 23.7713 43.7007L21.1351 42.1786L19.0056 50.5535Z" fill="#3AA980"/>
</svg>
