<svg width="68" height="68" viewBox="0 0 68 68" fill="none" xmlns="http://www.w3.org/2000/svg">
<path d="M37.7384 11.7636L37.9269 12.7393L37.9269 12.7393L37.7384 11.7636ZM43.6197 12.3104L43.9614 11.37L43.6197 12.3104ZM36.8276 12.0238L37.1045 12.9775L37.1188 12.9732L37.133 12.9685L36.8276 12.0238ZM36.8276 12.0238L36.5508 11.0701L36.5364 11.0743L36.5222 11.079L36.8276 12.0238ZM36.5592 12.111L36.264 11.1629L36.264 11.1629L36.5592 12.111ZM28.5401 24.3119L27.5362 24.2996L28.5401 24.3119ZM48.7372 46.1304L48.6173 45.1433L48.7372 46.1304ZM53.4375 25.6566L52.4348 25.7248L52.4348 25.7248L53.4375 25.6566ZM49.0879 20.7293L49.5896 19.8607L49.0879 20.7293ZM45.9997 16.2042L46.9877 16.014L46.9877 16.014L45.9997 16.2042ZM36.5402 21.8641L37.3356 22.4621L36.5402 21.8641ZM36.1754 19.0757L36.7884 18.2796L36.7884 18.2796L36.1754 19.0757ZM36.0362 24.3212L37.0391 24.257L37.0391 24.257L36.0362 24.3212ZM37.2563 28.1767L36.395 28.6991L36.395 28.6991L37.2563 28.1767ZM36.5663 30.9169L36.05 30.0692L36.05 30.0692L36.5663 30.9169ZM36.0847 31.1302L35.8086 30.1763L34.604 30.5325L35.2024 31.6165L36.0847 31.1302ZM37.0823 32.5892L36.3877 33.3168L36.3877 33.3168L37.0823 32.5892ZM37.1131 33.9966L36.3877 33.3168L36.3877 33.3168L37.1131 33.9966ZM35.6932 34.0444L34.9986 34.772L34.9986 34.772L35.6932 34.0444ZM34.0965 31.6924L34.9839 31.2155L34.9838 31.2154L34.0965 31.6924ZM34.0532 31.612L34.9406 31.135L34.9405 31.1348L34.0532 31.612ZM34.0866 30.6208L34.9408 31.1339L35.3503 30.4721L34.8106 29.922L34.0866 30.6208ZM33.8109 30.2664L34.6723 29.744L34.6723 29.744L33.8109 30.2664ZM32.0247 24.5781L31.0218 24.6423L32.0247 24.5781ZM33.3584 19.4718L34.1539 20.0699L33.3584 19.4718ZM37.9269 12.7393C38.999 12.5231 41.3076 12.568 43.278 13.2508L43.9614 11.37C41.6679 10.5752 38.9933 10.4969 37.5499 10.788L37.9269 12.7393ZM37.133 12.9685C37.4434 12.8665 37.6871 12.7876 37.9269 12.7393L37.5499 10.788C37.1715 10.8643 36.8129 10.9835 36.5222 11.079L37.133 12.9685ZM37.1045 12.9775L37.1045 12.9775L36.5508 11.0701L36.5508 11.0701L37.1045 12.9775ZM36.8544 13.059C36.9499 13.0287 37.0444 12.9977 37.133 12.9685L36.5222 11.079C36.4319 11.1087 36.3475 11.1364 36.264 11.1629L36.8544 13.059ZM29.5441 24.3241C29.705 17.8433 33.5528 14.1061 36.8544 13.059L36.264 11.1629C32.1091 12.4806 27.7177 16.9919 27.5362 24.2996L29.5441 24.3241ZM48.6173 45.1433C48.154 45.2042 47.492 45.1064 46.6271 44.7733C45.7762 44.4457 44.806 43.9204 43.7593 43.2241C41.6668 41.8322 39.3567 39.8161 37.208 37.536C35.0603 35.257 33.1026 32.7447 31.6996 30.3762C30.275 27.9712 29.5061 25.8529 29.5441 24.3241L27.5362 24.2996C27.4839 26.402 28.4944 28.9186 29.9645 31.4004C31.4563 33.9188 33.5087 36.5454 35.7326 38.9052C37.9555 41.264 40.3784 43.3869 42.6262 44.8821C43.7496 45.6294 44.8514 46.2348 45.8801 46.6309C46.8947 47.0216 47.9199 47.2406 48.8571 47.1174L48.6173 45.1433ZM52.4348 25.7248C52.6397 29.3304 52.5725 34.2265 51.9155 38.2658C51.5858 40.2928 51.1178 42.0365 50.5014 43.2823C49.8689 44.5604 49.2123 45.0651 48.6173 45.1433L48.8571 47.1174C50.4807 46.904 51.5728 45.6163 52.3024 44.1416C53.0481 42.6346 53.5557 40.6652 53.8983 38.5593C54.5858 34.3327 54.6501 29.2836 54.4401 25.5884L52.4348 25.7248ZM48.5862 21.598C49.6078 22.1696 50.5623 22.7607 51.2757 23.4571C51.9746 24.1393 52.3861 24.8673 52.4348 25.7248L54.4401 25.5884C54.3552 24.0948 53.6215 22.9352 52.6937 22.0295C51.7805 21.1381 50.627 20.4411 49.5896 19.8607L48.5862 21.598ZM45.0116 16.3944C45.3869 18.4362 46.4898 20.425 48.5862 21.598L49.5896 19.8607C48.1124 19.0341 47.2819 17.6145 46.9877 16.014L45.0116 16.3944ZM43.278 13.2508C43.7544 13.416 44.1071 13.7631 44.3904 14.3135C44.6835 14.8831 44.8662 15.6034 45.0116 16.3944L46.9877 16.014C46.8346 15.1813 46.6117 14.2265 46.1817 13.391C45.7418 12.5364 45.0538 11.7486 43.9614 11.37L43.278 13.2508ZM37.3356 22.4621C38.3513 21.1431 38.1063 19.2705 36.7884 18.2796L35.5623 19.8718C36.0016 20.2021 36.0833 20.8263 35.7447 21.266L37.3356 22.4621ZM37.0391 24.257C36.9795 23.1279 37.2559 22.5656 37.3356 22.4621L35.7447 21.266C35.2679 21.8853 34.9594 22.9841 35.0333 24.3854L37.0391 24.257ZM38.1176 27.6542C37.4363 26.5357 37.0946 25.3098 37.0391 24.257L35.0333 24.3854C35.1058 25.7589 35.5427 27.3 36.395 28.6991L38.1176 27.6542ZM37.0827 31.7645C38.5098 30.8989 38.9731 29.0587 38.1176 27.6542L36.395 28.6991C36.6801 29.1673 36.5257 29.7807 36.05 30.0692L37.0827 31.7645ZM36.3607 32.0842C36.6096 32.0106 36.8523 31.9042 37.0827 31.7645L36.05 30.0692C35.9714 30.1169 35.8904 30.1521 35.8086 30.1763L36.3607 32.0842ZM35.2024 31.6165C35.5528 32.2514 35.9271 32.8851 36.3877 33.3168L37.7769 31.8616C37.5745 31.6719 37.3333 31.3076 36.967 30.6439L35.2024 31.6165ZM36.3877 33.3168L36.3877 33.3168L37.8384 34.6764C38.6056 33.8727 38.578 32.6125 37.7769 31.8616L36.3877 33.3168ZM36.3877 33.3168L36.3877 33.3168L34.9986 34.772C35.7998 35.5229 37.0712 35.4801 37.8384 34.6764L36.3877 33.3168ZM36.3877 33.3168C35.8581 32.8205 35.4181 32.0229 34.9839 31.2155L33.209 32.1693C33.6046 32.9049 34.1901 34.0143 34.9986 34.772L36.3877 33.3168ZM34.9838 31.2154L34.9406 31.135L33.1658 32.089L33.2091 32.1694L34.9838 31.2154ZM34.9405 31.1348L34.9408 31.1339L33.2323 30.1078C32.8712 30.6914 32.8189 31.4445 33.166 32.0892L34.9405 31.1348ZM32.9496 30.7889C33.0685 30.9841 33.2074 31.1615 33.3626 31.3197L34.8106 29.922C34.7595 29.8699 34.7129 29.8107 34.6723 29.744L32.9496 30.7889ZM31.0218 24.6423C31.128 26.6569 31.7555 28.8286 32.9496 30.7889L34.6723 29.744C33.6491 28.0643 33.1169 26.2079 33.0275 24.5138L31.0218 24.6423ZM32.563 18.8737C31.2875 20.5302 30.9197 22.7066 31.0218 24.6423L33.0275 24.5138C32.9395 22.8449 33.2778 21.2075 34.1539 20.0699L32.563 18.8737ZM36.7884 18.2796C35.4705 17.2887 33.5787 17.5547 32.563 18.8737L34.1539 20.0699C34.4924 19.6302 35.123 19.5415 35.5623 19.8718L36.7884 18.2796Z" fill="#3AA980"/>
<mask id="path-3-outside-1_3896_114678" maskUnits="userSpaceOnUse" x="6" y="17" width="42" height="46" fill="black">
<rect fill="white" x="6" y="17" width="42" height="46"/>
<path fill-rule="evenodd" clip-rule="evenodd" d="M23.8987 19.0574C20.1556 18.6902 15.8803 20.1722 14.7392 21.0004C10.2258 23.6293 6.16368 30.64 8.87175 39.8413C11.5798 49.0426 36.4037 62.6254 43.1739 59.5583C48.7877 57.0151 43.8851 39.5006 40.3459 30.7968C39.4584 28.6141 37.027 27.8018 34.6749 27.6622C30.9882 27.4433 28.5159 25.0736 27.258 22.2235C26.5861 20.7013 25.5546 19.2199 23.8987 19.0574ZM12.9749 31.5101C13.5226 31.5807 13.9095 32.0819 13.839 32.6297C13.6996 33.7117 13.4807 37.7004 16.6988 40.512C17.1147 40.8754 17.1573 41.5071 16.7939 41.923C16.4305 42.3389 15.7988 42.3815 15.3829 42.0182C11.3795 38.5204 11.6938 33.6291 11.8553 32.3742C11.9259 31.8265 12.4271 31.4396 12.9749 31.5101ZM21.2176 44.054C20.8213 43.6693 20.1882 43.6787 19.8036 44.0749C19.4189 44.4712 19.4282 45.1043 19.8245 45.489L19.88 45.5429C20.2778 45.9292 20.5513 46.1948 20.8352 46.4015C21.1339 46.6189 21.4349 46.7649 21.834 46.9585L21.834 46.9585L21.8898 46.9856C22.3866 47.2267 22.9849 47.0195 23.2261 46.5226C23.4672 46.0258 23.26 45.4275 22.7631 45.1863C22.2875 44.9555 22.1512 44.8857 22.0124 44.7846C21.8579 44.6722 21.6921 44.5146 21.2176 44.054Z"/>
</mask>
<path fill-rule="evenodd" clip-rule="evenodd" d="M23.8987 19.0574C20.1556 18.6902 15.8803 20.1722 14.7392 21.0004C10.2258 23.6293 6.16368 30.64 8.87175 39.8413C11.5798 49.0426 36.4037 62.6254 43.1739 59.5583C48.7877 57.0151 43.8851 39.5006 40.3459 30.7968C39.4584 28.6141 37.027 27.8018 34.6749 27.6622C30.9882 27.4433 28.5159 25.0736 27.258 22.2235C26.5861 20.7013 25.5546 19.2199 23.8987 19.0574ZM12.9749 31.5101C13.5226 31.5807 13.9095 32.0819 13.839 32.6297C13.6996 33.7117 13.4807 37.7004 16.6988 40.512C17.1147 40.8754 17.1573 41.5071 16.7939 41.923C16.4305 42.3389 15.7988 42.3815 15.3829 42.0182C11.3795 38.5204 11.6938 33.6291 11.8553 32.3742C11.9259 31.8265 12.4271 31.4396 12.9749 31.5101ZM21.2176 44.054C20.8213 43.6693 20.1882 43.6787 19.8036 44.0749C19.4189 44.4712 19.4282 45.1043 19.8245 45.489L19.88 45.5429C20.2778 45.9292 20.5513 46.1948 20.8352 46.4015C21.1339 46.6189 21.4349 46.7649 21.834 46.9585L21.834 46.9585L21.8898 46.9856C22.3866 47.2267 22.9849 47.0195 23.2261 46.5226C23.4672 46.0258 23.26 45.4275 22.7631 45.1863C22.2875 44.9555 22.1512 44.8857 22.0124 44.7846C21.8579 44.6722 21.6921 44.5146 21.2176 44.054Z" fill="#3AA980"/>
<path d="M14.7392 21.0004L15.7458 22.7287L15.8327 22.6781L15.914 22.619L14.7392 21.0004ZM23.8987 19.0574L24.094 17.067L23.8987 19.0574ZM43.1739 59.5583L42.3486 57.7365L42.3486 57.7365L43.1739 59.5583ZM40.3459 30.7968L42.1986 30.0434L42.1986 30.0434L40.3459 30.7968ZM34.6749 27.6622L34.7934 25.6657L34.7934 25.6657L34.6749 27.6622ZM27.258 22.2235L29.0877 21.416L29.0877 21.416L27.258 22.2235ZM13.839 32.6297L11.8553 32.3742L11.8553 32.3742L13.839 32.6297ZM16.6988 40.512L15.3829 42.0182L15.3829 42.0182L16.6988 40.512ZM16.7939 41.923L15.2878 40.6071L15.2878 40.6071L16.7939 41.923ZM15.3829 42.0182L14.067 43.5243L14.067 43.5243L15.3829 42.0182ZM11.8553 32.3742L13.839 32.6297L13.839 32.6297L11.8553 32.3742ZM21.2176 44.054L19.8245 45.489L19.8245 45.489L21.2176 44.054ZM19.8245 45.489L21.2178 44.0541L21.2176 44.054L19.8245 45.489ZM19.88 45.5429L21.2734 44.1081L21.2733 44.108L19.88 45.5429ZM20.8352 46.4015L22.0124 44.7846L22.0124 44.7846L20.8352 46.4015ZM21.834 46.9585L20.9612 48.758L20.9912 48.7726L21.0217 48.7861L21.834 46.9585ZM21.834 46.9585L22.7069 45.1591L22.6768 45.1445L22.6463 45.1309L21.834 46.9585ZM21.8898 46.9856L22.7631 45.1863L22.7627 45.1861L21.8898 46.9856ZM23.2261 46.5226L25.0253 47.396L25.0253 47.396L23.2261 46.5226ZM22.7631 45.1863L21.8898 46.9856L21.8898 46.9856L22.7631 45.1863ZM22.0124 44.7846L20.8352 46.4015L20.8352 46.4015L22.0124 44.7846ZM15.914 22.619C16.1753 22.4294 17.235 21.9271 18.8373 21.5186C20.3763 21.1263 22.1364 20.8941 23.7034 21.0479L24.094 17.067C21.918 16.8535 19.6688 17.1787 17.8492 17.6426C16.0928 18.0904 14.4443 18.7432 13.5644 19.3818L15.914 22.619ZM10.7904 39.2766C8.3308 30.9196 12.0623 24.8741 15.7458 22.7287L13.7326 19.2722C8.38928 22.3844 3.99656 30.3603 6.95312 40.4059L10.7904 39.2766ZM42.3486 57.7365C41.9324 57.9251 41.1842 58.0587 40.0108 57.9743C38.8675 57.892 37.4806 57.6148 35.9079 57.1481C32.7647 56.2152 29.0818 54.5858 25.481 52.5578C21.8825 50.5311 18.4392 48.1476 15.756 45.7451C13.0079 43.2847 11.3039 41.0214 10.7904 39.2766L6.95312 40.4059C7.79363 43.2618 10.2081 46.1469 13.0878 48.7252C16.0322 51.3615 19.7258 53.9073 23.5181 56.0431C27.308 58.1776 31.2698 59.9439 34.7698 60.9827C36.5187 61.5018 38.203 61.8545 39.7237 61.9639C41.2144 62.0712 42.7229 61.9583 43.9992 61.3801L42.3486 57.7365ZM38.4932 31.5501C40.2234 35.8052 42.2837 42.2149 43.2196 47.8173C43.6901 50.6334 43.8523 53.1094 43.6144 54.9604C43.3649 56.9012 42.7717 57.5448 42.3486 57.7365L43.9992 61.3801C46.383 60.3002 47.2822 57.8007 47.5817 55.4704C47.8929 53.0501 47.6608 50.1267 47.165 47.1582C46.1682 41.1916 44.0076 34.4922 42.1986 30.0434L38.4932 31.5501ZM34.5564 29.6587C36.7382 29.7882 38.0686 30.5058 38.4932 31.5501L42.1986 30.0434C40.8482 26.7224 37.3157 25.8154 34.7934 25.6657L34.5564 29.6587ZM25.4283 23.0311C26.9078 26.3834 29.9406 29.3847 34.5564 29.6587L34.7934 25.6657C32.0358 25.502 30.1239 23.7638 29.0877 21.416L25.4283 23.0311ZM23.7034 21.0479C23.9349 21.0706 24.1859 21.1784 24.4936 21.5041C24.8227 21.8525 25.1382 22.3738 25.4283 23.0311L29.0877 21.416C28.394 19.8442 26.9486 17.3471 24.094 17.067L23.7034 21.0479ZM15.8226 32.8851C16.0342 31.2418 14.8736 29.7381 13.2303 29.5265L12.7194 33.4938C12.1717 33.4232 11.7848 32.922 11.8553 32.3742L15.8226 32.8851ZM18.0147 39.0059C15.5807 36.8793 15.7059 33.7915 15.8226 32.8851L11.8553 32.3742C11.6934 33.6318 11.3807 38.5214 15.3829 42.0182L18.0147 39.0059ZM18.3 43.2389C19.3902 41.9912 19.2624 40.096 18.0147 39.0059L15.3829 42.0182C14.967 41.6548 14.9244 41.023 15.2878 40.6071L18.3 43.2389ZM14.067 43.5243C15.3147 44.6144 17.2099 44.4867 18.3 43.2389L15.2878 40.6071C15.6512 40.1912 16.2829 40.1487 16.6988 40.512L14.067 43.5243ZM9.87172 32.1188C9.68818 33.5443 9.27733 39.3395 14.067 43.5243L16.6988 40.512C13.4817 37.7012 13.6994 33.7139 13.839 32.6297L9.87172 32.1188ZM13.2303 29.5265C11.587 29.3149 10.0833 30.4755 9.87172 32.1188L13.839 32.6297C13.7684 33.1774 13.2672 33.5643 12.7194 33.4938L13.2303 29.5265ZM21.2386 45.468C20.8539 45.8643 20.2208 45.8737 19.8245 45.489L22.6107 42.619C21.4219 41.4649 19.5226 41.493 18.3685 42.6818L21.2386 45.468ZM21.2176 44.054C21.6139 44.4387 21.6233 45.0718 21.2386 45.468L18.3685 42.6818C17.2145 43.8707 17.2426 45.7699 18.4314 46.924L21.2176 44.054ZM21.2733 44.108L21.2178 44.0541L18.4312 46.9238L18.4867 46.9777L21.2733 44.108ZM22.0124 44.7846C21.8676 44.6792 21.7048 44.5271 21.2734 44.1081L18.4867 46.9776C18.8508 47.3313 19.2349 47.7103 19.658 48.0183L22.0124 44.7846ZM22.7068 45.159C22.2799 44.952 22.1428 44.8796 22.0124 44.7846L19.6579 48.0183C20.1249 48.3583 20.5899 48.5779 20.9612 48.758L22.7068 45.159ZM22.6463 45.1309L22.6462 45.1309L21.0217 48.7861L21.0217 48.7861L22.6463 45.1309ZM22.7627 45.1861L22.7069 45.1591L20.961 48.7579L21.0168 48.785L22.7627 45.1861ZM21.4268 45.6493C21.668 45.1524 22.2663 44.9452 22.7631 45.1863L21.0164 48.7848C22.507 49.5083 24.3018 48.8865 25.0253 47.396L21.4268 45.6493ZM21.8898 46.9856C21.3929 46.7444 21.1857 46.1461 21.4268 45.6493L25.0253 47.396C25.7488 45.9054 25.127 44.1106 23.6364 43.3871L21.8898 46.9856ZM20.8352 46.4015C21.1494 46.6302 21.4697 46.7817 21.8898 46.9856L23.6364 43.3871C23.3908 43.2679 23.2726 43.2093 23.2002 43.1708C23.1499 43.1441 23.1651 43.1499 23.1896 43.1678L20.8352 46.4015ZM19.8245 45.489C20.2486 45.9007 20.5372 46.1846 20.8352 46.4015L23.1896 43.1678C23.2023 43.177 23.1868 43.1683 23.0928 43.0814C22.994 42.9901 22.8524 42.8536 22.6107 42.619L19.8245 45.489Z" fill="white" mask="url(#path-3-outside-1_3896_114678)"/>
</svg>
