<svg width="72" height="72" viewBox="0 0 72 72" fill="none" xmlns="http://www.w3.org/2000/svg">
<path d="M41.0034 10.1581L40.6769 8.69406L40.6769 8.69406L41.0034 10.1581ZM47.8782 10.8732L48.4219 9.47521L47.8782 10.8732ZM40.1631 10.408L39.6858 8.98596L39.646 8.99933L39.6069 9.0149L40.1631 10.408ZM40.1631 10.408L40.6404 11.83L40.6802 11.8167L40.7192 11.8011L40.1631 10.408ZM39.8315 10.5173L39.3777 9.08755L39.3777 9.08755L39.8315 10.5173ZM30.8826 24.415L29.3831 24.3787L29.3831 24.3787L30.8826 24.415ZM53.257 49.2304L53.4576 50.7169L53.257 49.2304ZM58.4361 25.4716L59.9331 25.3778L58.4361 25.4716ZM53.9866 20.5238L53.3135 21.8643L53.9866 20.5238ZM50.1672 14.8346L48.6816 15.0419L50.1672 14.8346ZM38.453 21.4716L39.653 22.3716L39.653 22.3716L38.453 21.4716ZM37.8324 24.4701L39.3304 24.3931L39.3304 24.3931L37.8324 24.4701ZM39.2203 28.9795L37.9303 29.7449L37.9303 29.7449L39.2203 28.9795ZM38.7572 31.5561L37.8161 30.388L36.6614 31.3184L37.5784 32.4837L38.7572 31.5561ZM38.8576 31.7111L37.5291 32.4076L37.5291 32.4077L38.8576 31.7111ZM40.2686 33.9367L41.3086 32.8558L41.3086 32.8558L40.2686 33.9367ZM38.8819 35.3779L37.8418 36.4588L37.8418 36.4588L38.8819 35.3779ZM37.1311 32.7255L38.4598 32.0294L38.4596 32.0289L37.1311 32.7255ZM37.1311 32.7254L35.8025 33.4217L35.8027 33.422L37.1311 32.7254ZM37.0863 32.6398L38.4149 31.9436L38.4147 31.9433L37.0863 32.6398ZM37.0008 31.9367L38.4573 32.2954L38.8122 30.8547L37.3754 30.4842L37.0008 31.9367ZM35.7802 31.0206L34.4902 31.786L34.4902 31.786L35.7802 31.0206ZM33.8377 24.6753L35.3357 24.5983L33.8377 24.6753ZM35.253 19.0716L36.453 19.9716L36.453 19.9716L35.253 19.0716ZM41.3299 11.6221C42.4562 11.3709 45.1422 11.4185 47.3344 12.2712L48.4219 9.47521C45.6922 8.41345 42.4009 8.30956 40.6769 8.69406L41.3299 11.6221ZM40.6404 11.83C40.9303 11.7327 41.1337 11.6659 41.3299 11.6221L40.6769 8.69406C40.3021 8.77764 39.9507 8.89703 39.6858 8.98596L40.6404 11.83ZM40.7192 11.8011L40.7192 11.8011L39.6069 9.0149L39.6069 9.0149L40.7192 11.8011ZM40.2854 11.947C40.41 11.9074 40.532 11.8664 40.6404 11.83L39.6858 8.98596C39.5735 9.02365 39.4749 9.05672 39.3777 9.08755L40.2854 11.947ZM32.3822 24.4513C32.5582 17.1745 36.7803 13.0595 40.2854 11.947L39.3777 9.08755C34.5883 10.6078 29.5884 15.8902 29.3831 24.3787L32.3822 24.4513ZM53.0564 47.7439C52.6405 47.8 51.9831 47.7145 51.0571 47.3484C50.1519 46.9905 49.1046 46.4103 47.9608 45.6292C45.6747 44.0679 43.1385 41.7972 40.7728 39.2199C38.4088 36.6444 36.2583 33.8098 34.7209 31.1452C33.1527 28.4272 32.3425 26.0902 32.3822 24.4513L29.3831 24.3787C29.3228 26.8697 30.4838 29.8043 32.1224 32.6444C33.7918 35.5379 36.0838 38.5479 38.5627 41.2485C41.0398 43.9472 43.7468 46.3841 46.2689 48.1065C47.5292 48.9672 48.7772 49.673 49.9542 50.1383C51.1104 50.5954 52.3221 50.8702 53.4576 50.7169L53.0564 47.7439ZM56.939 25.5653C57.1921 29.6049 57.1476 35.2632 56.4354 39.9547C56.0777 42.3114 55.5655 44.3248 54.895 45.7502C54.1952 47.2378 53.5258 47.6805 53.0564 47.7439L53.4576 50.7169C55.4933 50.4422 56.7882 48.7735 57.6096 47.0272C58.4603 45.2188 59.0264 42.876 59.4015 40.405C60.155 35.4411 60.195 29.558 59.9331 25.3778L56.939 25.5653ZM53.3135 21.8643C54.3374 22.3784 55.2505 22.9357 55.9119 23.5793C56.5536 24.2036 56.8937 24.8426 56.939 25.5653L59.9331 25.3778C59.8286 23.7098 59.0144 22.4123 58.004 21.4291C57.0132 20.4652 55.7764 19.744 54.6597 19.1832L53.3135 21.8643ZM48.6816 15.0419C49.0547 17.7152 50.4445 20.4238 53.3135 21.8643L54.6597 19.1832C52.892 18.2957 51.9276 16.5963 51.6528 14.6272L48.6816 15.0419ZM47.3344 12.2712C47.6648 12.3997 47.9361 12.6549 48.1701 13.1287C48.4166 13.6277 48.5758 14.2837 48.6816 15.0419L51.6528 14.6272C51.53 13.7473 51.3154 12.7224 50.8599 11.8002C50.3919 10.8527 49.633 9.94627 48.4219 9.47521L47.3344 12.2712ZM39.653 22.3716C40.8128 20.8252 40.4994 18.6314 38.953 17.4716L37.153 19.8716C37.3739 20.0373 37.4187 20.3507 37.253 20.5716L39.653 22.3716ZM39.3304 24.3931C39.2648 23.1151 39.5706 22.4814 39.653 22.3716L37.253 20.5716C36.5993 21.4431 36.248 22.8669 36.3344 24.547L39.3304 24.3931ZM40.5103 28.2141C39.7677 26.9625 39.3916 25.5835 39.3304 24.3931L36.3344 24.547C36.4199 26.2123 36.9338 28.0654 37.9303 29.7449L40.5103 28.2141ZM39.6983 32.7241C41.0329 31.6488 41.4103 29.731 40.5103 28.2141L37.9303 29.7449C38.0581 29.9603 38.0055 30.2354 37.8161 30.388L39.6983 32.7241ZM37.5784 32.4837C37.5594 32.4595 37.5429 32.4339 37.5291 32.4076L40.186 31.0146C40.1139 30.877 40.03 30.748 39.936 30.6284L37.5784 32.4837ZM37.5291 32.4077C38.01 33.3248 38.5466 34.3614 39.2285 35.0176L41.3086 32.8558C41.0563 32.613 40.7515 32.0931 40.186 31.0146L37.5291 32.4077ZM39.2285 35.0176C39.0296 34.8261 39.0234 34.5096 39.2149 34.3106L41.3767 36.3907C42.334 35.3957 42.3035 33.8131 41.3086 32.8558L39.2285 35.0176ZM39.2149 34.3106C39.4064 34.1116 39.7229 34.1055 39.9219 34.297L37.8418 36.4588C38.8368 37.4161 40.4194 37.3856 41.3767 36.3907L39.2149 34.3106ZM39.9219 34.297C39.4034 33.7981 38.952 32.9687 38.4598 32.0294L35.8024 33.4215C36.2344 34.246 36.9037 35.5561 37.8418 36.4588L39.9219 34.297ZM38.4596 32.0289L38.4596 32.0289L35.8027 33.422L35.8027 33.422L38.4596 32.0289ZM38.4598 32.0292L38.4149 31.9436L35.7576 33.3361L35.8025 33.4217L38.4598 32.0292ZM38.4147 31.9433C38.4733 32.0549 38.4852 32.1823 38.4573 32.2954L35.5444 31.578C35.4038 32.1485 35.4633 32.7747 35.7578 33.3364L38.4147 31.9433ZM34.4902 31.786C34.9816 32.6141 35.7639 33.1668 36.6263 33.3892L37.3754 30.4842C37.2497 30.4518 37.1407 30.3739 37.0703 30.2552L34.4902 31.786ZM32.3396 24.7523C32.4577 27.0506 33.1552 29.536 34.4902 31.786L37.0703 30.2552C35.9892 28.4331 35.4294 26.4219 35.3357 24.5983L32.3396 24.7523ZM34.053 18.1715C32.634 20.0635 32.2262 22.5446 32.3396 24.7523L35.3357 24.5983C35.2426 22.7865 35.6079 21.0983 36.453 19.9716L34.053 18.1715ZM38.953 17.4716C37.4066 16.3118 35.2128 16.6252 34.053 18.1715L36.453 19.9716C36.6187 19.7507 36.9321 19.7059 37.153 19.8716L38.953 17.4716Z" fill="#FB934E"/>
<mask id="path-2-outside-1_873_2309" maskUnits="userSpaceOnUse" x="4" y="15.1892" width="48" height="53" fill="black">
<rect fill="white" x="4" y="15.1892" width="48" height="53"/>
<path fill-rule="evenodd" clip-rule="evenodd" d="M24.9234 18.3086C21.1107 17.7901 16.6509 19.0651 14.953 20.1284C14.7498 20.2557 14.5554 20.3965 14.3611 20.5373C14.2242 20.6365 14.0872 20.7358 13.9471 20.8303C9.16233 24.0582 5.06987 31.8645 7.96573 42C10.9657 52.5 38.4657 68 45.9657 64.5C52.276 61.5551 46.5916 41.0207 42.6612 31.248C41.7674 29.0257 39.2983 28.1793 36.9038 28.1172C32.4727 28.0023 29.5673 25.0421 28.1874 21.539C27.5813 20.0001 26.5623 18.5314 24.9234 18.3086ZM13.7481 32.0154C14.8441 32.1524 15.6216 33.152 15.4846 34.2481C15.3377 35.4229 15.1401 39.6012 18.3759 42.5134C19.1969 43.2523 19.2635 44.5169 18.5246 45.3379C17.7857 46.159 16.5211 46.2255 15.7001 45.4866C10.9359 41.1988 11.329 35.2438 11.5155 33.7519C11.6525 32.6559 12.652 31.8784 13.7481 32.0154ZM23.4142 46.5858C22.6332 45.8047 21.3668 45.8047 20.5858 46.5858C19.8047 47.3668 19.8047 48.6332 20.5858 49.4142L20.6709 49.4994L20.6709 49.4994C21.0865 49.9154 21.4331 50.2623 21.8 50.5375C22.1979 50.8359 22.6008 51.037 23.0222 51.2472L23.1056 51.2889C24.0935 51.7828 25.2949 51.3824 25.7889 50.3944C26.2828 49.4065 25.8824 48.2051 24.8944 47.7111C24.3461 47.437 24.276 47.3945 24.2 47.3375C24.0917 47.2563 23.9602 47.1318 23.4142 46.5858Z"/>
</mask>
<path d="M14.953 20.1284L16.5453 22.671L16.5453 22.671L14.953 20.1284ZM24.9234 18.3086L25.3276 15.3359H25.3276L24.9234 18.3086ZM14.3611 20.5373L12.601 18.1079L12.601 18.1079L14.3611 20.5373ZM13.9471 20.8303L12.2693 18.3433L12.2693 18.3433L13.9471 20.8303ZM7.96573 42L10.8503 41.1758L7.96573 42ZM45.9657 64.5L47.2344 67.2185L45.9657 64.5ZM42.6612 31.248L39.8778 32.3674V32.3674L42.6612 31.248ZM36.9038 28.1172L36.9816 25.1182L36.9038 28.1172ZM28.1874 21.539L25.3962 22.6384V22.6384L28.1874 21.539ZM15.4846 34.2481L18.4614 34.6202L15.4846 34.2481ZM13.7481 32.0154L14.1202 29.0386H14.1202L13.7481 32.0154ZM18.3759 42.5134L16.369 44.7433L18.3759 42.5134ZM18.5246 45.3379L16.2947 43.331L16.2947 43.331L18.5246 45.3379ZM15.7001 45.4866L17.7069 43.2567V43.2567L15.7001 45.4866ZM11.5155 33.7519L14.4923 34.124V34.124L11.5155 33.7519ZM20.5858 46.5858L22.7071 48.7071L22.7071 48.7071L20.5858 46.5858ZM23.4142 46.5858L21.2929 48.7071L21.2929 48.7071L23.4142 46.5858ZM20.5858 49.4142L22.7078 47.2936L22.7071 47.2929L20.5858 49.4142ZM20.6709 49.4994L22.9756 47.5788L22.8888 47.4747L22.7929 47.3788L20.6709 49.4994ZM20.6709 49.4994L18.3662 51.4199L18.4529 51.5239L18.5485 51.6197L20.6709 49.4994ZM21.8 50.5375L23.6 48.1375L23.6 48.1375L21.8 50.5375ZM23.0222 51.2472L24.3623 48.5632L24.3616 48.5628L23.0222 51.2472ZM23.1056 51.2889L24.4472 48.6056L24.4457 48.6048L23.1056 51.2889ZM25.7889 50.3944L28.4721 51.7361H28.4721L25.7889 50.3944ZM24.2 47.3375L26 44.9375L26 44.9375L24.2 47.3375ZM16.5453 22.671C16.987 22.3944 18.1539 21.9061 19.7743 21.5586C21.3508 21.2205 23.0549 21.0821 24.5191 21.2812L25.3276 15.3359C22.9792 15.0166 20.547 15.2564 18.516 15.692C16.5288 16.1182 14.617 16.7991 13.3607 17.5859L16.5453 22.671ZM16.1212 22.9667C16.3293 22.8159 16.4422 22.7356 16.5453 22.671L13.3607 17.5859C13.0573 17.7759 12.7816 17.9771 12.601 18.1079L16.1212 22.9667ZM15.6249 23.3172C15.8136 23.1899 15.9911 23.061 16.1212 22.9667L12.601 18.1079C12.4572 18.2121 12.3608 18.2816 12.2693 18.3433L15.6249 23.3172ZM10.8503 41.1758C8.29073 32.2173 11.977 25.7782 15.6249 23.3172L12.2693 18.3433C6.34761 22.3383 1.84902 31.5116 5.08115 42.8241L10.8503 41.1758ZM44.6971 61.7814C44.4176 61.9118 43.7531 62.068 42.5244 61.9769C41.3402 61.8892 39.8681 61.5898 38.1631 61.0686C34.7568 60.0271 30.7349 58.1974 26.7837 55.9051C22.8368 53.6153 19.071 50.9281 16.1481 48.2322C13.1345 45.4528 11.3662 42.9813 10.8503 41.1758L5.08115 42.8241C6.0653 46.2686 8.85945 49.6722 12.0802 52.6427C15.3917 55.6969 19.5322 58.6347 23.7728 61.0949C28.0091 63.5526 32.4559 65.5978 36.4089 66.8064C38.3836 67.4101 40.3139 67.8295 42.0809 67.9605C43.8033 68.0882 45.6389 67.9631 47.2344 67.2185L44.6971 61.7814ZM39.8778 32.3674C41.7826 37.1035 44.115 44.4679 45.1948 50.9289C45.7382 54.1808 45.9294 57.006 45.6848 59.0859C45.4204 61.3344 44.7868 61.7395 44.6971 61.7814L47.2344 67.2185C50.2998 65.788 51.322 62.522 51.6437 59.7867C51.9852 56.8827 51.6928 53.4113 51.1127 49.9399C49.9452 42.9544 47.4701 35.1652 45.4445 30.1286L39.8778 32.3674ZM36.826 31.1162C37.7298 31.1396 38.4983 31.3118 39.0395 31.5734C39.5419 31.8163 39.7647 32.0861 39.8778 32.3674L45.4445 30.1286C43.8587 26.1857 39.7354 25.1896 36.9816 25.1182L36.826 31.1162ZM25.3962 22.6384C27.0752 26.9011 30.8459 30.9611 36.826 31.1162L36.9816 25.1182C34.0996 25.0435 32.0594 23.1832 30.9787 20.4395L25.3962 22.6384ZM24.5191 21.2812C24.5232 21.2818 24.5254 21.2809 24.5431 21.2911C24.5677 21.3052 24.6312 21.3477 24.7255 21.4512C24.9312 21.6768 25.172 22.0692 25.3962 22.6384L30.9787 20.4395C30.2959 18.7058 28.695 15.7939 25.3276 15.3359L24.5191 21.2812ZM18.4614 34.6202C18.8039 31.8801 16.8603 29.3811 14.1202 29.0386L13.376 34.9923C12.828 34.9238 12.4392 34.424 12.5077 33.876L18.4614 34.6202ZM20.3828 40.2835C18.2903 38.4003 18.3451 35.5504 18.4614 34.6202L12.5077 33.876C12.3303 35.2953 11.9898 40.802 16.369 44.7433L20.3828 40.2835ZM20.7545 47.3448C22.6017 45.2923 22.4354 42.1308 20.3828 40.2835L16.369 44.7433C15.9585 44.3738 15.9252 43.7415 16.2947 43.331L20.7545 47.3448ZM13.6932 47.7165C15.7457 49.5638 18.9072 49.3974 20.7545 47.3448L16.2947 43.331C16.6641 42.9205 17.2964 42.8872 17.7069 43.2567L13.6932 47.7165ZM8.53862 33.3798C8.32301 35.1047 7.78076 42.3953 13.6932 47.7165L17.7069 43.2567C14.091 40.0024 14.3349 35.3829 14.4923 34.124L8.53862 33.3798ZM14.1202 29.0386C11.3801 28.6961 8.88113 30.6397 8.53862 33.3798L14.4923 34.124C14.4238 34.6721 13.924 35.0608 13.376 34.9923L14.1202 29.0386ZM22.7071 48.7071C22.3166 49.0976 21.6834 49.0976 21.2929 48.7071L25.5355 44.4645C23.5829 42.5118 20.4171 42.5118 18.4645 44.4645L22.7071 48.7071ZM22.7071 47.2929C23.0976 47.6834 23.0976 48.3166 22.7071 48.7071L18.4645 44.4645C16.5118 46.4171 16.5118 49.5829 18.4645 51.5355L22.7071 47.2929ZM22.7929 47.3788L22.7078 47.2936L18.4638 51.5348L18.5489 51.62L22.7929 47.3788ZM22.9756 47.5788L22.9756 47.5788L18.3662 51.4199L18.3662 51.4199L22.9756 47.5788ZM23.6 48.1375C23.4379 48.016 23.249 47.8353 22.7933 47.3791L18.5485 51.6197C18.9239 51.9954 19.4282 52.5086 20 52.9375L23.6 48.1375ZM24.3616 48.5628C23.9143 48.3396 23.749 48.2493 23.6 48.1375L20 52.9375C20.6467 53.4225 21.2873 53.7343 21.6827 53.9316L24.3616 48.5628ZM24.4457 48.6048L24.3623 48.5632L21.682 53.9312L21.7654 53.9729L24.4457 48.6048ZM23.1056 49.0528C23.3526 48.5588 23.9532 48.3586 24.4472 48.6056L21.7639 53.9721C24.2338 55.2071 27.2372 54.206 28.4721 51.7361L23.1056 49.0528ZM23.5528 50.3944C23.0588 50.1474 22.8586 49.5468 23.1056 49.0528L28.4721 51.7361C29.7071 49.2662 28.706 46.2628 26.2361 45.0279L23.5528 50.3944ZM22.4 49.7375C22.7428 49.9946 23.1019 50.169 23.5528 50.3944L26.2361 45.0279C26.1028 44.9612 26.0049 44.9118 25.9319 44.8745C25.8572 44.8362 25.82 44.8165 25.8043 44.8079C25.7884 44.7992 25.8157 44.8135 25.8633 44.8436C25.8891 44.8598 25.9165 44.878 25.9445 44.8975C25.9718 44.9165 25.992 44.9315 26 44.9375L22.4 49.7375ZM21.2929 48.7071C21.757 49.1712 22.0761 49.4946 22.4 49.7375L26 44.9375C26.0868 45.0026 26.1267 45.0462 26.0434 44.9666C25.9574 44.8844 25.8115 44.7405 25.5355 44.4645L21.2929 48.7071Z" fill="white" mask="url(#path-2-outside-1_873_2309)"/>
<mask id="path-4-inside-2_873_2309" fill="white">
<path fill-rule="evenodd" clip-rule="evenodd" d="M24.9234 18.1194C21.1107 17.6009 16.6509 18.8759 14.953 19.9392C14.7498 20.0665 14.5554 20.2073 14.3611 20.3481C14.2242 20.4473 14.0872 20.5465 13.9471 20.6411C9.16233 23.869 5.06987 31.6753 7.96573 41.8108C10.9657 52.3108 38.4657 67.8108 45.9657 64.3107C52.276 61.3659 46.5916 40.8315 42.6612 31.0588C41.7674 28.8365 39.2983 27.9901 36.9038 27.928C32.4727 27.8131 29.5673 24.8529 28.1874 21.3497C27.5813 19.8108 26.5623 18.3422 24.9234 18.1194ZM13.7481 31.8262C14.8441 31.9632 15.6216 32.9628 15.4846 34.0589C15.3377 35.2337 15.1401 39.4119 18.3759 42.3242C19.1969 43.0631 19.2635 44.3277 18.5246 45.1487C17.7857 45.9697 16.5211 46.0363 15.7001 45.2974C10.9359 41.0096 11.329 35.0546 11.5155 33.5627C11.6525 32.4667 12.652 31.6892 13.7481 31.8262ZM23.4142 46.3966C22.6332 45.6155 21.3668 45.6155 20.5858 46.3966C19.8047 47.1776 19.8047 48.444 20.5858 49.225L20.6709 49.3102L20.6709 49.3102C21.0865 49.7262 21.4331 50.0731 21.8 50.3483C22.1979 50.6467 22.6008 50.8478 23.0222 51.058L23.1056 51.0996C24.0935 51.5936 25.2949 51.1932 25.7889 50.2052C26.2828 49.2173 25.8824 48.0159 24.8944 47.5219C24.3461 47.2478 24.276 47.2053 24.2 47.1483C24.0917 47.0671 23.9602 46.9426 23.4142 46.3966Z"/>
</mask>
<path fill-rule="evenodd" clip-rule="evenodd" d="M24.9234 18.1194C21.1107 17.6009 16.6509 18.8759 14.953 19.9392C14.7498 20.0665 14.5554 20.2073 14.3611 20.3481C14.2242 20.4473 14.0872 20.5465 13.9471 20.6411C9.16233 23.869 5.06987 31.6753 7.96573 41.8108C10.9657 52.3108 38.4657 67.8108 45.9657 64.3107C52.276 61.3659 46.5916 40.8315 42.6612 31.0588C41.7674 28.8365 39.2983 27.9901 36.9038 27.928C32.4727 27.8131 29.5673 24.8529 28.1874 21.3497C27.5813 19.8108 26.5623 18.3422 24.9234 18.1194ZM13.7481 31.8262C14.8441 31.9632 15.6216 32.9628 15.4846 34.0589C15.3377 35.2337 15.1401 39.4119 18.3759 42.3242C19.1969 43.0631 19.2635 44.3277 18.5246 45.1487C17.7857 45.9697 16.5211 46.0363 15.7001 45.2974C10.9359 41.0096 11.329 35.0546 11.5155 33.5627C11.6525 32.4667 12.652 31.6892 13.7481 31.8262ZM23.4142 46.3966C22.6332 45.6155 21.3668 45.6155 20.5858 46.3966C19.8047 47.1776 19.8047 48.444 20.5858 49.225L20.6709 49.3102L20.6709 49.3102C21.0865 49.7262 21.4331 50.0731 21.8 50.3483C22.1979 50.6467 22.6008 50.8478 23.0222 51.058L23.1056 51.0996C24.0935 51.5936 25.2949 51.1932 25.7889 50.2052C26.2828 49.2173 25.8824 48.0159 24.8944 47.5219C24.3461 47.2478 24.276 47.2053 24.2 47.1483C24.0917 47.0671 23.9602 46.9426 23.4142 46.3966Z" fill="#FB934E"/>
<path d="M14.953 19.9392L16.5453 22.4818L16.5453 22.4818L14.953 19.9392ZM24.9234 18.1194L25.3276 15.1467H25.3276L24.9234 18.1194ZM14.3611 20.3481L12.601 17.9187L12.601 17.9187L14.3611 20.3481ZM13.9471 20.6411L12.2693 18.1541L12.2693 18.1541L13.9471 20.6411ZM7.96573 41.8108L10.8503 40.9866L7.96573 41.8108ZM45.9657 64.3107L47.2344 67.0293L45.9657 64.3107ZM42.6612 31.0588L39.8778 32.1782V32.1782L42.6612 31.0588ZM36.9038 27.928L36.9816 24.929L36.9038 27.928ZM28.1874 21.3497L25.3962 22.4492V22.4492L28.1874 21.3497ZM15.4846 34.0589L18.4614 34.431L15.4846 34.0589ZM13.7481 31.8262L14.1202 28.8494H14.1202L13.7481 31.8262ZM18.3759 42.3242L16.369 44.5541L18.3759 42.3242ZM18.5246 45.1487L16.2947 43.1418L16.2947 43.1418L18.5246 45.1487ZM15.7001 45.2974L17.7069 43.0675V43.0675L15.7001 45.2974ZM11.5155 33.5627L14.4923 33.9348V33.9348L11.5155 33.5627ZM20.5858 46.3966L22.7071 48.5179L22.7071 48.5179L20.5858 46.3966ZM23.4142 46.3966L21.2929 48.5179L21.2929 48.5179L23.4142 46.3966ZM20.5858 49.225L22.7078 47.1044L22.7071 47.1037L20.5858 49.225ZM20.6709 49.3102L22.9756 47.3896L22.8888 47.2855L22.7929 47.1896L20.6709 49.3102ZM20.6709 49.3102L18.3662 51.2307L18.4529 51.3347L18.5485 51.4305L20.6709 49.3102ZM21.8 50.3483L23.6 47.9483L23.6 47.9483L21.8 50.3483ZM23.0222 51.058L24.3623 48.374L24.3616 48.3736L23.0222 51.058ZM23.1056 51.0996L24.4472 48.4164L24.4457 48.4156L23.1056 51.0996ZM25.7889 50.2052L28.4721 51.5469H28.4721L25.7889 50.2052ZM24.2 47.1483L26 44.7483L26 44.7483L24.2 47.1483ZM16.5453 22.4818C16.987 22.2052 18.1539 21.7169 19.7743 21.3694C21.3508 21.0313 23.0549 20.8929 24.5191 21.092L25.3276 15.1467C22.9792 14.8274 20.547 15.0672 18.516 15.5028C16.5288 15.929 14.617 16.6099 13.3607 17.3967L16.5453 22.4818ZM16.1212 22.7775C16.3293 22.6267 16.4422 22.5464 16.5453 22.4818L13.3607 17.3967C13.0573 17.5867 12.7816 17.7879 12.601 17.9187L16.1212 22.7775ZM15.6249 23.128C15.8136 23.0007 15.9911 22.8718 16.1212 22.7775L12.601 17.9187C12.4572 18.0229 12.3608 18.0924 12.2693 18.1541L15.6249 23.128ZM10.8503 40.9866C8.29073 32.0281 11.977 25.589 15.6249 23.128L12.2693 18.1541C6.34761 22.1491 1.84902 31.3224 5.08115 42.6349L10.8503 40.9866ZM44.6971 61.5922C44.4176 61.7226 43.7531 61.8788 42.5244 61.7877C41.3402 61.6999 39.8681 61.4006 38.1631 60.8794C34.7568 59.8379 30.7349 58.0082 26.7837 55.7158C22.8368 53.426 19.071 50.7389 16.1481 48.043C13.1345 45.2635 11.3662 42.7921 10.8503 40.9866L5.08115 42.6349C6.0653 46.0794 8.85945 49.483 12.0802 52.4535C15.3917 55.5077 19.5322 58.4455 23.7728 60.9057C28.0091 63.3634 32.4559 65.4086 36.4089 66.6172C38.3836 67.2209 40.3139 67.6403 42.0809 67.7713C43.8033 67.899 45.6389 67.7739 47.2344 67.0293L44.6971 61.5922ZM39.8778 32.1782C41.7826 36.9143 44.115 44.2787 45.1948 50.7397C45.7382 53.9916 45.9294 56.8168 45.6848 58.8967C45.4204 61.1451 44.7868 61.5503 44.6971 61.5922L47.2344 67.0293C50.2998 65.5987 51.322 62.3328 51.6437 59.5975C51.9852 56.6935 51.6928 53.2221 51.1127 49.7507C49.9452 42.7652 47.4701 34.976 45.4445 29.9394L39.8778 32.1782ZM36.826 30.927C37.7298 30.9504 38.4983 31.1226 39.0395 31.3842C39.5419 31.6271 39.7647 31.8969 39.8778 32.1782L45.4445 29.9394C43.8587 25.9965 39.7354 25.0004 36.9816 24.929L36.826 30.927ZM25.3962 22.4492C27.0752 26.7119 30.8459 30.7719 36.826 30.927L36.9816 24.929C34.0996 24.8543 32.0594 22.994 30.9787 20.2503L25.3962 22.4492ZM24.5191 21.092C24.5232 21.0926 24.5254 21.0917 24.5431 21.1019C24.5677 21.116 24.6312 21.1585 24.7255 21.262C24.9312 21.4876 25.172 21.88 25.3962 22.4492L30.9787 20.2503C30.2959 18.5166 28.695 15.6046 25.3276 15.1467L24.5191 21.092ZM18.4614 34.431C18.8039 31.6909 16.8603 29.1919 14.1202 28.8494L13.376 34.8031C12.828 34.7346 12.4392 34.2348 12.5077 33.6868L18.4614 34.431ZM20.3828 40.0943C18.2903 38.2111 18.3451 35.3612 18.4614 34.431L12.5077 33.6868C12.3303 35.1061 11.9898 40.6128 16.369 44.5541L20.3828 40.0943ZM20.7545 47.1556C22.6017 45.1031 22.4354 41.9416 20.3828 40.0943L16.369 44.5541C15.9585 44.1846 15.9252 43.5523 16.2947 43.1418L20.7545 47.1556ZM13.6932 47.5273C15.7457 49.3746 18.9072 49.2082 20.7545 47.1556L16.2947 43.1418C16.6641 42.7313 17.2964 42.698 17.7069 43.0675L13.6932 47.5273ZM8.53862 33.1906C8.32301 34.9154 7.78076 42.2061 13.6932 47.5273L17.7069 43.0675C14.091 39.8132 14.3349 35.1937 14.4923 33.9348L8.53862 33.1906ZM14.1202 28.8494C11.3801 28.5069 8.88113 30.4505 8.53862 33.1906L14.4923 33.9348C14.4238 34.4828 13.924 34.8716 13.376 34.8031L14.1202 28.8494ZM22.7071 48.5179C22.3166 48.9084 21.6834 48.9084 21.2929 48.5179L25.5355 44.2753C23.5829 42.3226 20.4171 42.3226 18.4645 44.2753L22.7071 48.5179ZM22.7071 47.1037C23.0976 47.4942 23.0976 48.1274 22.7071 48.5179L18.4645 44.2753C16.5118 46.2279 16.5118 49.3937 18.4645 51.3463L22.7071 47.1037ZM22.7929 47.1896L22.7078 47.1044L18.4638 51.3456L18.5489 51.4308L22.7929 47.1896ZM22.9756 47.3896L22.9756 47.3896L18.3662 51.2307L18.3662 51.2307L22.9756 47.3896ZM23.6 47.9483C23.4379 47.8267 23.249 47.6461 22.7933 47.1899L18.5485 51.4305C18.9239 51.8062 19.4282 52.3194 20 52.7483L23.6 47.9483ZM24.3616 48.3736C23.9143 48.1504 23.749 48.06 23.6 47.9483L20 52.7483C20.6467 53.2333 21.2873 53.5451 21.6827 53.7424L24.3616 48.3736ZM24.4457 48.4156L24.3623 48.374L21.682 53.742L21.7654 53.7837L24.4457 48.4156ZM23.1056 48.8636C23.3526 48.3696 23.9532 48.1694 24.4472 48.4164L21.7639 53.7829C24.2338 55.0179 27.2372 54.0168 28.4721 51.5469L23.1056 48.8636ZM23.5528 50.2052C23.0588 49.9582 22.8586 49.3576 23.1056 48.8636L28.4721 51.5469C29.7071 49.077 28.706 46.0736 26.2361 44.8387L23.5528 50.2052ZM22.4 49.5483C22.7428 49.8054 23.1019 49.9798 23.5528 50.2052L26.2361 44.8387C26.1028 44.772 26.0049 44.7226 25.9319 44.6853C25.8572 44.647 25.82 44.6273 25.8043 44.6187C25.7884 44.61 25.8157 44.6243 25.8633 44.6543C25.8891 44.6706 25.9165 44.6888 25.9445 44.7083C25.9718 44.7273 25.992 44.7423 26 44.7483L22.4 49.5483ZM21.2929 48.5179C21.757 48.982 22.0761 49.3054 22.4 49.5483L26 44.7483C26.0868 44.8134 26.1267 44.8569 26.0434 44.7774C25.9574 44.6952 25.8115 44.5512 25.5355 44.2753L21.2929 48.5179Z" fill="#FB934E" mask="url(#path-4-inside-2_873_2309)"/>
</svg>
