<svg width="68" height="68" viewBox="0 0 68 68" fill="none" xmlns="http://www.w3.org/2000/svg">
<circle cx="47" cy="24" r="8" fill="white" stroke="#3AA980" stroke-width="2"/>
<path d="M48 19.2857C48 19.9958 47.3333 21 47 21C46.6667 21 46 19.9958 46 19.2857C46 18.5756 46.4477 18 47 18C47.5523 18 48 18.5756 48 19.2857Z" fill="#3AA980"/>
<path d="M46 28.7143C46 28.0042 46.6667 27 47 27C47.3333 27 48 28.0042 48 28.7143C48 29.4244 47.5523 30 47 30C46.4477 30 46 29.4244 46 28.7143Z" fill="#3AA980"/>
<path d="M51.0402 21.3732C50.5381 21.8753 49.3566 22.1139 49.1209 21.8782C48.8852 21.6425 49.1239 20.461 49.626 19.9589C50.1281 19.4568 50.8517 19.3664 51.2423 19.7569C51.6328 20.1474 51.5423 20.8711 51.0402 21.3732Z" fill="#3AA980"/>
<path d="M42.9598 26.6268C43.4619 26.1247 44.6434 25.8861 44.8791 26.1218C45.1148 26.3575 44.8761 27.539 44.374 28.0411C43.8719 28.5432 43.1483 28.6336 42.7577 28.2431C42.3672 27.8526 42.4577 27.1289 42.9598 26.6268Z" fill="#3AA980"/>
<path d="M51.7143 24.999C51.0042 24.999 50 24.3324 50 23.999C50 23.6657 51.0042 22.999 51.7143 22.999C52.4244 22.999 53 23.4467 53 23.999C53 24.5513 52.4244 24.999 51.7143 24.999Z" fill="#3AA980"/>
<path d="M42.2857 23.001C42.9958 23.001 44 23.6676 44 24.001C44 24.3343 42.9958 25.001 42.2857 25.001C41.5756 25.001 41 24.5533 41 24.001C41 23.4487 41.5756 23.001 42.2857 23.001Z" fill="#3AA980"/>
<path d="M49.6268 28.0402C49.1247 27.5381 48.8861 26.3566 49.1218 26.1209C49.3575 25.8852 50.539 26.1239 51.0411 26.626C51.5432 27.1281 51.6336 27.8517 51.2431 28.2423C50.8526 28.6328 50.1289 28.5423 49.6268 28.0402Z" fill="#3AA980"/>
<path d="M44.3732 19.9598C44.8753 20.4619 45.1139 21.6434 44.8782 21.8791C44.6425 22.1148 43.461 21.8761 42.9589 21.374C42.4568 20.8719 42.3664 20.1483 42.7569 19.7577C43.1474 19.3672 43.8711 19.4577 44.3732 19.9598Z" fill="#3AA980"/>
<path d="M14.7125 17.9605C18.1028 14.8458 23.627 16.0738 25.6888 20.1902C28.2386 25.2808 31.7743 31.4289 35.5335 35.1881C39.259 38.9136 45.3309 42.4197 50.3944 44.964C54.4901 47.0221 55.6023 52.5959 52.3612 55.837C49.6688 58.5294 45.6338 59.3724 42.1859 57.7568C36.7491 55.2091 28.7631 51.0081 24.2383 46.4833C19.8922 42.1371 15.4921 34.5979 12.6351 29.1914C10.6439 25.4232 11.5739 20.8438 14.7125 17.9605Z" fill="#3AA980"/>
<path d="M16.4998 20C15.6664 18.5 13.9998 15 13.9998 13" stroke="#3AA980" stroke-width="2" stroke-linecap="round"/>
<path d="M42.9998 46C43.4998 46 52.9998 52.4067 60.9998 51.9796" stroke="white" stroke-width="2" stroke-linecap="round"/>
<path d="M16.4998 28C18.9998 34 22.4998 39.5 28.4998 44.5" stroke="white" stroke-width="2" stroke-linecap="round"/>
<path d="M30.9998 46.5C36.9998 51 40.4998 53 47.9998 55.5" stroke="white" stroke-width="2" stroke-linecap="round"/>
<path d="M29.9998 35.5C30.9998 37 33.5998 40.4 35.9998 42" stroke="white" stroke-width="2" stroke-linecap="round"/>
<circle cx="27.4998" cy="48.5" r="1.5" fill="#3AA980"/>
<circle cx="43.4998" cy="57.5" r="1.5" fill="#3AA980"/>
<circle cx="27.9998" cy="32" r="1" fill="white"/>
<circle cx="15.9998" cy="24" r="1" fill="white"/>
<circle cx="44.4998" cy="42.5" r="1.5" fill="#3AA980"/>
<circle cx="29.4998" cy="27.5" r="1.5" fill="#3AA980"/>
<circle cx="37.4998" cy="38.5" r="1.5" fill="#3AA980"/>
<circle cx="35.4998" cy="36.5" r="1.5" fill="#3AA980"/>
<circle cx="20.4998" cy="41.5" r="1.5" fill="#3AA980"/>
<circle cx="12.4998" cy="27.5" r="1.5" fill="#3AA980"/>
<circle cx="23.4998" cy="44.5" r="1.5" fill="#3AA980"/>
</svg>
