<svg width="68" height="68" viewBox="0 0 68 68" fill="none" xmlns="http://www.w3.org/2000/svg">
<rect width="68" height="68" rx="8" stroke="#DBDDE7"/>
<path d="M29 13H41V15.5089C41 19.1101 42.1101 22.6237 44.1791 25.5711C46.6675 29.1807 48 33.4613 48 37.8456V56C48 57.1046 47.1046 58 46 58H24C22.8954 58 22 57.1046 22 56V37.8456C22 33.4613 23.3325 29.1807 25.8209 25.5712C27.8899 22.6237 29 19.1101 29 15.5089V13Z" fill="white" stroke="#3AA980" stroke-width="2"/>
<rect x="27" y="9" width="16" height="8" rx="1" fill="#3AA980"/>
<path d="M27.1143 55.5H42.8857C44.0534 55.5 45 54.5534 45 53.3857V37.4721C45 34.5311 44.3153 31.6305 43 29L40.8739 25.4565C40.3317 24.5529 39.3552 24 38.3014 24H31.6986C30.6448 24 29.6683 24.5529 29.1261 25.4565L27 29C25.6847 31.6305 25 34.5311 25 37.4721V53.3857C25 54.5534 25.9466 55.5 27.1143 55.5Z" fill="#3AA980"/>
<path d="M25 12H45.5" stroke="white"/>
<path d="M32.5 12.5C32.5 12.2239 32.7239 12 33 12H37C37.2761 12 37.5 12.2239 37.5 12.5V13C37.5 13.8284 36.8284 14.5 36 14.5H34C33.1716 14.5 32.5 13.8284 32.5 13V12.5Z" stroke="white"/>
</svg>
