<svg width="68" height="68" viewBox="0 0 68 68" fill="none" xmlns="http://www.w3.org/2000/svg">
<path d="M29.6829 21.0487C29.7501 20.6529 29.8087 20.2954 29.8561 20H38.1439C38.1913 20.2954 38.2498 20.6529 38.3171 21.0487C38.5023 22.1397 38.7559 23.536 39.0248 24.7212C39.3905 26.3333 39.8861 28.2823 40.354 30.1001C40.4327 30.4059 40.5105 30.7078 40.5868 31.0036C40.9666 32.4761 41.3082 33.8007 41.5269 34.7292C41.9758 36.6353 42.5035 38.2371 43.0034 39.7542C43.1867 40.3107 43.3663 40.8559 43.5369 41.4005C44.1766 43.4426 44.7311 45.5912 45.0041 48.5906C45.2404 51.1863 45.1836 55.3216 45.104 58.1128C45.074 59.1627 44.2095 60 43.1387 60H24.8613C23.7905 60 22.926 59.1627 22.896 58.1128C22.8164 55.3216 22.7596 51.1863 22.9959 48.5906C23.2689 45.5912 23.8236 43.4427 24.4634 41.4006C24.6339 40.8561 24.8135 40.3112 24.9968 39.7549C25.4968 38.2375 26.0247 36.6356 26.4737 34.7292C26.6922 33.8012 27.0336 32.4774 27.413 31.0059C27.4895 30.7093 27.5675 30.4067 27.6464 30.1C28.1141 28.2822 28.6096 26.3332 28.9752 24.7212C29.2441 23.536 29.4977 22.1397 29.6829 21.0487Z" fill="white" stroke="#3AA980" stroke-width="2"/>
<path d="M31.0834 28.9605C31.1061 28.891 31.1432 28.8477 31.1997 28.8135C31.2647 28.7743 31.3722 28.7393 31.5223 28.7393H36.4776C36.6277 28.7393 36.7352 28.7743 36.8003 28.8136C36.8568 28.8477 36.8939 28.891 36.9166 28.9606L37.6195 28.7313L36.9166 28.9606C37.0032 29.2262 37.1078 29.6115 37.2184 30.1602C37.4585 31.3509 37.784 32.791 38.0915 34.135C38.1432 34.361 38.1943 34.584 38.2444 34.8027C38.494 35.8914 38.7188 36.8717 38.8626 37.5589C39.157 38.9651 39.5026 40.1453 39.8309 41.2662C39.9516 41.6783 40.0699 42.0823 40.1825 42.4866C40.6036 43.9992 40.9693 45.593 41.1493 47.8179C41.3048 49.7389 41.2677 52.7934 41.2155 54.8566C41.1958 55.6371 40.5542 56.2607 39.7597 56.2607H28.2403C27.4458 56.2607 26.8042 55.6371 26.7845 54.8566C26.7323 52.7934 26.6952 49.7389 26.8507 47.8179C27.0307 45.593 27.3965 43.9992 27.8177 42.4866C27.9303 42.0825 28.0486 41.6786 28.1692 41.2667C28.4976 40.1456 28.8433 38.9653 29.1377 37.5589C29.2815 36.872 29.5061 35.8924 29.7554 34.8045C29.8057 34.5852 29.8569 34.3615 29.9087 34.135C30.2161 32.7909 30.5416 31.3508 30.7816 30.1602C30.8923 29.6115 30.9968 29.2261 31.0834 28.9605Z" fill="#3AA980" stroke="#3AA980" stroke-width="1.47868"/>
<path d="M26.8775 12.6325C26.4458 11.3374 27.4097 10 28.7749 10H39.2251C40.5903 10 41.5542 11.3374 41.1225 12.6325L39 19H29L26.8775 12.6325Z" fill="#3AA980"/>
<rect x="25" y="14" width="10" height="3" rx="1" fill="#3AA980"/>
</svg>
