<svg width="68" height="68" viewBox="0 0 68 68" fill="none" xmlns="http://www.w3.org/2000/svg">
<path d="M29.5001 17.7446C29.5889 17.4607 29.6677 17.2097 29.7336 17H38.2665C38.3324 17.2098 38.4112 17.4608 38.5 17.7447C38.7756 18.625 39.1484 19.8214 39.5375 21.0864C40.3215 23.6353 41.1541 26.4068 41.4066 27.4698C41.7653 28.9797 42.162 30.4268 42.5572 31.8685C43.5069 35.3329 44.4481 38.7665 44.8337 42.9664C45.0909 45.7687 44.9952 52.2396 44.907 56.0732C44.8823 57.144 44.005 58 42.9241 58H25.0756C23.9947 58 23.1173 57.144 23.0927 56.0731C23.0047 52.2395 22.9092 45.7687 23.1665 42.9664C23.552 38.7671 24.4932 35.3341 25.4429 31.8703C25.8384 30.428 26.2353 28.9803 26.5941 27.4698C26.8466 26.4068 27.6791 23.6352 28.4629 21.0863C28.8519 19.8214 29.2246 18.6249 29.5001 17.7446Z" fill="white" stroke="#3AA980" stroke-width="2"/>
<path d="M31.2886 23.6417C31.445 23.107 31.9358 22.7393 32.4949 22.7393H35.5051C36.0642 22.7393 36.555 23.107 36.7114 23.6417C37.4805 26.271 39.022 31.5903 39.2759 32.8211C39.4811 33.8157 39.6798 34.693 39.8682 35.5242C40.4173 37.9477 40.8776 39.9796 41.1493 43.3872C41.3242 45.5822 41.2553 50.3388 41.196 53.0469C41.1812 53.7212 40.6294 54.2607 39.9458 54.2607H28.0542C27.3706 54.2607 26.8188 53.7212 26.804 53.0469C26.7447 50.3388 26.6758 45.5822 26.8507 43.3872C27.1224 39.9796 27.5827 37.9477 28.1318 35.5242C28.3202 34.693 28.5189 33.8157 28.7241 32.8211C28.978 31.5903 30.5195 26.271 31.2886 23.6417Z" fill="#3AA980" stroke="#3AA980" stroke-width="1.47868"/>
<path d="M29 11C29 9.89543 29.8954 9 31 9L37 9C38.1046 9 39 9.89543 39 11V16H29V11Z" fill="#3AA980"/>
</svg>
