<svg width="68" height="68" viewBox="0 0 68 68" fill="none" xmlns="http://www.w3.org/2000/svg">
<path d="M9.90552 21.8292C10.5823 29.9323 11.2396 38.0029 9.91511 48.4837C9.79987 49.3956 9.92308 50.3605 10.4418 51.2164C10.9648 52.0794 11.7621 52.6199 12.6053 52.9005C14.1976 53.4301 16.0706 53.1006 17.7845 52.3818C21.0845 50.9979 26.5399 48.4865 30.8225 44.1269C35.1936 39.6772 38.3225 33.3091 36.8391 24.5229C36.2123 20.81 34.1502 17.2799 31.371 14.6338C28.5907 11.9868 24.9371 10.0795 20.9966 9.86054C18.3423 9.71307 15.2873 10.0822 12.9833 12.0402C10.5804 14.0822 9.53324 17.3717 9.90552 21.8292Z" fill="#3AA980" stroke="white" stroke-width="4.3371"/>
<path d="M59.0945 45.7714C58.4177 37.6683 57.7604 29.5977 59.0849 19.1169C59.2001 18.205 59.0769 17.2401 58.5582 16.3842C58.0352 15.5212 57.2379 14.9806 56.3947 14.7001C54.8024 14.1704 52.9294 14.5 51.2155 15.2187C47.9155 16.6027 42.4601 19.114 38.1775 23.4736C33.8064 27.9234 30.6775 34.2915 32.1609 43.0777C32.7877 46.7906 34.8498 50.3207 37.629 52.9667C40.4093 55.6138 44.0629 57.5211 48.0034 57.74C50.6577 57.8875 53.7127 57.5184 56.0167 55.5604C58.4196 53.5184 59.4668 50.2289 59.0945 45.7714Z" fill="#3AA980" stroke="white" stroke-width="4.3371"/>
</svg>
