<svg width="68" height="68" viewBox="0 0 68 68" fill="none" xmlns="http://www.w3.org/2000/svg">
<rect width="68" height="68" rx="8" stroke="#DBDDE7"/>
<path d="M31 11.5H37V16.5465C37 19.1248 37.5197 21.6767 38.5282 24.0496L39.6565 26.7046C40.0214 27.5632 40.4833 28.3773 41.0332 29.1309C42.3113 30.8823 43 32.9944 43 35.1626V60C43 61.1046 42.1046 62 41 62H27C25.8954 62 25 61.1046 25 60V35.1626C25 32.9944 25.6887 30.8823 26.9668 29.1309L26.159 28.5414L26.9668 29.1309C27.5167 28.3773 27.9786 27.5632 28.3435 26.7046L29.4718 24.0496C30.4803 21.6767 31 19.1248 31 16.5465V11.5Z" fill="white" stroke="#3AA980" stroke-width="2"/>
<rect x="29" y="8" width="10" height="5" rx="1" fill="#3AA980"/>
<path d="M31.4776 26.2037C31.7948 25.4729 32.5155 25 33.3122 25H34.6878C35.4845 25 36.2052 25.4729 36.5224 26.2037L37.9785 29.5585C38.1583 29.9729 38.3683 30.3737 38.6068 30.7574C39.5174 32.2232 40 33.9145 40 35.6401V56.8857C40 58.0534 39.0534 59 37.8857 59H30.1143C28.9466 59 28 58.0534 28 56.8857L28 35.6401C28 33.9145 28.4826 32.2232 29.3932 30.7574C29.6317 30.3737 29.8417 29.9729 30.0215 29.5585L31.4776 26.2037Z" fill="#3AA980"/>
<rect x="26" y="38" width="16" height="13" fill="#3AA980"/>
<path d="M37 45.7C37 47.5225 35.6569 49 34 49C32.3431 49 31 47.5225 31 45.7C31 43.8775 33.7273 40.3 34 40C34.2727 40.3 37 43.8775 37 45.7Z" fill="white"/>
<rect x="26" y="37" width="16" height="1" fill="white"/>
<rect x="26" y="51" width="16" height="1" fill="white"/>
</svg>
