<svg width="68" height="68" viewBox="0 0 68 68" fill="none" xmlns="http://www.w3.org/2000/svg">
<path d="M42.8341 32.2881L42.8342 32.2883L42.841 32.3076L42.8685 32.3865C42.8927 32.4564 42.9287 32.5607 42.9748 32.6965C43.0671 32.968 43.2001 33.365 43.3619 33.8642C43.6856 34.8629 44.1242 36.2686 44.5827 37.8939C45.5036 41.1585 46.4896 45.2564 46.8045 48.7165C47.0073 50.9452 47.0652 53.0819 47.0683 54.7411C47.0706 55.9887 46.0451 57 44.7365 57H23.2624C21.9539 57 20.9286 55.9888 20.9308 54.7415C20.9337 53.0823 20.9914 50.9454 21.1943 48.7165C21.5092 45.2564 22.4952 41.1585 23.4161 37.894C23.8747 36.2686 24.3133 34.8629 24.6371 33.8642C24.7989 33.3651 24.9319 32.968 25.0242 32.6965C25.0703 32.5608 25.1062 32.4564 25.1305 32.3865L25.158 32.3077L25.1647 32.2883L25.1648 32.2881L25.1683 32.2785L25.1852 32.2323C25.2 32.1918 25.2216 32.1323 25.2494 32.0556C25.3049 31.9021 25.3848 31.6793 25.4832 31.4008C25.6801 30.8438 25.9511 30.063 26.2485 29.1663C26.7611 27.6207 27.3593 25.7084 27.7881 24H40.2107C40.6395 25.7085 41.2378 27.6208 41.7504 29.1663C42.0478 30.063 42.3189 30.8439 42.5157 31.4008C42.6142 31.6793 42.6941 31.9021 42.7496 32.0556C42.7773 32.1323 42.799 32.1918 42.8137 32.2323L42.8307 32.2786L42.8341 32.2881Z" fill="white" stroke="#3AA980" stroke-width="2"/>
<path d="M26.559 54H41.441C42.8126 54 43.9537 52.9571 43.9867 51.5859C44.0165 50.3452 44.005 48.744 43.8598 47.0698C43.404 41.8154 41.3516 35.7917 41.3516 35.7917C41.3516 35.7917 41.0674 34.8969 40.2746 32.8719C39.8303 31.737 38.7286 31 37.5098 31H30.5815C29.3627 31 28.261 31.737 27.8167 32.8719C27.024 34.8969 26.7397 35.7917 26.7397 35.7917C26.7397 35.7917 24.596 41.8154 24.1402 47.0698C23.995 48.744 23.9835 50.3452 24.0133 51.5859C24.0463 52.9571 25.1874 54 26.559 54Z" fill="#3AA980"/>
<rect x="25" y="15" width="18" height="9" rx="4.5" fill="white" stroke="#3AA980" stroke-width="2"/>
<circle cx="30" cy="18" r="1" fill="#3AA980"/>
<circle cx="34" cy="18" r="1" fill="#3AA980"/>
<circle cx="38" cy="18" r="1" fill="#3AA980"/>
<circle cx="30.5" cy="31.5" r="1.5" fill="#3AA980"/>
<circle cx="32.5" cy="30.5" r="1.5" fill="#3AA980"/>
<circle cx="34.5" cy="31.5" r="1.5" fill="#3AA980"/>
<circle cx="36.5" cy="31.5" r="1.5" fill="#3AA980"/>
<circle cx="38.5" cy="32.5" r="1.5" fill="#3AA980"/>
<path d="M30.5742 48V39.5156H34.1836C36.082 39.5156 37.3242 40.7109 37.3242 42.4922C37.3242 44.3086 36.0469 45.4453 34.1133 45.4453H32.8008V48H30.5742ZM32.8008 43.7109H33.668C34.5117 43.7109 34.9922 43.2422 34.9922 42.4922C34.9922 41.7539 34.5117 41.2969 33.668 41.2969H32.8008V43.7109Z" fill="white"/>
</svg>
