<svg width="68" height="68" viewBox="0 0 68 68" fill="none" xmlns="http://www.w3.org/2000/svg">
<path d="M34.8506 32.4642C19.7648 36.1617 19.4677 46.3709 23.2312 52.8113C28.3394 61.553 41.8576 59.6937 50.9942 52.6701C62.1642 44.0834 62.4428 35.8348 57.4409 30.989C51.3619 25.0998 42.1501 30.675 34.8506 32.4642Z" fill="#3AA980"/>
<path d="M35.497 11.1214C21.8832 9.70399 21.4138 21.0466 15.7805 27.1906C12.6283 30.6287 4.51392 40.8962 9.67777 50.3485C14.8416 59.8009 27.5165 59.8009 33.1498 54.1295C55.683 33.3343 49.3254 12.5611 35.497 11.1214Z" fill="#3AA980" stroke="white" stroke-width="2"/>
<circle cx="43" cy="23" r="1" fill="white"/>
<circle cx="54" cy="39" r="1" fill="white"/>
<circle cx="38" cy="25" r="1" fill="white"/>
<circle cx="49" cy="40" r="1" fill="white"/>
<circle cx="53" cy="43" r="1" fill="white"/>
<circle cx="19" cy="30" r="1" fill="white"/>
<circle cx="30" cy="18" r="1" fill="white"/>
<circle cx="23" cy="46" r="1" fill="white"/>
<circle cx="43" cy="53" r="1" fill="white"/>
<circle cx="24" cy="52" r="1" fill="white"/>
<circle cx="30" cy="50" r="1" fill="white"/>
</svg>
