<svg width="68" height="68" viewBox="0 0 68 68" fill="none" xmlns="http://www.w3.org/2000/svg">
<path d="M31.5756 18.782C33.0689 17.8884 34.9325 17.8884 36.4258 18.782L36.6709 18.9287C38.3582 19.9384 40.3589 20.2893 42.289 19.914C43.6933 19.641 45.136 20.1434 46.067 21.2297L46.7952 22.0793L48.3138 20.7778L46.7952 22.0793C47.5704 22.9839 48.5457 23.6956 49.6437 24.1579C50.7146 24.6088 51.5089 25.5398 51.7856 26.6683L53.7281 26.192L51.7856 26.6683L52.1974 28.3476L52.3398 29.4958C52.5518 31.2051 52.2327 32.9382 51.4258 34.4598C50.4751 36.2525 48.9071 37.6399 47.012 38.3652L42.9706 39.912C40.6965 40.7823 38.2823 41.2286 35.8474 41.2286H32.154C29.7191 41.2286 27.3049 40.7823 25.0309 39.912L20.9894 38.3652C19.0943 37.6399 17.5263 36.2525 16.5756 34.4598C15.7687 32.9382 15.4496 31.2051 15.6616 29.4958L15.804 28.3476L16.2158 26.6683C16.4925 25.5398 17.2869 24.6088 18.3577 24.1579C19.4557 23.6956 20.431 22.9839 21.2063 22.0793L21.9344 21.2297C22.8654 20.1434 24.3081 19.641 25.7124 19.914C27.6425 20.2893 29.6432 19.9384 31.3304 18.9287L31.5756 18.782Z" stroke="#3AA980" stroke-width="4"/>
<rect x="10.5" y="31.7856" width="47" height="3.34286" rx="1.67143" fill="#3AA980" stroke="#3AA980"/>
<path d="M12.6816 35.043H55.318V38.8287C55.318 45.18 50.1693 50.3287 43.818 50.3287H24.1816C17.8304 50.3287 12.6816 45.18 12.6816 38.8287V35.043Z" fill="#3AA980" stroke="#3AA980"/>
<path d="M22.5 50.2427H45.5V50.9998C45.5 51.8282 44.8284 52.4998 44 52.4998H24C23.1716 52.4998 22.5 51.8282 22.5 50.9998V50.2427Z" fill="#3AA980" stroke="#3AA980"/>
</svg>
