<svg width="68" height="68" viewBox="0 0 68 68" fill="none" xmlns="http://www.w3.org/2000/svg">
<path d="M42.8341 32.2881L42.8342 32.2883L42.841 32.3076L42.8685 32.3865C42.8927 32.4564 42.9287 32.5607 42.9748 32.6965C43.0671 32.968 43.2001 33.365 43.3619 33.8642C43.6856 34.8629 44.1242 36.2686 44.5827 37.8939C45.5036 41.1585 46.4896 45.2564 46.8045 48.7165C47.0073 50.9452 47.0652 53.0819 47.0683 54.7411C47.0706 55.9887 46.0451 57 44.7365 57H23.2624C21.9539 57 20.9286 55.9888 20.9308 54.7415C20.9337 53.0823 20.9914 50.9454 21.1943 48.7165C21.5092 45.2564 22.4952 41.1585 23.4161 37.894C23.8747 36.2686 24.3133 34.8629 24.6371 33.8642C24.7989 33.3651 24.9319 32.968 25.0242 32.6965C25.0703 32.5608 25.1062 32.4564 25.1305 32.3865L25.158 32.3077L25.1647 32.2883L25.1648 32.2881L25.1683 32.2785L25.1852 32.2323C25.2 32.1918 25.2216 32.1323 25.2494 32.0556C25.3049 31.9021 25.3848 31.6793 25.4832 31.4008C25.6801 30.8438 25.9511 30.063 26.2485 29.1663C26.7611 27.6207 27.3593 25.7084 27.7881 24H40.2107C40.6395 25.7085 41.2378 27.6208 41.7504 29.1663C42.0478 30.063 42.3189 30.8439 42.5157 31.4008C42.6142 31.6793 42.6941 31.9021 42.7496 32.0556C42.7773 32.1323 42.799 32.1918 42.8137 32.2323L42.8307 32.2786L42.8341 32.2881Z" fill="white" stroke="#3AA980" stroke-width="2"/>
<path d="M30.5 30L31.6727 30.5648L31.9624 31.8338L31.1508 32.8515H29.8492L29.0376 31.8338L29.3273 30.5648L30.5 30Z" fill="#3AA980"/>
<path d="M32.5 29L33.6727 29.5648L33.9624 30.8338L33.1508 31.8515H31.8492L31.0376 30.8338L31.3273 29.5648L32.5 29Z" fill="#3AA980"/>
<path d="M35.2253 29.3882L36.2119 30.2373L36.1632 31.538L35.1159 32.311L33.8586 31.9741L33.3381 30.781L33.9463 29.6302L35.2253 29.3882Z" fill="#3AA980"/>
<path d="M36.299 30.75L37.597 30.6527L38.4824 31.6069L38.2884 32.894L37.1611 33.5448L35.9495 33.0693L35.5658 31.8255L36.299 30.75Z" fill="#3AA980"/>
<path d="M37.299 29.75L38.597 29.6527L39.4824 30.6069L39.2884 31.894L38.1611 32.5448L36.9495 32.0693L36.5658 30.8255L37.299 29.75Z" fill="#3AA980"/>
<rect x="25" y="15" width="18" height="9" rx="4.5" fill="white" stroke="#3AA980" stroke-width="2"/>
<circle cx="32" cy="18" r="1" fill="#3AA980"/>
<circle cx="36" cy="18" r="1" fill="#3AA980"/>
<path d="M26.559 54H41.441C42.8126 54 43.9537 52.9571 43.9867 51.5859C44.0165 50.3452 44.005 48.744 43.8598 47.0698C43.404 41.8154 41.3516 35.7917 41.3516 35.7917C41.3516 35.7917 41.0674 34.8969 40.2746 32.8719C39.8303 31.737 38.7286 31 37.5098 31H30.5815C29.3627 31 28.261 31.737 27.8167 32.8719C27.024 34.8969 26.7397 35.7917 26.7397 35.7917C26.7397 35.7917 24.596 41.8154 24.1402 47.0698C23.995 48.744 23.9835 50.3452 24.0133 51.5859C24.0463 52.9571 25.1874 54 26.559 54Z" fill="#3AA980"/>
<path d="M35.1445 42.1406C35.0977 41.5664 34.7227 41.2383 33.9609 41.2383C33.2227 41.2383 32.8945 41.5195 32.8828 41.918C32.8711 42.3516 33.2695 42.5977 34.0547 42.7617L34.7578 42.9258C36.5859 43.3125 37.3945 44.2031 37.4062 45.5039C37.3945 47.168 36.1172 48.1055 33.9727 48.1055C31.7812 48.1055 30.3633 47.1445 30.3398 45.0586H32.4727C32.5078 45.8438 33.0586 46.2656 33.9375 46.2656C34.6992 46.2656 35.1094 45.9492 35.1211 45.5039C35.1094 45.0938 34.7695 44.8594 33.8203 44.6484L32.9648 44.4609C31.4766 44.1328 30.5625 43.3945 30.5625 42.082C30.5508 40.4766 31.9688 39.3984 33.9609 39.3984C36 39.3984 37.2773 40.4883 37.2891 42.1406H35.1445Z" fill="white"/>
</svg>
