<svg width="68" height="68" viewBox="0 0 68 68" fill="none" xmlns="http://www.w3.org/2000/svg">
<path d="M42.8341 33.2881L42.8342 33.2883L42.841 33.3076L42.8685 33.3865C42.8927 33.4564 42.9287 33.5607 42.9748 33.6965C43.0671 33.968 43.2001 34.365 43.3619 34.8642C43.6856 35.8629 44.1242 37.2686 44.5827 38.8939C45.5036 42.1585 46.4896 46.2564 46.8045 49.7165C47.0073 51.9452 47.0652 54.0819 47.0683 55.7411C47.0706 56.9887 46.0451 58 44.7365 58H23.2624C21.9539 58 20.9286 56.9888 20.9308 55.7415C20.9337 54.0823 20.9914 51.9454 21.1943 49.7165C21.5092 46.2564 22.4952 42.1585 23.4161 38.894C23.8747 37.2686 24.3133 35.8629 24.6371 34.8642C24.7989 34.3651 24.9319 33.968 25.0242 33.6965C25.0703 33.5608 25.1062 33.4564 25.1305 33.3865L25.158 33.3077L25.1647 33.2883L25.1648 33.2881L25.1683 33.2785L25.1852 33.2323C25.2 33.1918 25.2216 33.1323 25.2494 33.0556C25.3049 32.9021 25.3848 32.6793 25.4832 32.4008C25.6801 31.8438 25.9511 31.063 26.2485 30.1663C26.7611 28.6207 27.3593 26.7084 27.7881 25H40.2107C40.6395 26.7085 41.2378 28.6208 41.7504 30.1663C42.0478 31.063 42.3189 31.8439 42.5157 32.4008C42.6142 32.6793 42.6941 32.9021 42.7496 33.0556C42.7773 33.1323 42.799 33.1918 42.8137 33.2323L42.8307 33.2786L42.8341 33.2881Z" fill="white" stroke="#3AA980" stroke-width="2"/>
<path d="M25.561 56H42.339C43.7059 56 44.8444 54.9639 44.8823 53.5976C44.9187 52.2875 44.9103 50.5684 44.7465 48.7685C44.2474 43.2856 42 37 42 37C42 37 41.6761 36.0283 40.7677 33.8244C40.3103 32.7148 39.2219 32 38.0218 32H29.9782C28.7781 32 27.6897 32.7148 27.2323 33.8244C26.3239 36.0283 26 37 26 37C26 37 23.6526 43.2856 23.1535 48.7685C22.9897 50.5684 22.9813 52.2875 23.0177 53.5976C23.0556 54.9639 24.1941 56 25.561 56Z" fill="#3AA980"/>
<path d="M25.493 15.7116C25.2363 14.2997 26.321 13 27.7561 13H40.2439C41.679 13 42.7637 14.2997 42.507 15.7116L41 24H27L25.493 15.7116Z" fill="#3AA980"/>
<path d="M30 13V15" stroke="white" stroke-width="2" stroke-linecap="round"/>
<path d="M34 13V15" stroke="white" stroke-width="2" stroke-linecap="round"/>
<path d="M38 13V15" stroke="white" stroke-width="2" stroke-linecap="round"/>
</svg>
