<svg width="68" height="68" viewBox="0 0 68 68" fill="none" xmlns="http://www.w3.org/2000/svg">
<path d="M29.4932 44.1305C29.5644 43.9158 29.7543 43.766 29.9864 43.7413L31.2113 43.6112C31.4462 43.5863 31.6849 43.6936 31.8296 43.889L35.3977 48.7104C35.7039 49.1242 35.4772 49.6782 34.98 49.731L34.8802 49.7416C34.7855 49.7517 34.6878 49.7278 34.6049 49.6744L34.3072 49.4825C33.446 48.9274 32.3437 49.0445 31.7135 49.758L31.7128 49.7581C30.8516 49.203 29.7492 49.3201 29.119 50.0336L28.9012 50.2802L29.5381 50.8302L28.9012 50.2802C28.8405 50.3489 28.7551 50.3922 28.6604 50.4023L28.5439 50.4146C28.0094 50.4714 27.5642 49.9457 27.7282 49.4514L29.4932 44.1305Z" stroke="#3AA980" stroke-width="2"/>
<path d="M47.3157 22.4509C37.723 18.1876 32.3941 21.2523 28.5744 24.5772C22.5776 29.7972 25.6149 35.9678 26.196 39.6543C26.777 43.3409 29.0689 44.4901 30.2137 44.5418C31.3584 44.5934 33.9905 44.3984 33.3487 39.1927C32.7651 34.4602 37.261 29.0704 44.1183 33.6419C47.3158 35.7736 51.0464 37.905 54.2437 33.6413C57.441 29.3777 51.8101 24.4485 47.3157 22.4509Z" fill="white" stroke="#3AA980" stroke-width="2" stroke-linecap="square"/>
<path d="M53.0027 26.5034C47.5012 26.5028 45.0009 30.5029 46.0992 34.7267" stroke="#3AA980" stroke-width="2" stroke-linecap="round"/>
<path d="M43.7769 21.6939C39.0938 23.5016 37.2658 27.2404 40.3663 31.4753" stroke="#3AA980" stroke-width="2" stroke-linecap="round"/>
<path d="M31.0112 23.5536C29.1358 27.8794 30.7432 31.1239 35.8968 32.4018" stroke="#3AA980" stroke-width="2" stroke-linecap="round"/>
<path d="M26.1805 32.3343C28.4774 35.5751 30.1952 36.1758 33.7537 36.0391" stroke="#3AA980" stroke-width="2" stroke-linecap="round"/>
<path d="M26.4832 39.4061C28.2042 41.0522 31.3511 40.9329 33.0536 39.9529" stroke="#3AA980" stroke-width="2" stroke-linecap="round"/>
<path d="M44.0314 11.0693C28.2217 6.83314 17.2547 16.5389 14.7777 25.7833C13.2744 31.3936 13.8299 35.7597 15.2279 39.2806C16.4898 42.4588 18.4303 44.912 19.9907 46.8849C20.1391 47.0725 20.2841 47.2558 20.4247 47.435C23.9421 51.916 27.8314 51.9825 29.6717 50.92C30.3939 50.503 31.7294 49.5947 32.1231 47.7891C32.5141 45.9953 31.904 43.6535 29.6103 40.5355C27.853 38.1468 27.7304 34.278 29.3954 31.3392C30.2128 29.8964 31.4444 28.7131 33.0865 28.0508C34.7271 27.3892 36.8546 27.2169 39.5138 27.9294C42.5739 28.7493 45.6386 29.4458 48.1773 29.0605C49.482 28.8625 50.689 28.375 51.6897 27.4508C52.6863 26.5304 53.4068 25.2429 53.8564 23.5648C54.7251 20.3229 54.5609 17.6695 52.8129 15.5462C51.1411 13.5154 48.1719 12.1788 44.0314 11.0693Z" fill="#3AA980" stroke="white" stroke-width="2" stroke-linecap="square"/>
<path d="M27.7108 50.0086C27.6118 49.5884 27.7604 49.1485 28.094 48.8745L29.3223 47.8655C29.6595 47.5885 30.1258 47.53 30.5209 47.7152L38.2311 51.3289C39.0632 51.7188 39.2041 52.8431 38.4941 53.4264L38.3563 53.5396C38.2021 53.6662 38.0059 53.7302 37.8066 53.7187L37.3302 53.6911C36.1453 53.6227 35.1066 54.4759 34.9436 55.6516C34.9238 55.7945 34.7976 55.8983 34.6535 55.8899L34.5958 56.8883L34.6535 55.8899C33.4686 55.8214 32.4299 56.6747 32.267 57.8504L33.2575 57.9877L32.267 57.8504L32.2015 58.3231C32.1741 58.5208 32.0733 58.7009 31.9191 58.8275L31.7623 58.9563C31.0116 59.5729 29.8744 59.1887 29.6516 58.2431L27.7108 50.0086Z" fill="white" stroke="#3AA980" stroke-width="2"/>
<path d="M43.573 10.8783C37.3224 13.6172 35.5902 21.9806 39.496 27.9927" stroke="white" stroke-width="2" stroke-linecap="round"/>
<path d="M28.6702 10.7479C24.7794 16.3544 25.3019 25.0548 31.7776 28.1313" stroke="white" stroke-width="2" stroke-linecap="round"/>
<path d="M15.1641 22.0249C16.192 28.7714 22.6399 33.4078 29.2672 31.3214" stroke="white" stroke-width="2" stroke-linecap="round"/>
<path d="M13.4174 36.4534C18.5277 40.0304 24.3671 41.0435 28.0448 37.6146" stroke="white" stroke-width="2" stroke-linecap="round"/>
<path d="M18.3297 46.0456C23.5779 49.1078 28.2847 45.955 29.5265 41.322" stroke="white" stroke-width="2" stroke-linecap="round"/>
</svg>
