<svg width="68" height="68" viewBox="0 0 68 68" fill="none" xmlns="http://www.w3.org/2000/svg">
<g clip-path="url(#clip0_3896_114685)">
<path d="M31 48.668V60.668" stroke="#3AA980" stroke-width="2" stroke-linecap="round"/>
<path d="M37.0002 50.6686C37.0002 50.6686 35.3774 52.3143 34.4998 53.5C32.6466 56.004 31.0001 60.6681 31.0001 60.6681" stroke="#3AA980" stroke-width="2" stroke-linecap="round"/>
<path d="M27 51.668C27 51.668 28.7352 53.8851 29.5 55.5C30.3995 57.3993 31 60.668 31 60.668" stroke="#3AA980" stroke-width="2" stroke-linecap="round"/>
<path d="M54.0838 41.7513C49.7779 46.0572 44.8316 48.8398 40.3547 49.8932C35.8601 50.9508 32.0056 50.2419 29.607 47.8433C27.2084 45.4447 26.4996 41.5902 27.5571 37.0957C28.6105 32.6187 31.3932 27.6724 35.699 23.3666C40.0049 19.0607 44.9512 16.2781 49.4281 15.2247C53.9227 14.1671 57.7772 14.876 60.1758 17.2746C62.5744 19.6732 63.2832 23.5277 62.2257 28.0222C61.1723 32.4992 58.3896 37.4455 54.0838 41.7513Z" fill="#3AA980" stroke="white" stroke-width="2"/>
<rect x="54.0293" y="21.8984" width="2" height="35.5385" rx="1" transform="rotate(45 54.0293 21.8984)" fill="white"/>
<rect x="49" y="40.668" width="2" height="14" rx="1" transform="rotate(90 49 40.668)" fill="white"/>
<rect x="52" y="33.668" width="2" height="10" rx="1" transform="rotate(90 52 33.668)" fill="white"/>
<rect x="46" y="22.668" width="2" height="8" rx="1" fill="white"/>
<rect x="32.3921" y="37.1992" width="2.15385" height="7.30861" rx="1.07692" fill="white"/>
<path d="M30.5269 26.8099C34.1016 30.3846 36.2411 34.6613 36.8458 38.6521C37.4505 42.6434 36.5182 46.2745 34.0624 48.7303C31.6067 51.186 27.9756 52.1184 23.9843 51.5136C19.9935 50.9089 15.7168 48.7694 12.1421 45.1947C8.56747 41.62 6.4279 37.3433 5.82324 33.3525C5.2185 29.3613 6.15084 25.7302 8.6066 23.2744C11.0624 20.8186 14.6935 19.8863 18.6847 20.491C22.6755 21.0957 26.9522 23.2353 30.5269 26.8099Z" fill="#3AA980" stroke="white" stroke-width="2"/>
<rect x="12.1426" y="28.2246" width="2" height="30" rx="1" transform="rotate(-45 12.1426 28.2246)" fill="white"/>
<rect x="14" y="41.668" width="2" height="12" rx="1" transform="rotate(-90 14 41.668)" fill="white"/>
<rect x="29.3813" y="38.1548" width="2.15385" height="7.30861" rx="1.07692" fill="white"/>
<path d="M44 27.2834C44 33.3727 42.47 38.8379 40.0492 42.7485C37.6189 46.6744 34.3921 48.8987 31 48.8987C27.6079 48.8987 24.3811 46.6744 21.9508 42.7485C19.53 38.8379 18 33.3727 18 27.2834C18 21.194 19.53 15.7288 21.9508 11.8182C24.3811 7.8923 27.6079 5.66797 31 5.66797C34.3921 5.66797 37.6189 7.8923 40.0492 11.8182C42.47 15.7288 44 21.194 44 27.2834Z" fill="#3AA980" stroke="white" stroke-width="2"/>
<rect x="30" y="13.668" width="2" height="35" rx="1" fill="white"/>
<rect x="39.8223" y="26.2061" width="2" height="14" rx="1" transform="rotate(45 39.8223 26.2061)" fill="white"/>
<rect x="21.5012" y="22.5381" width="2" height="12.883" rx="1" transform="rotate(-45 21.5012 22.5381)" fill="white"/>
<rect x="25.4434" y="39.4033" width="2" height="7.30861" rx="1" transform="rotate(-45 25.4434 39.4033)" fill="white"/>
</g>
<defs>
<clipPath id="clip0_3896_114685">
<rect width="68" height="68" rx="8" fill="white"/>
</clipPath>
</defs>
</svg>
