<svg width="68" height="68" viewBox="0 0 68 68" fill="none" xmlns="http://www.w3.org/2000/svg">
<path d="M30 12C31.1667 13.3333 33.5 16.8 33.5 20" stroke="#3AA980" stroke-width="4" stroke-linecap="round"/>
<path d="M57 36.5C57 49.3577 46.7971 58 34 58C21.2029 58 11 49.3577 11 36.5C11 25.6625 21.0632 18 34 18C46.9368 18 57 25.6625 57 36.5Z" fill="#3AA980" stroke="#3AA980" stroke-width="2"/>
<path d="M32.5474 17.9206C32.8402 17.9887 33.1404 17.9918 33.4353 17.9288C34.3832 17.7265 37.9029 17.0134 40.2555 17.0001C41.6392 16.9923 43.2349 17.5071 44.8341 18.2927C46.2774 19.0019 47.6513 19.8954 48.7678 20.7021L43.173 20.1935C41.4993 20.0414 40.3956 21.8963 41.3279 23.2947L44.0792 27.4217L38.5249 24.6445C37.4049 24.0845 36.0515 24.6798 35.7074 25.8839L32.9998 35.36L30.2925 25.884C29.9485 24.6799 28.5951 24.0845 27.4751 24.6445L21.9208 27.4217L24.6506 23.3269C25.5903 21.9175 24.4618 20.0512 22.7772 20.2285L18.459 20.683C19.4458 19.8851 20.6695 19.0018 21.9791 18.2981C23.4361 17.5153 24.9158 17.0006 26.2503 17.0001C28.4087 16.9993 31.6405 17.7096 32.5474 17.9206Z" fill="#3AA980" stroke="white" stroke-width="2"/>
<path d="M17 30C16 30.5 15.5 32 15.5 32.5" stroke="white" stroke-width="2" stroke-linecap="round"/>
<path d="M15.0003 35C14.5 37 14.5 40 16 42" stroke="white" stroke-width="2" stroke-linecap="round"/>
</svg>
