<svg width="30" height="30" viewBox="0 0 30 30" fill="none" xmlns="http://www.w3.org/2000/svg">
<path fill-rule="evenodd" clip-rule="evenodd" d="M30 15C30 23.2843 23.2843 30 15 30C6.71573 30 0 23.2843 0 15C0 6.71573 6.71573 0 15 0C23.2843 0 30 6.71573 30 15ZM5 15C5 14.3096 5.55964 13.75 6.25 13.75H13.75V6.25C13.75 5.55964 14.3096 5 15 5C15.6904 5 16.25 5.55964 16.25 6.25V13.75H23.75C24.4404 13.75 25 14.3096 25 15C25 15.6904 24.4404 16.25 23.75 16.25H16.25V23.75C16.25 24.4404 15.6904 25 15 25C14.3096 25 13.75 24.4404 13.75 23.75V16.25H6.25C5.55964 16.25 5 15.6904 5 15Z" fill="#DBDDE7"/>
</svg>
