<svg width="40" height="40" viewBox="0 0 40 40" fill="none" xmlns="http://www.w3.org/2000/svg">
<rect width="40" height="40" rx="20" fill="#DBDDE7"/>
<path d="M29.2812 26.4235C28.9333 27.227 28.5216 27.9667 28.0446 28.6467C27.3944 29.5738 26.862 30.2155 26.4517 30.5719C25.8157 31.1568 25.1342 31.4564 24.4045 31.4734C23.8806 31.4734 23.2488 31.3243 22.5134 31.0219C21.7756 30.7209 21.0975 30.5719 20.4775 30.5719C19.8273 30.5719 19.13 30.7209 18.384 31.0219C17.637 31.3243 17.0352 31.4819 16.575 31.4975C15.8753 31.5273 15.1778 31.2193 14.4815 30.5719C14.0372 30.1843 13.4814 29.5199 12.8155 28.5786C12.1011 27.5734 11.5138 26.4079 11.0537 25.079C10.5609 23.6437 10.3138 22.2538 10.3138 20.9082C10.3138 19.3668 10.6469 18.0374 11.314 16.9234C11.8383 16.0285 12.5358 15.3226 13.4088 14.8044C14.2818 14.2862 15.225 14.0222 16.2408 14.0053C16.7967 14.0053 17.5255 14.1772 18.4313 14.5151C19.3345 14.8541 19.9145 15.0261 20.1688 15.0261C20.3589 15.0261 21.0031 14.825 22.0953 14.4242C23.1281 14.0526 23.9998 13.8987 24.714 13.9593C26.649 14.1155 28.1028 14.8783 29.0696 16.2525C27.339 17.3011 26.4829 18.7698 26.5 20.6539C26.5156 22.1215 27.048 23.3427 28.0943 24.3124C28.5685 24.7624 29.098 25.1103 29.6872 25.3573C29.5594 25.7278 29.4246 26.0828 29.2812 26.4235ZM24.8432 8.95964C24.8432 10.1099 24.4229 11.1839 23.5853 12.178C22.5745 13.3597 21.3518 14.0426 20.0259 13.9349C20.009 13.7969 19.9992 13.6516 19.9992 13.499C19.9992 12.3948 20.48 11.213 21.3336 10.2468C21.7598 9.75752 22.3019 9.35073 22.9592 9.02623C23.6151 8.70656 24.2355 8.52978 24.819 8.49951C24.8361 8.65328 24.8432 8.80707 24.8432 8.95963V8.95964Z" fill="white"/>
</svg>
