<svg width="40" height="40" viewBox="0 0 40 40" fill="none" xmlns="http://www.w3.org/2000/svg">
<rect x="0.666667" y="0.666667" width="38.6667" height="38.6667" rx="19.3333" fill="white"/>
<rect x="0.666667" y="0.666667" width="38.6667" height="38.6667" rx="19.3333" stroke="#DBDDE7" stroke-width="1.33333"/>
<mask id="mask0_3049_9601" style="mask-type:luminance" maskUnits="userSpaceOnUse" x="8" y="13" width="9" height="14">
<path d="M8.75684 13.1997H16.609V26.7997H8.75684V13.1997Z" fill="white"/>
</mask>
<g mask="url(#mask0_3049_9601)">
<mask id="mask1_3049_9601" style="mask-type:luminance" maskUnits="userSpaceOnUse" x="8" y="8" width="24" height="24">
<path d="M30.9639 17.909H20.2523V22.35H26.418C25.8432 25.1714 23.4396 26.7911 20.2523 26.7911C16.4901 26.7911 13.4595 23.7607 13.4595 19.9988C13.4595 16.237 16.4901 13.2066 20.2523 13.2066C21.8721 13.2066 23.3351 13.7814 24.4846 14.7218L27.8288 11.378C25.791 9.60158 23.1784 8.50439 20.2523 8.50439C13.8775 8.50439 8.75684 13.6246 8.75684 19.9988C8.75684 26.3731 13.8775 31.4933 20.2523 31.4933C26 31.4933 31.2251 27.3135 31.2251 19.9988C31.2251 19.3196 31.1206 18.5881 30.9639 17.909Z" fill="white"/>
</mask>
<g mask="url(#mask1_3049_9601)">
<path d="M7.71155 26.7915V13.207L16.5944 19.9992L7.71155 26.7915Z" fill="#FBBC05"/>
</g>
</g>
<mask id="mask2_3049_9601" style="mask-type:luminance" maskUnits="userSpaceOnUse" x="8" y="8" width="24" height="12">
<path d="M8.75684 8.49609H31.2251V20.0001H8.75684V8.49609Z" fill="white"/>
</mask>
<g mask="url(#mask2_3049_9601)">
<mask id="mask3_3049_9601" style="mask-type:luminance" maskUnits="userSpaceOnUse" x="8" y="8" width="24" height="24">
<path d="M30.9639 17.9099H20.2523V22.351H26.418C25.8432 25.1724 23.4396 26.7921 20.2523 26.7921C16.4901 26.7921 13.4595 23.7617 13.4595 19.9998C13.4595 16.238 16.4901 13.2076 20.2523 13.2076C21.8721 13.2076 23.3351 13.7824 24.4846 14.7228L27.8288 11.379C25.791 9.60256 23.1784 8.50537 20.2523 8.50537C13.8775 8.50537 8.75684 13.6256 8.75684 19.9998C8.75684 26.3741 13.8775 31.4943 20.2523 31.4943C26 31.4943 31.2251 27.3145 31.2251 19.9998C31.2251 19.3206 31.1206 18.5891 30.9639 17.9099Z" fill="white"/>
</mask>
<g mask="url(#mask3_3049_9601)">
<path d="M7.71155 13.2072L16.5944 19.9994L20.252 16.8123L32.7924 14.7746V7.45996H7.71155V13.2072Z" fill="#EA4335"/>
</g>
</g>
<mask id="mask4_3049_9601" style="mask-type:luminance" maskUnits="userSpaceOnUse" x="8" y="8" width="24" height="24">
<path d="M8.75684 8.49609H31.2251V31.4934H8.75684V8.49609Z" fill="white"/>
</mask>
<g mask="url(#mask4_3049_9601)">
<mask id="mask5_3049_9601" style="mask-type:luminance" maskUnits="userSpaceOnUse" x="8" y="8" width="24" height="24">
<path d="M30.9639 17.9099H20.2523V22.351H26.418C25.8432 25.1724 23.4396 26.7921 20.2523 26.7921C16.4901 26.7921 13.4595 23.7617 13.4595 19.9998C13.4595 16.238 16.4901 13.2076 20.2523 13.2076C21.8721 13.2076 23.3351 13.7824 24.4846 14.7228L27.8288 11.379C25.791 9.60256 23.1784 8.50537 20.2523 8.50537C13.8775 8.50537 8.75684 13.6256 8.75684 19.9998C8.75684 26.3741 13.8775 31.4943 20.2523 31.4943C26 31.4943 31.2251 27.3145 31.2251 19.9998C31.2251 19.3206 31.1206 18.5891 30.9639 17.9099Z" fill="white"/>
</mask>
<g mask="url(#mask5_3049_9601)">
<path d="M7.71155 26.7916L23.3871 14.7746L27.515 15.2971L32.7924 7.45996V32.5389H7.71155V26.7916Z" fill="#34A853"/>
</g>
</g>
<mask id="mask6_3049_9601" style="mask-type:luminance" maskUnits="userSpaceOnUse" x="14" y="13" width="18" height="19">
<path d="M14.4951 13.2007H31.2232V31.494H14.4951V13.2007Z" fill="white"/>
</mask>
<g mask="url(#mask6_3049_9601)">
<mask id="mask7_3049_9601" style="mask-type:luminance" maskUnits="userSpaceOnUse" x="8" y="8" width="24" height="24">
<path d="M30.9623 17.9094H20.2507V22.3505H26.4164C25.8416 25.1719 23.4381 26.7916 20.2507 26.7916C16.4886 26.7916 13.4579 23.7612 13.4579 19.9993C13.4579 16.2375 16.4886 13.2071 20.2507 13.2071C21.8705 13.2071 23.3336 13.7819 24.4831 14.7223L27.8272 11.3785C25.7894 9.60207 23.1768 8.50488 20.2507 8.50488C13.8759 8.50488 8.75525 13.6251 8.75525 19.9993C8.75525 26.3736 13.8759 31.4938 20.2507 31.4938C25.9984 31.4938 31.2236 27.314 31.2236 19.9993C31.2236 19.3201 31.1191 18.5886 30.9623 17.9094Z" fill="white"/>
</mask>
<g mask="url(#mask7_3049_9601)">
<path d="M32.7918 32.5387L16.5937 19.9992L14.5037 18.4318L32.7918 13.207V32.5387Z" fill="#4285F4"/>
</g>
</g>
</svg>
