<svg width="27" height="27" viewBox="0 0 27 27" fill="none" xmlns="http://www.w3.org/2000/svg">
<path d="M1.96477 22.8476C1.57424 23.2381 1.57424 23.8713 1.96477 24.2618C2.35529 24.6523 2.98846 24.6523 3.37898 24.2618L1.96477 22.8476ZM8.85938 17.3672L9.56648 16.6601C9.17596 16.2696 8.54279 16.2696 8.15227 16.6601L8.85938 17.3672ZM11.9531 20.4609L11.246 21.168C11.6365 21.5586 12.2697 21.5586 12.6602 21.168L11.9531 20.4609ZM18.9141 13.5L19.6212 12.7929C19.2306 12.4024 18.5975 12.4024 18.207 12.7929L18.9141 13.5ZM24.3945 20.3946C24.785 20.7851 25.4181 20.7851 25.8087 20.3946C26.1992 20.0041 26.1992 19.3709 25.8087 18.9804L24.3945 20.3946ZM3.37898 24.2618L9.56648 18.0743L8.15227 16.6601L1.96477 22.8476L3.37898 24.2618ZM8.15227 18.0743L11.246 21.168L12.6602 19.7538L9.56648 16.6601L8.15227 18.0743ZM12.6602 21.168L19.6212 14.2071L18.207 12.7929L11.246 19.7538L12.6602 21.168ZM18.207 14.2071L24.3945 20.3946L25.8087 18.9804L19.6212 12.7929L18.207 14.2071ZM5.76562 2.125H21.2344V0.125H5.76562V2.125ZM24.875 5.76562V21.2344H26.875V5.76562H24.875ZM21.2344 24.875H5.76562V26.875H21.2344V24.875ZM2.125 21.2344V5.76562H0.125V21.2344H2.125ZM5.76562 24.875C3.75496 24.875 2.125 23.245 2.125 21.2344H0.125C0.125 24.3496 2.65039 26.875 5.76562 26.875V24.875ZM24.875 21.2344C24.875 23.245 23.245 24.875 21.2344 24.875V26.875C24.3496 26.875 26.875 24.3496 26.875 21.2344H24.875ZM21.2344 2.125C23.245 2.125 24.875 3.75496 24.875 5.76562H26.875C26.875 2.65039 24.3496 0.125 21.2344 0.125V2.125ZM5.76562 0.125C2.65039 0.125 0.125 2.65039 0.125 5.76562H2.125C2.125 3.75496 3.75496 2.125 5.76562 2.125V0.125ZM9.40625 8.08594C9.40625 8.81513 8.81513 9.40625 8.08594 9.40625V11.4062C9.9197 11.4062 11.4062 9.9197 11.4062 8.08594H9.40625ZM8.08594 9.40625C7.35675 9.40625 6.76562 8.81513 6.76562 8.08594H4.76562C4.76562 9.9197 6.25218 11.4062 8.08594 11.4062V9.40625ZM6.76562 8.08594C6.76562 7.35675 7.35675 6.76562 8.08594 6.76562V4.76562C6.25218 4.76562 4.76562 6.25218 4.76562 8.08594H6.76562ZM8.08594 6.76562C8.81513 6.76562 9.40625 7.35675 9.40625 8.08594H11.4062C11.4062 6.25218 9.9197 4.76562 8.08594 4.76562V6.76562Z" fill="#777986"/>
</svg>
