<svg width="300" height="45" viewBox="0 0 300 45" fill="none" xmlns="http://www.w3.org/2000/svg">
<rect width="300" height="45" rx="8" fill="white"/>
<mask id="mask0_2502_9933" style="mask-type:luminance" maskUnits="userSpaceOnUse" x="14" y="17" width="7" height="11">
<path d="M14.5663 17.3998H20.4554V27.5998H14.5663V17.3998Z" fill="white"/>
</mask>
<g mask="url(#mask0_2502_9933)">
<mask id="mask1_2502_9933" style="mask-type:luminance" maskUnits="userSpaceOnUse" x="14" y="13" width="18" height="19">
<path d="M31.2224 20.932H23.1887V24.2628H27.813C27.3819 26.3788 25.5792 27.5936 23.1887 27.5936C20.3671 27.5936 18.0941 25.3208 18.0941 22.4994C18.0941 19.678 20.3671 17.4052 23.1887 17.4052C24.4035 17.4052 25.5008 17.8363 26.3629 18.5416L28.871 16.0338C27.3427 14.7014 25.3832 13.8785 23.1887 13.8785C18.4076 13.8785 14.5671 17.7187 14.5671 22.4994C14.5671 27.2801 18.4076 31.1202 23.1887 31.1202C27.4994 31.1202 31.4183 27.9854 31.4183 22.4994C31.4183 21.99 31.3399 21.4414 31.2224 20.932Z" fill="white"/>
</mask>
<g mask="url(#mask1_2502_9933)">
<path d="M13.7829 27.5937V17.4054L20.445 22.4995L13.7829 27.5937Z" fill="#FBBC05"/>
</g>
</g>
<mask id="mask2_2502_9933" style="mask-type:luminance" maskUnits="userSpaceOnUse" x="14" y="13" width="18" height="10">
<path d="M14.5663 13.8721H31.4175V22.5001H14.5663V13.8721Z" fill="white"/>
</mask>
<g mask="url(#mask2_2502_9933)">
<mask id="mask3_2502_9933" style="mask-type:luminance" maskUnits="userSpaceOnUse" x="14" y="13" width="18" height="19">
<path d="M31.2224 20.9323H23.1887V24.2631H27.813C27.3819 26.3791 25.5792 27.5939 23.1887 27.5939C20.3671 27.5939 18.0941 25.3211 18.0941 22.4997C18.0941 19.6783 20.3671 17.4055 23.1887 17.4055C24.4035 17.4055 25.5008 17.8366 26.3629 18.5419L28.871 16.0341C27.3427 14.7017 25.3832 13.8788 23.1887 13.8788C18.4076 13.8788 14.5671 17.719 14.5671 22.4997C14.5671 27.2804 18.4076 31.1205 23.1887 31.1205C27.4994 31.1205 31.4183 27.9857 31.4183 22.4997C31.4183 21.9903 31.3399 21.4417 31.2224 20.9323Z" fill="white"/>
</mask>
<g mask="url(#mask3_2502_9933)">
<path d="M13.7829 17.4054L20.445 22.4995L23.1882 20.1093L32.5936 18.581V13.095H13.7829V17.4054Z" fill="#EA4335"/>
</g>
</g>
<mask id="mask4_2502_9933" style="mask-type:luminance" maskUnits="userSpaceOnUse" x="14" y="13" width="18" height="19">
<path d="M14.5663 13.8721H31.4175V31.1201H14.5663V13.8721Z" fill="white"/>
</mask>
<g mask="url(#mask4_2502_9933)">
<mask id="mask5_2502_9933" style="mask-type:luminance" maskUnits="userSpaceOnUse" x="14" y="13" width="18" height="19">
<path d="M31.2224 20.9323H23.1887V24.2631H27.813C27.3819 26.3791 25.5792 27.5939 23.1887 27.5939C20.3671 27.5939 18.0941 25.3211 18.0941 22.4997C18.0941 19.6783 20.3671 17.4055 23.1887 17.4055C24.4035 17.4055 25.5008 17.8366 26.3629 18.5419L28.871 16.0341C27.3427 14.7017 25.3832 13.8788 23.1887 13.8788C18.4076 13.8788 14.5671 17.719 14.5671 22.4997C14.5671 27.2804 18.4076 31.1205 23.1887 31.1205C27.4994 31.1205 31.4183 27.9857 31.4183 22.4997C31.4183 21.9903 31.3399 21.4417 31.2224 20.9323Z" fill="white"/>
</mask>
<g mask="url(#mask5_2502_9933)">
<path d="M13.7829 27.5937L25.5396 18.581L28.6355 18.9729L32.5936 13.095V31.9042H13.7829V27.5937Z" fill="#34A853"/>
</g>
</g>
<mask id="mask6_2502_9933" style="mask-type:luminance" maskUnits="userSpaceOnUse" x="18" y="17" width="14" height="15">
<path d="M18.8719 17.4001H31.418V31.1201H18.8719V17.4001Z" fill="white"/>
</mask>
<g mask="url(#mask6_2502_9933)">
<mask id="mask7_2502_9933" style="mask-type:luminance" maskUnits="userSpaceOnUse" x="14" y="13" width="18" height="19">
<path d="M31.221 20.9322H23.1873V24.263H27.8116C27.3805 26.379 25.5778 27.5938 23.1873 27.5938C20.3657 27.5938 18.0927 25.321 18.0927 22.4996C18.0927 19.6783 20.3657 17.4055 23.1873 17.4055C24.4021 17.4055 25.4994 17.8365 26.3615 18.5419L28.8696 16.034C27.3413 14.7017 25.3818 13.8788 23.1873 13.8788C18.4062 13.8788 14.5657 17.719 14.5657 22.4996C14.5657 27.2803 18.4062 31.1205 23.1873 31.1205C27.498 31.1205 31.4169 27.9856 31.4169 22.4996C31.4169 21.9902 31.3385 21.4416 31.221 20.9322Z" fill="white"/>
</mask>
<g mask="url(#mask7_2502_9933)">
<path d="M32.5928 31.9043L20.4443 22.4997L18.8767 21.3241L32.5928 17.4055V31.9043Z" fill="#4285F4"/>
</g>
</g>
<path d="M105.297 20.7656C105.083 20.0833 104.724 19.5547 104.219 19.1797C103.719 18.7995 103.099 18.6094 102.359 18.6094C101.719 18.6094 101.141 18.776 100.625 19.1094C100.115 19.4375 99.7135 19.9219 99.4219 20.5625C99.1302 21.1979 98.9844 21.9583 98.9844 22.8438C98.9844 23.7344 99.1302 24.4974 99.4219 25.1328C99.7188 25.7682 100.128 26.2526 100.648 26.5859C101.169 26.9141 101.766 27.0781 102.438 27.0781C103.036 27.0781 103.562 26.9583 104.016 26.7188C104.469 26.4792 104.82 26.138 105.07 25.6953C105.326 25.2474 105.458 24.724 105.469 24.125H102.688V22.7031H107.141V23.9844C107.141 24.9219 106.94 25.7448 106.539 26.4531C106.138 27.1562 105.578 27.7005 104.859 28.0859C104.146 28.4661 103.333 28.6562 102.422 28.6562C101.406 28.6562 100.51 28.4219 99.7344 27.9531C98.9583 27.4792 98.3542 26.8047 97.9219 25.9297C97.4948 25.0495 97.2812 24.0208 97.2812 22.8438C97.2812 21.6667 97.4974 20.6406 97.9297 19.7656C98.362 18.8854 98.9609 18.2109 99.7266 17.7422C100.497 17.2682 101.37 17.0312 102.344 17.0312C103.151 17.0312 103.888 17.1901 104.555 17.5078C105.227 17.8203 105.779 18.2604 106.211 18.8281C106.648 19.3906 106.932 20.0365 107.062 20.7656H105.297ZM112.578 28.6719C111.786 28.6719 111.091 28.4896 110.492 28.125C109.893 27.7604 109.43 27.25 109.102 26.5938C108.773 25.9323 108.609 25.1667 108.609 24.2969C108.609 23.4219 108.773 22.6536 109.102 21.9922C109.43 21.3307 109.893 20.8177 110.492 20.4531C111.091 20.0885 111.786 19.9062 112.578 19.9062C113.365 19.9062 114.057 20.0885 114.656 20.4531C115.255 20.8177 115.716 21.3333 116.039 22C116.367 22.6615 116.531 23.4271 116.531 24.2969C116.531 25.1667 116.367 25.9323 116.039 26.5938C115.716 27.25 115.255 27.7604 114.656 28.125C114.057 28.4896 113.365 28.6719 112.578 28.6719ZM112.578 27.2812C113.073 27.2812 113.49 27.1484 113.828 26.8828C114.167 26.6172 114.419 26.2604 114.586 25.8125C114.758 25.3594 114.844 24.8542 114.844 24.2969C114.844 23.7396 114.758 23.2344 114.586 22.7812C114.419 22.3229 114.164 21.9583 113.82 21.6875C113.482 21.4167 113.068 21.2812 112.578 21.2812C112.078 21.2812 111.654 21.4167 111.305 21.6875C110.961 21.9583 110.703 22.3229 110.531 22.7812C110.365 23.2344 110.281 23.7396 110.281 24.2969C110.281 24.8542 110.365 25.3594 110.531 25.8125C110.703 26.2604 110.961 26.6172 111.305 26.8828C111.654 27.1484 112.078 27.2812 112.578 27.2812ZM121.766 28.6719C120.974 28.6719 120.279 28.4896 119.68 28.125C119.081 27.7604 118.617 27.25 118.289 26.5938C117.961 25.9323 117.797 25.1667 117.797 24.2969C117.797 23.4219 117.961 22.6536 118.289 21.9922C118.617 21.3307 119.081 20.8177 119.68 20.4531C120.279 20.0885 120.974 19.9062 121.766 19.9062C122.552 19.9062 123.245 20.0885 123.844 20.4531C124.443 20.8177 124.904 21.3333 125.227 22C125.555 22.6615 125.719 23.4271 125.719 24.2969C125.719 25.1667 125.555 25.9323 125.227 26.5938C124.904 27.25 124.443 27.7604 123.844 28.125C123.245 28.4896 122.552 28.6719 121.766 28.6719ZM121.766 27.2812C122.26 27.2812 122.677 27.1484 123.016 26.8828C123.354 26.6172 123.607 26.2604 123.773 25.8125C123.945 25.3594 124.031 24.8542 124.031 24.2969C124.031 23.7396 123.945 23.2344 123.773 22.7812C123.607 22.3229 123.352 21.9583 123.008 21.6875C122.669 21.4167 122.255 21.2812 121.766 21.2812C121.266 21.2812 120.841 21.4167 120.492 21.6875C120.148 21.9583 119.891 22.3229 119.719 22.7812C119.552 23.2344 119.469 23.7396 119.469 24.2969C119.469 24.8542 119.552 25.3594 119.719 25.8125C119.891 26.2604 120.148 26.6172 120.492 26.8828C120.841 27.1484 121.266 27.2812 121.766 27.2812ZM130.922 31.8594C130.214 31.8594 129.589 31.7578 129.047 31.5547C128.51 31.3516 128.083 31.0599 127.766 30.6797C127.453 30.2995 127.271 29.849 127.219 29.3281H128.922C129 29.7188 129.214 30.013 129.562 30.2109C129.911 30.4141 130.37 30.5156 130.938 30.5156C131.625 30.5156 132.159 30.362 132.539 30.0547C132.919 29.7474 133.109 29.2708 133.109 28.625V26.9531H133C132.786 27.3438 132.492 27.6797 132.117 27.9609C131.747 28.237 131.219 28.375 130.531 28.375C129.859 28.375 129.253 28.2109 128.711 27.8828C128.174 27.5547 127.753 27.0729 127.445 26.4375C127.138 25.8021 126.984 25.0469 126.984 24.1719C126.984 23.2917 127.135 22.5312 127.438 21.8906C127.745 21.2448 128.167 20.7526 128.703 20.4141C129.245 20.0755 129.859 19.9062 130.547 19.9062C131.031 19.9062 131.435 19.987 131.758 20.1484C132.086 20.3047 132.339 20.487 132.516 20.6953C132.693 20.8984 132.859 21.1302 133.016 21.3906H133.125V20.0156H134.75V28.6875C134.75 29.3906 134.586 29.9792 134.258 30.4531C133.93 30.9271 133.479 31.2786 132.906 31.5078C132.333 31.7422 131.672 31.8594 130.922 31.8594ZM130.906 27C131.615 27 132.161 26.7552 132.547 26.2656C132.932 25.7708 133.125 25.0833 133.125 24.2031C133.125 23.625 133.039 23.1198 132.867 22.6875C132.695 22.2552 132.443 21.9219 132.109 21.6875C131.776 21.4479 131.375 21.3281 130.906 21.3281C130.427 21.3281 130.021 21.4531 129.688 21.7031C129.354 21.9479 129.104 22.2891 128.938 22.7266C128.771 23.1589 128.688 23.651 128.688 24.2031C128.688 24.7604 128.771 25.25 128.938 25.6719C129.109 26.0885 129.362 26.4141 129.695 26.6484C130.029 26.8828 130.432 27 130.906 27ZM138.453 28.5H136.781V17.1875H138.453V28.5ZM144.141 28.6719C143.318 28.6719 142.602 28.4922 141.992 28.1328C141.388 27.7734 140.922 27.2656 140.594 26.6094C140.271 25.9531 140.109 25.1875 140.109 24.3125C140.109 23.4479 140.271 22.6823 140.594 22.0156C140.922 21.349 141.383 20.8307 141.977 20.4609C142.57 20.0911 143.255 19.9062 144.031 19.9062C144.714 19.9062 145.339 20.0547 145.906 20.3516C146.474 20.6484 146.93 21.1172 147.273 21.7578C147.622 22.3932 147.797 23.1979 147.797 24.1719V24.7656H141.766C141.781 25.2917 141.888 25.7474 142.086 26.1328C142.289 26.513 142.568 26.8021 142.922 27C143.276 27.1979 143.688 27.2969 144.156 27.2969C144.609 27.2969 144.992 27.2135 145.305 27.0469C145.617 26.875 145.849 26.651 146 26.375H147.688C147.562 26.8333 147.339 27.237 147.016 27.5859C146.693 27.9297 146.284 28.1979 145.789 28.3906C145.299 28.5781 144.75 28.6719 144.141 28.6719ZM146.156 23.5156C146.156 23.0833 146.068 22.6979 145.891 22.3594C145.719 22.0208 145.474 21.7578 145.156 21.5703C144.839 21.3776 144.469 21.2812 144.047 21.2812C143.615 21.2812 143.229 21.3828 142.891 21.5859C142.557 21.7839 142.294 22.0547 142.102 22.3984C141.909 22.737 141.799 23.1094 141.773 23.5156H146.156ZM161.766 28.1562H148.953V26.9062H154.594V24.4531H150.516V20H158.734V18.0312H150.484V16.8125H160.203V21.1875H151.984V23.2344H160.531V24.4531H156.062V26.9062H161.766V28.1562ZM171.828 19.3906C171.823 20.2344 171.977 21.0651 172.289 21.8828C172.607 22.6953 173.047 23.4193 173.609 24.0547C174.177 24.6901 174.818 25.1667 175.531 25.4844L174.641 26.6562C173.844 26.276 173.138 25.7161 172.523 24.9766C171.909 24.2318 171.435 23.3776 171.102 22.4141C170.773 23.4505 170.294 24.3672 169.664 25.1641C169.039 25.9609 168.312 26.5625 167.484 26.9688L166.578 25.7188C167.302 25.3958 167.948 24.9062 168.516 24.25C169.089 23.5938 169.534 22.8411 169.852 21.9922C170.169 21.138 170.328 20.2708 170.328 19.3906V17H171.828V19.3906ZM178.281 29.8594H176.797V15.8281H178.281V29.8594ZM185.406 18.3438C185.406 18.9427 185.539 19.5182 185.805 20.0703C186.076 20.6224 186.464 21.1146 186.969 21.5469C187.479 21.9792 188.083 22.3125 188.781 22.5469L188.031 23.7031C187.25 23.4323 186.57 23.0365 185.992 22.5156C185.419 21.9948 184.979 21.388 184.672 20.6953C184.365 21.4557 183.911 22.1198 183.312 22.6875C182.719 23.2552 182.016 23.6823 181.203 23.9688L180.406 22.8125C181.125 22.5677 181.747 22.2161 182.273 21.7578C182.799 21.2995 183.203 20.776 183.484 20.1875C183.771 19.5938 183.917 18.974 183.922 18.3281V17.9531H180.844V16.75H188.422V17.9531H185.406V18.3438ZM191.516 19.4219H193.547V20.6719H191.516V24.2656H190.031V15.8281H191.516V19.4219ZM191.516 29.8281H190.031V26.1562H182.266V24.9531H191.516V29.8281ZM205.25 21.5H207.5V22.7344H205.25V29.8281H203.781V15.8281H205.25V21.5ZM202.562 19.2344H194.266V18.0156H197.719V16.0156H199.203V18.0156H202.562V19.2344ZM198.469 20.2656C199.13 20.2656 199.724 20.4036 200.25 20.6797C200.776 20.9557 201.19 21.3411 201.492 21.8359C201.794 22.3307 201.948 22.8906 201.953 23.5156C201.948 24.1458 201.794 24.7083 201.492 25.2031C201.19 25.6979 200.776 26.0833 200.25 26.3594C199.724 26.6354 199.13 26.776 198.469 26.7812C197.802 26.776 197.203 26.6354 196.672 26.3594C196.146 26.0833 195.732 25.6979 195.43 25.2031C195.133 24.7083 194.984 24.1458 194.984 23.5156C194.984 22.8906 195.133 22.3307 195.43 21.8359C195.732 21.3411 196.146 20.9557 196.672 20.6797C197.203 20.4036 197.802 20.2656 198.469 20.2656ZM198.469 21.4844C198.078 21.4844 197.724 21.5703 197.406 21.7422C197.089 21.9141 196.841 22.1536 196.664 22.4609C196.487 22.7682 196.401 23.1198 196.406 23.5156C196.401 23.9167 196.487 24.2708 196.664 24.5781C196.841 24.8854 197.086 25.1224 197.398 25.2891C197.716 25.4557 198.073 25.5365 198.469 25.5312C198.859 25.5365 199.211 25.4557 199.523 25.2891C199.841 25.1224 200.089 24.8854 200.266 24.5781C200.443 24.2708 200.531 23.9167 200.531 23.5156C200.531 23.1198 200.443 22.7682 200.266 22.4609C200.089 22.1536 199.841 21.9141 199.523 21.7422C199.211 21.5703 198.859 21.4844 198.469 21.4844ZM219.812 29.8281H218.312V15.8281H219.812V29.8281ZM215.641 17.3281C215.641 19.4948 215.122 21.4219 214.086 23.1094C213.055 24.7917 211.391 26.1823 209.094 27.2812L208.312 26.0781C210.151 25.2031 211.544 24.138 212.492 22.8828C213.445 21.6276 213.995 20.1719 214.141 18.5156H208.984V17.3281H215.641Z" fill="#252525"/>
</svg>
