<svg width="300" height="45" viewBox="0 0 300 45" fill="none" xmlns="http://www.w3.org/2000/svg">
<rect width="300" height="45" rx="8" fill="white"/>
<g clip-path="url(#clip0_2502_9973)">
<path d="M29.9606 27.318C29.6997 27.9206 29.3909 28.4754 29.0332 28.9854C28.5455 29.6807 28.1462 30.162 27.8385 30.4293C27.3615 30.868 26.8504 31.0926 26.3031 31.1054C25.9102 31.1054 25.4363 30.9936 24.8848 30.7668C24.3314 30.5411 23.8229 30.4293 23.3579 30.4293C22.8702 30.4293 22.3472 30.5411 21.7878 30.7668C21.2275 30.9936 20.7761 31.1118 20.431 31.1235C19.9062 31.1459 19.3831 30.9148 18.8609 30.4293C18.5276 30.1386 18.1107 29.6403 17.6114 28.9343C17.0756 28.1805 16.6351 27.3063 16.29 26.3096C15.9204 25.2331 15.7351 24.1907 15.7351 23.1815C15.7351 22.0255 15.9849 21.0284 16.4852 20.1929C16.8785 19.5218 17.4016 18.9923 18.0563 18.6037C18.7111 18.2151 19.4185 18.017 20.1804 18.0043C20.5972 18.0043 21.1439 18.1333 21.8232 18.3867C22.5006 18.641 22.9356 18.7699 23.1263 18.7699C23.2689 18.7699 23.7521 18.6191 24.5712 18.3185C25.3458 18.0398 25.9996 17.9244 26.5352 17.9698C27.9865 18.087 29.0768 18.6591 29.8019 19.6898C28.504 20.4762 27.8619 21.5777 27.8747 22.9908C27.8864 24.0915 28.2857 25.0074 29.0704 25.7346C29.4261 26.0722 29.8232 26.3331 30.2651 26.5183C30.1693 26.7962 30.0681 27.0624 29.9606 27.318ZM26.6321 14.2201C26.6321 15.0828 26.3169 15.8883 25.6887 16.6339C24.9306 17.5202 24.0136 18.0323 23.0192 17.9515C23.0065 17.848 22.9992 17.7391 22.9992 17.6246C22.9992 16.7964 23.3597 15.9101 23.9999 15.1854C24.3196 14.8185 24.7261 14.5134 25.2191 14.27C25.7111 14.0303 26.1764 13.8977 26.614 13.875C26.6268 13.9903 26.6321 14.1057 26.6321 14.2201V14.2201Z" fill="#252525"/>
</g>
<path d="M101.297 28.5L105.359 17.1875H107.344L111.422 28.5H109.594L108.562 25.5156H104.156L103.125 28.5H101.297ZM108.062 24.0781L106.391 19.25H106.312L104.648 24.0781H108.062ZM112.719 20.0156H114.344V21.3906H114.484C114.625 21.1354 114.784 20.9036 114.961 20.6953C115.138 20.487 115.388 20.3047 115.711 20.1484C116.039 19.987 116.443 19.9062 116.922 19.9062C117.609 19.9062 118.221 20.0807 118.758 20.4297C119.299 20.7786 119.721 21.2839 120.023 21.9453C120.331 22.6016 120.484 23.3802 120.484 24.2812C120.484 25.1771 120.333 25.9557 120.031 26.6172C119.729 27.2786 119.31 27.7865 118.773 28.1406C118.237 28.4948 117.625 28.6719 116.938 28.6719C116.26 28.6719 115.737 28.526 115.367 28.2344C114.997 27.9375 114.703 27.5833 114.484 27.1719H114.391V31.6875H112.719V20.0156ZM114.359 24.25C114.359 24.849 114.445 25.375 114.617 25.8281C114.789 26.276 115.039 26.625 115.367 26.875C115.701 27.125 116.099 27.25 116.562 27.25C117.036 27.25 117.44 27.1224 117.773 26.8672C118.112 26.6068 118.367 26.25 118.539 25.7969C118.711 25.3438 118.797 24.8281 118.797 24.25C118.797 23.6823 118.711 23.1797 118.539 22.7422C118.372 22.2995 118.12 21.9531 117.781 21.7031C117.448 21.4531 117.042 21.3281 116.562 21.3281C115.854 21.3281 115.31 21.5911 114.93 22.1172C114.549 22.638 114.359 23.349 114.359 24.25ZM122.141 20.0156H123.766V21.3906H123.906C124.047 21.1354 124.206 20.9036 124.383 20.6953C124.56 20.487 124.81 20.3047 125.133 20.1484C125.461 19.987 125.865 19.9062 126.344 19.9062C127.031 19.9062 127.643 20.0807 128.18 20.4297C128.721 20.7786 129.143 21.2839 129.445 21.9453C129.753 22.6016 129.906 23.3802 129.906 24.2812C129.906 25.1771 129.755 25.9557 129.453 26.6172C129.151 27.2786 128.732 27.7865 128.195 28.1406C127.659 28.4948 127.047 28.6719 126.359 28.6719C125.682 28.6719 125.159 28.526 124.789 28.2344C124.419 27.9375 124.125 27.5833 123.906 27.1719H123.812V31.6875H122.141V20.0156ZM123.781 24.25C123.781 24.849 123.867 25.375 124.039 25.8281C124.211 26.276 124.461 26.625 124.789 26.875C125.122 27.125 125.521 27.25 125.984 27.25C126.458 27.25 126.862 27.1224 127.195 26.8672C127.534 26.6068 127.789 26.25 127.961 25.7969C128.133 25.3438 128.219 24.8281 128.219 24.25C128.219 23.6823 128.133 23.1797 127.961 22.7422C127.794 22.2995 127.542 21.9531 127.203 21.7031C126.87 21.4531 126.464 21.3281 125.984 21.3281C125.276 21.3281 124.732 21.5911 124.352 22.1172C123.971 22.638 123.781 23.349 123.781 24.25ZM133.234 28.5H131.562V17.1875H133.234V28.5ZM138.922 28.6719C138.099 28.6719 137.383 28.4922 136.773 28.1328C136.169 27.7734 135.703 27.2656 135.375 26.6094C135.052 25.9531 134.891 25.1875 134.891 24.3125C134.891 23.4479 135.052 22.6823 135.375 22.0156C135.703 21.349 136.164 20.8307 136.758 20.4609C137.352 20.0911 138.036 19.9062 138.812 19.9062C139.495 19.9062 140.12 20.0547 140.688 20.3516C141.255 20.6484 141.711 21.1172 142.055 21.7578C142.404 22.3932 142.578 23.1979 142.578 24.1719V24.7656H136.547C136.562 25.2917 136.669 25.7474 136.867 26.1328C137.07 26.513 137.349 26.8021 137.703 27C138.057 27.1979 138.469 27.2969 138.938 27.2969C139.391 27.2969 139.773 27.2135 140.086 27.0469C140.398 26.875 140.63 26.651 140.781 26.375H142.469C142.344 26.8333 142.12 27.237 141.797 27.5859C141.474 27.9297 141.065 28.1979 140.57 28.3906C140.081 28.5781 139.531 28.6719 138.922 28.6719ZM140.938 23.5156C140.938 23.0833 140.849 22.6979 140.672 22.3594C140.5 22.0208 140.255 21.7578 139.938 21.5703C139.62 21.3776 139.25 21.2812 138.828 21.2812C138.396 21.2812 138.01 21.3828 137.672 21.5859C137.339 21.7839 137.076 22.0547 136.883 22.3984C136.69 22.737 136.581 23.1094 136.555 23.5156H140.938ZM156.547 28.1562H143.734V26.9062H149.375V24.4531H145.297V20H153.516V18.0312H145.266V16.8125H154.984V21.1875H146.766V23.2344H155.312V24.4531H150.844V26.9062H156.547V28.1562ZM166.609 19.3906C166.604 20.2344 166.758 21.0651 167.07 21.8828C167.388 22.6953 167.828 23.4193 168.391 24.0547C168.958 24.6901 169.599 25.1667 170.312 25.4844L169.422 26.6562C168.625 26.276 167.919 25.7161 167.305 24.9766C166.69 24.2318 166.216 23.3776 165.883 22.4141C165.555 23.4505 165.076 24.3672 164.445 25.1641C163.82 25.9609 163.094 26.5625 162.266 26.9688L161.359 25.7188C162.083 25.3958 162.729 24.9062 163.297 24.25C163.87 23.5938 164.315 22.8411 164.633 21.9922C164.951 21.138 165.109 20.2708 165.109 19.3906V17H166.609V19.3906ZM173.062 29.8594H171.578V15.8281H173.062V29.8594ZM180.188 18.3438C180.188 18.9427 180.32 19.5182 180.586 20.0703C180.857 20.6224 181.245 21.1146 181.75 21.5469C182.26 21.9792 182.865 22.3125 183.562 22.5469L182.812 23.7031C182.031 23.4323 181.352 23.0365 180.773 22.5156C180.201 21.9948 179.76 21.388 179.453 20.6953C179.146 21.4557 178.693 22.1198 178.094 22.6875C177.5 23.2552 176.797 23.6823 175.984 23.9688L175.188 22.8125C175.906 22.5677 176.529 22.2161 177.055 21.7578C177.581 21.2995 177.984 20.776 178.266 20.1875C178.552 19.5938 178.698 18.974 178.703 18.3281V17.9531H175.625V16.75H183.203V17.9531H180.188V18.3438ZM186.297 19.4219H188.328V20.6719H186.297V24.2656H184.812V15.8281H186.297V19.4219ZM186.297 29.8281H184.812V26.1562H177.047V24.9531H186.297V29.8281ZM200.031 21.5H202.281V22.7344H200.031V29.8281H198.562V15.8281H200.031V21.5ZM197.344 19.2344H189.047V18.0156H192.5V16.0156H193.984V18.0156H197.344V19.2344ZM193.25 20.2656C193.911 20.2656 194.505 20.4036 195.031 20.6797C195.557 20.9557 195.971 21.3411 196.273 21.8359C196.576 22.3307 196.729 22.8906 196.734 23.5156C196.729 24.1458 196.576 24.7083 196.273 25.2031C195.971 25.6979 195.557 26.0833 195.031 26.3594C194.505 26.6354 193.911 26.776 193.25 26.7812C192.583 26.776 191.984 26.6354 191.453 26.3594C190.927 26.0833 190.513 25.6979 190.211 25.2031C189.914 24.7083 189.766 24.1458 189.766 23.5156C189.766 22.8906 189.914 22.3307 190.211 21.8359C190.513 21.3411 190.927 20.9557 191.453 20.6797C191.984 20.4036 192.583 20.2656 193.25 20.2656ZM193.25 21.4844C192.859 21.4844 192.505 21.5703 192.188 21.7422C191.87 21.9141 191.622 22.1536 191.445 22.4609C191.268 22.7682 191.182 23.1198 191.188 23.5156C191.182 23.9167 191.268 24.2708 191.445 24.5781C191.622 24.8854 191.867 25.1224 192.18 25.2891C192.497 25.4557 192.854 25.5365 193.25 25.5312C193.641 25.5365 193.992 25.4557 194.305 25.2891C194.622 25.1224 194.87 24.8854 195.047 24.5781C195.224 24.2708 195.312 23.9167 195.312 23.5156C195.312 23.1198 195.224 22.7682 195.047 22.4609C194.87 22.1536 194.622 21.9141 194.305 21.7422C193.992 21.5703 193.641 21.4844 193.25 21.4844ZM214.594 29.8281H213.094V15.8281H214.594V29.8281ZM210.422 17.3281C210.422 19.4948 209.904 21.4219 208.867 23.1094C207.836 24.7917 206.172 26.1823 203.875 27.2812L203.094 26.0781C204.932 25.2031 206.326 24.138 207.273 22.8828C208.227 21.6276 208.776 20.1719 208.922 18.5156H203.766V17.3281H210.422Z" fill="black" fill-opacity="0.85"/>
<defs>
<clipPath id="clip0_2502_9973">
<rect width="18" height="18" fill="white" transform="translate(14 13.5)"/>
</clipPath>
</defs>
</svg>
