<svg width="300" height="45" viewBox="0 0 300 45" fill="none" xmlns="http://www.w3.org/2000/svg">
<rect width="300" height="45" rx="6" fill="white"/>
<mask id="mask0_1168_3728" style="mask-type:luminance" maskUnits="userSpaceOnUse" x="14" y="17" width="7" height="11">
<path d="M14.5664 17.3999H20.4555V27.5999H14.5664V17.3999Z" fill="white"/>
</mask>
<g mask="url(#mask0_1168_3728)">
<mask id="mask1_1168_3728" style="mask-type:luminance" maskUnits="userSpaceOnUse" x="14" y="13" width="18" height="19">
<path d="M31.2227 20.9323H23.189V24.2631H27.8133C27.3822 26.3792 25.5795 27.5939 23.189 27.5939C20.3674 27.5939 18.0944 25.3211 18.0944 22.4997C18.0944 19.6784 20.3674 17.4056 23.189 17.4056C24.4038 17.4056 25.5011 17.8367 26.3632 18.542L28.8713 16.0341C27.343 14.7018 25.3836 13.8789 23.189 13.8789C18.4079 13.8789 14.5674 17.7191 14.5674 22.4997C14.5674 27.2804 18.4079 31.1206 23.189 31.1206C27.4997 31.1206 31.4186 27.9858 31.4186 22.4997C31.4186 21.9903 31.3402 21.4417 31.2227 20.9323Z" fill="white"/>
</mask>
<g mask="url(#mask1_1168_3728)">
<path d="M13.7832 27.5941V17.4058L20.4453 22.4999L13.7832 27.5941Z" fill="#FBBC05"/>
</g>
</g>
<mask id="mask2_1168_3728" style="mask-type:luminance" maskUnits="userSpaceOnUse" x="14" y="13" width="18" height="10">
<path d="M14.5664 13.8721H31.4176V22.5001H14.5664V13.8721Z" fill="white"/>
</mask>
<g mask="url(#mask2_1168_3728)">
<mask id="mask3_1168_3728" style="mask-type:luminance" maskUnits="userSpaceOnUse" x="14" y="13" width="18" height="19">
<path d="M31.2227 20.9323H23.189V24.2631H27.8133C27.3822 26.3792 25.5795 27.5939 23.189 27.5939C20.3674 27.5939 18.0944 25.3211 18.0944 22.4997C18.0944 19.6784 20.3674 17.4056 23.189 17.4056C24.4038 17.4056 25.5011 17.8367 26.3632 18.542L28.8713 16.0341C27.343 14.7018 25.3836 13.8789 23.189 13.8789C18.4079 13.8789 14.5674 17.7191 14.5674 22.4997C14.5674 27.2804 18.4079 31.1206 23.189 31.1206C27.4997 31.1206 31.4186 27.9858 31.4186 22.4997C31.4186 21.9903 31.3402 21.4417 31.2227 20.9323Z" fill="white"/>
</mask>
<g mask="url(#mask3_1168_3728)">
<path d="M13.7832 17.4057L20.4453 22.4998L23.1885 20.1095L32.5939 18.5812V13.0952H13.7832V17.4057Z" fill="#EA4335"/>
</g>
</g>
<mask id="mask4_1168_3728" style="mask-type:luminance" maskUnits="userSpaceOnUse" x="14" y="13" width="18" height="19">
<path d="M14.5664 13.8721H31.4176V31.1201H14.5664V13.8721Z" fill="white"/>
</mask>
<g mask="url(#mask4_1168_3728)">
<mask id="mask5_1168_3728" style="mask-type:luminance" maskUnits="userSpaceOnUse" x="14" y="13" width="18" height="19">
<path d="M31.2227 20.9323H23.189V24.2631H27.8133C27.3822 26.3792 25.5795 27.5939 23.189 27.5939C20.3674 27.5939 18.0944 25.3211 18.0944 22.4997C18.0944 19.6784 20.3674 17.4056 23.189 17.4056C24.4038 17.4056 25.5011 17.8367 26.3632 18.542L28.8713 16.0341C27.343 14.7018 25.3836 13.8789 23.189 13.8789C18.4079 13.8789 14.5674 17.7191 14.5674 22.4997C14.5674 27.2804 18.4079 31.1206 23.189 31.1206C27.4997 31.1206 31.4186 27.9858 31.4186 22.4997C31.4186 21.9903 31.3402 21.4417 31.2227 20.9323Z" fill="white"/>
</mask>
<g mask="url(#mask5_1168_3728)">
<path d="M13.7832 27.594L25.5399 18.5812L28.6358 18.9731L32.5939 13.0952V31.9044H13.7832V27.594Z" fill="#34A853"/>
</g>
</g>
<mask id="mask6_1168_3728" style="mask-type:luminance" maskUnits="userSpaceOnUse" x="18" y="17" width="14" height="15">
<path d="M18.8721 17.3999H31.4182V31.1199H18.8721V17.3999Z" fill="white"/>
</mask>
<g mask="url(#mask6_1168_3728)">
<mask id="mask7_1168_3728" style="mask-type:luminance" maskUnits="userSpaceOnUse" x="14" y="13" width="18" height="19">
<path d="M31.2212 20.9318H23.1875V24.2626H27.8118C27.3807 26.3787 25.578 27.5934 23.1875 27.5934C20.3659 27.5934 18.0929 25.3207 18.0929 22.4992C18.0929 19.6779 20.3659 17.4051 23.1875 17.4051C24.4024 17.4051 25.4997 17.8362 26.3618 18.5415L28.8699 16.0336C27.3415 14.7013 25.3821 13.8784 23.1875 13.8784C18.4064 13.8784 14.5659 17.7186 14.5659 22.4992C14.5659 27.2799 18.4064 31.1201 23.1875 31.1201C27.4983 31.1201 31.4172 27.9853 31.4172 22.4992C31.4172 21.9899 31.3388 21.4412 31.2212 20.9318Z" fill="white"/>
</mask>
<g mask="url(#mask7_1168_3728)">
<path d="M32.593 31.904L20.4445 22.4994L18.877 21.3239L32.593 17.4053V31.904Z" fill="#4285F4"/>
</g>
</g>
<path d="M113.975 26.535C111.035 26.535 109.13 25.02 109.13 21.45V21.15C109.13 17.22 111.485 15.915 114.08 15.915C115.385 15.915 116.225 16.215 116.84 16.53V17.82C116.21 17.55 115.43 17.205 114.05 17.205C111.575 17.205 110.78 18.99 110.78 20.955V21.435C110.78 23.655 111.425 25.26 113.99 25.26C114.635 25.26 115.31 25.17 115.715 25.005V22.485H113.675V21.255H117.26V25.92C116.465 26.25 115.325 26.535 113.975 26.535ZM122.219 26.505C119.954 26.505 118.664 25.095 118.664 22.71V22.455C118.664 20.025 120.104 18.57 122.234 18.57C124.454 18.57 125.759 19.995 125.759 22.41V22.635C125.759 25.065 124.304 26.505 122.219 26.505ZM122.234 25.35C123.479 25.35 124.214 24.465 124.214 22.785V22.38C124.214 20.355 123.314 19.755 122.204 19.755C120.914 19.755 120.179 20.64 120.179 22.32V22.725C120.179 24.75 121.094 25.35 122.234 25.35ZM130.378 26.505C128.113 26.505 126.823 25.095 126.823 22.71V22.455C126.823 20.025 128.263 18.57 130.393 18.57C132.613 18.57 133.918 19.995 133.918 22.41V22.635C133.918 25.065 132.463 26.505 130.378 26.505ZM130.393 25.35C131.638 25.35 132.373 24.465 132.373 22.785V22.38C132.373 20.355 131.473 19.755 130.363 19.755C129.073 19.755 128.338 20.64 128.338 22.32V22.725C128.338 24.75 129.253 25.35 130.393 25.35ZM138.177 28.59C135.822 28.59 134.682 28.08 134.682 26.94C134.682 26.145 135.327 25.635 136.107 25.365V25.29C135.672 25.14 135.327 24.96 135.327 24.45C135.327 23.91 135.612 23.46 136.212 23.04C135.642 22.65 135.252 22.05 135.252 21.195V21.045C135.252 19.455 136.482 18.57 138.222 18.57C138.642 18.57 139.017 18.615 139.377 18.69H141.972V19.755H140.742C141.012 20.055 141.147 20.475 141.147 20.985V21.135C141.147 22.74 139.872 23.505 138.207 23.505C137.772 23.505 137.352 23.46 136.962 23.34C136.797 23.505 136.677 23.7 136.677 23.895C136.677 24.285 136.887 24.315 137.382 24.315H139.482C140.907 24.315 141.927 24.825 141.927 26.31C141.927 27.72 140.832 28.59 138.177 28.59ZM138.147 27.495C139.812 27.495 140.397 27.27 140.397 26.535C140.397 25.905 140.037 25.65 139.137 25.65H137.082C136.572 25.815 136.197 26.16 136.197 26.73C136.197 27.33 136.752 27.495 138.147 27.495ZM138.207 22.485C139.167 22.485 139.707 22.065 139.707 21.195V20.985C139.707 20.025 139.122 19.62 138.207 19.62C137.277 19.62 136.707 20.085 136.707 20.955V21.165C136.707 22.065 137.307 22.485 138.207 22.485ZM143.197 26.37V15.42H144.667V26.37H143.197ZM149.967 26.505C147.492 26.505 146.262 25.035 146.262 22.635V22.44C146.262 19.815 147.837 18.57 149.682 18.57C151.842 18.57 152.847 19.815 152.847 22.23V22.95H147.777C147.882 24.705 148.737 25.29 150.237 25.29C151.242 25.29 151.902 25.05 152.607 24.735V25.77C152.127 26.115 151.242 26.505 149.967 26.505ZM149.622 19.74C148.812 19.74 147.897 20.16 147.777 21.87H151.302C151.302 20.325 150.732 19.74 149.622 19.74ZM164.709 23.025H160.584V25.26H165.879V26.49H153.804V25.26H159.054V23.025H155.349V18.705H162.789V16.98H155.304V15.75H164.319V19.95H156.894V21.78H164.709V23.025ZM181.627 23.025H177.502V25.26H182.797V26.49H170.722V25.26H175.972V23.025H172.267V18.705H179.707V16.98H172.222V15.75H181.237V19.95H173.812V21.78H181.627V23.025ZM195.776 26.235H183.701V24.99H195.776V26.235ZM194.201 16.26C194.201 19.8 193.976 22.305 193.616 24.06L192.101 23.865C192.431 22.53 192.656 19.635 192.656 17.475H185.096V16.26H194.201ZM207.674 24.51H206.144V14.82H207.674V24.51ZM207.989 27.795H198.839V23.595H200.369V26.565H207.989V27.795ZM203.924 19.08C203.924 20.985 202.544 22.35 200.504 22.35C198.464 22.35 197.054 20.985 197.054 19.095C197.054 17.19 198.449 15.81 200.504 15.81C202.544 15.81 203.924 17.175 203.924 19.08ZM202.394 19.08C202.394 17.91 201.674 17.085 200.504 17.085C199.364 17.085 198.599 17.94 198.599 19.08C198.599 20.175 199.364 21.045 200.504 21.045C201.674 21.045 202.394 20.175 202.394 19.08Z" fill="#252525"/>
</svg>
