<svg width="300" height="45" viewBox="0 0 300 45" fill="none" xmlns="http://www.w3.org/2000/svg">
<rect width="300" height="45" rx="8" fill="#FEE500"/>
<g clip-path="url(#clip0_2502_9978)">
<path fill-rule="evenodd" clip-rule="evenodd" d="M23 14.1C18.0292 14.1 14 17.2129 14 21.0523C14 23.44 15.5584 25.5449 17.9315 26.7969L16.933 30.4445C16.8448 30.7668 17.2134 31.0237 17.4965 30.8369L21.8733 27.9482C22.2427 27.9838 22.6181 28.0046 23 28.0046C27.9705 28.0046 31.9999 24.8918 31.9999 21.0523C31.9999 17.2129 27.9705 14.1 23 14.1Z" fill="black"/>
</g>
<path d="M95.2968 17.25C95.2812 21.375 94.0156 25.0469 88.9062 27.5625L88.0937 26.4531C90.6249 25.2109 92.1328 23.7031 92.9687 21.9219L88.3906 22.3594L88.1718 21.0781L93.4218 20.7188C93.6328 20.0078 93.7578 19.25 93.8124 18.4531H88.9062V17.25H95.2968ZM98.9218 15.8281V21.4219H101.094V22.6406H98.9218V29.8125H97.4374V15.8281H98.9218ZM109.125 17.25C109.109 21.375 107.844 25.0469 102.734 27.5625L101.922 26.4531C104.453 25.2109 105.961 23.7031 106.797 21.9219L102.219 22.3594L102 21.0781L107.25 20.7188C107.461 20.0078 107.586 19.25 107.641 18.4531H102.734V17.25H109.125ZM112.75 15.8281V21.4219H114.922V22.6406H112.75V29.8125H111.266V15.8281H112.75ZM122.047 16.6719C125.047 16.6875 127.219 18.1562 127.219 20.3906C127.219 22.4922 125.398 23.875 122.781 24.0938V26.8438H128.484V28.0781H115.672V26.8438H121.312V24.0938C118.711 23.875 116.891 22.4922 116.891 20.3906C116.891 18.1562 119.062 16.6875 122.047 16.6719ZM122.047 17.8906C119.891 17.875 118.328 18.875 118.328 20.3906C118.328 21.9688 119.891 22.9375 122.047 22.9531C124.219 22.9375 125.781 21.9688 125.781 20.3906C125.781 18.875 124.219 17.875 122.047 17.8906ZM142.266 23.3281V24.5156H129.469V23.3281H135.125V22H131.141V16.1875H140.703V17.3594H132.641V18.5H140.344V19.625H132.641V20.8594H140.797V22H136.609V23.3281H142.266ZM140.641 25.6406V29.8281H139.125V26.8281H130.922V25.6406H140.641ZM149.703 16.6719C152.641 16.6719 154.875 18.2188 154.875 20.5781C154.875 22.9375 152.641 24.5 149.703 24.4844C146.766 24.5 144.547 22.9375 144.547 20.5781C144.547 18.2188 146.766 16.6719 149.703 16.6719ZM149.703 17.875C147.562 17.8594 145.953 18.9531 145.969 20.5781C145.953 22.2188 147.562 23.2656 149.703 23.2656C151.844 23.2656 153.437 22.2188 153.437 20.5781C153.437 18.9531 151.844 17.8594 149.703 17.875ZM156.141 26.7812V28.0156H143.328V26.7812H156.141ZM169.969 26.9062V28.1562H157.156V26.9062H162.797V24.4531H158.719V20H166.937V18.0312H158.687V16.8125H168.406V21.1875H160.187V23.2344H168.734V24.4531H164.266V26.9062H169.969ZM180.031 19.3906C180.016 21.9531 181.562 24.5156 183.734 25.4844L182.844 26.6562C181.234 25.8906 179.961 24.3203 179.312 22.4062C178.656 24.4531 177.367 26.1484 175.687 26.9688L174.781 25.7188C176.984 24.7344 178.531 22.0625 178.531 19.3906V17H180.031V19.3906ZM186.484 15.8281V29.8594H185V15.8281H186.484ZM193.609 18.3438C193.609 20.125 194.844 21.8281 196.984 22.5469L196.234 23.7031C194.648 23.1562 193.484 22.0625 192.875 20.6875C192.266 22.2031 191.055 23.3906 189.406 23.9688L188.609 22.8125C190.797 22.0625 192.109 20.2656 192.125 18.3281V17.9531H189.047V16.75H196.625V17.9531H193.609V18.3438ZM199.719 15.8281V19.4219H201.75V20.6719H199.719V24.2656H198.234V15.8281H199.719ZM199.719 24.9531V29.8281H198.234V26.1562H190.469V24.9531H199.719ZM213.453 15.8281V21.5H215.703V22.7344H213.453V29.8281H211.984V15.8281H213.453ZM210.766 18.0156V19.2344H202.469V18.0156H205.922V16.0156H207.406V18.0156H210.766ZM206.672 20.2656C208.672 20.2656 210.141 21.6094 210.156 23.5156C210.141 25.4375 208.672 26.7656 206.672 26.7812C204.656 26.7656 203.187 25.4375 203.187 23.5156C203.187 21.6094 204.656 20.2656 206.672 20.2656ZM206.672 21.4844C205.484 21.4844 204.594 22.3125 204.609 23.5156C204.594 24.7344 205.484 25.5469 206.672 25.5312C207.859 25.5469 208.734 24.7344 208.734 23.5156C208.734 22.3125 207.859 21.4844 206.672 21.4844ZM228.016 15.8281V29.8281H226.516V15.8281H228.016ZM223.844 17.3281C223.844 21.4219 222.094 24.9844 217.297 27.2812L216.516 26.0781C220.242 24.3047 222.055 21.7812 222.344 18.5156H217.187V17.3281H223.844Z" fill="black" fill-opacity="0.85"/>
<defs>
<clipPath id="clip0_2502_9978">
<rect width="17.9999" height="18" fill="white" transform="translate(14 13.5)"/>
</clipPath>
</defs>
</svg>
