<svg width="300" height="45" viewBox="0 0 300 45" fill="none" xmlns="http://www.w3.org/2000/svg">
<rect width="300" height="45" rx="6" fill="white"/>
<g clip-path="url(#clip0_1168_3768)">
<path d="M29.9608 27.318C29.7 27.9206 29.3912 28.4754 29.0334 28.9854C28.5457 29.6807 28.1465 30.162 27.8387 30.4293C27.3617 30.868 26.8506 31.0926 26.3033 31.1054C25.9104 31.1054 25.4366 30.9936 24.885 30.7668C24.3317 30.5411 23.8231 30.4293 23.3581 30.4293C22.8705 30.4293 22.3474 30.5411 21.788 30.7668C21.2277 30.9936 20.7764 31.1118 20.4313 31.1235C19.9064 31.1459 19.3833 30.9148 18.8611 30.4293C18.5278 30.1386 18.111 29.6403 17.6116 28.9343C17.0758 28.1805 16.6353 27.3063 16.2902 26.3096C15.9206 25.2331 15.7354 24.1907 15.7354 23.1815C15.7354 22.0255 15.9851 21.0284 16.4855 20.1929C16.8787 19.5218 17.4018 18.9923 18.0566 18.6037C18.7113 18.2151 19.4188 18.017 20.1806 18.0043C20.5975 18.0043 21.1441 18.1333 21.8235 18.3867C22.5009 18.641 22.9358 18.7699 23.1265 18.7699C23.2691 18.7699 23.7523 18.6191 24.5714 18.3185C25.3461 18.0398 25.9999 17.9244 26.5354 17.9698C27.9867 18.087 29.0771 18.6591 29.8022 19.6898C28.5042 20.4762 27.8622 21.5777 27.8749 22.9908C27.8866 24.0915 28.2859 25.0074 29.0707 25.7346C29.4263 26.0722 29.8235 26.3331 30.2654 26.5183C30.1695 26.7962 30.0684 27.0624 29.9608 27.318ZM26.6323 14.2201C26.6323 15.0828 26.3172 15.8883 25.6889 16.6339C24.9308 17.5202 24.0138 18.0323 23.0194 17.9515C23.0068 17.848 22.9994 17.7391 22.9994 17.6246C22.9994 16.7964 23.3599 15.9101 24.0002 15.1854C24.3198 14.8185 24.7264 14.5134 25.2194 14.27C25.7113 14.0303 26.1766 13.8977 26.6142 13.875C26.627 13.9903 26.6323 14.1057 26.6323 14.2201V14.2201Z" fill="#252525"/>
</g>
<path d="M112.18 26.37L115.9 16.095H117.46L121.15 26.37H119.53L118.54 23.58H114.61L113.635 26.37H112.18ZM116.53 18.045L115.03 22.35H118.09L116.575 18.045H116.53ZM122.306 28.62V18.72H123.731V19.335H123.791C124.256 18.9 125.051 18.57 125.981 18.57C127.646 18.57 129.101 19.485 129.101 22.305V22.515C129.101 25.35 127.751 26.415 125.651 26.415C124.796 26.415 124.181 26.19 123.776 25.965V28.62H122.306ZM125.471 25.26C126.791 25.26 127.556 24.66 127.556 22.71V22.395C127.556 20.4 126.836 19.815 125.546 19.815C124.736 19.815 124.091 20.07 123.776 20.31V24.78C124.091 25.02 124.736 25.26 125.471 25.26ZM130.641 28.62V18.72H132.066V19.335H132.126C132.591 18.9 133.386 18.57 134.316 18.57C135.981 18.57 137.436 19.485 137.436 22.305V22.515C137.436 25.35 136.086 26.415 133.986 26.415C133.131 26.415 132.516 26.19 132.111 25.965V28.62H130.641ZM133.806 25.26C135.126 25.26 135.891 24.66 135.891 22.71V22.395C135.891 20.4 135.171 19.815 133.881 19.815C133.071 19.815 132.426 20.07 132.111 20.31V24.78C132.426 25.02 133.071 25.26 133.806 25.26ZM139.021 26.37V15.42H140.491V26.37H139.021ZM145.791 26.505C143.316 26.505 142.086 25.035 142.086 22.635V22.44C142.086 19.815 143.661 18.57 145.506 18.57C147.666 18.57 148.671 19.815 148.671 22.23V22.95H143.601C143.706 24.705 144.561 25.29 146.061 25.29C147.066 25.29 147.726 25.05 148.431 24.735V25.77C147.951 26.115 147.066 26.505 145.791 26.505ZM145.446 19.74C144.636 19.74 143.721 20.16 143.601 21.87H147.126C147.126 20.325 146.556 19.74 145.446 19.74ZM160.533 23.025H156.408V25.26H161.703V26.49H149.628V25.26H154.878V23.025H151.173V18.705H158.613V16.98H151.128V15.75H160.143V19.95H152.718V21.78H160.533V23.025ZM177.452 23.025H173.327V25.26H178.622V26.49H166.547V25.26H171.797V23.025H168.092V18.705H175.532V16.98H168.047V15.75H177.062V19.95H169.637V21.78H177.452V23.025ZM191.6 26.235H179.525V24.99H191.6V26.235ZM190.025 16.26C190.025 19.8 189.8 22.305 189.44 24.06L187.925 23.865C188.255 22.53 188.48 19.635 188.48 17.475H180.92V16.26H190.025ZM203.499 24.51H201.969V14.82H203.499V24.51ZM203.814 27.795H194.664V23.595H196.194V26.565H203.814V27.795ZM199.749 19.08C199.749 20.985 198.369 22.35 196.329 22.35C194.289 22.35 192.879 20.985 192.879 19.095C192.879 17.19 194.274 15.81 196.329 15.81C198.369 15.81 199.749 17.175 199.749 19.08ZM198.219 19.08C198.219 17.91 197.499 17.085 196.329 17.085C195.189 17.085 194.424 17.94 194.424 19.08C194.424 20.175 195.189 21.045 196.329 21.045C197.499 21.045 198.219 20.175 198.219 19.08Z" fill="black" fill-opacity="0.85"/>
<defs>
<clipPath id="clip0_1168_3768">
<rect width="18" height="18" fill="white" transform="translate(14 13.5)"/>
</clipPath>
</defs>
</svg>
