<svg width="24" height="24" viewBox="0 0 24 24" fill="none" xmlns="http://www.w3.org/2000/svg">
<g clip-path="url(#clip0_2507_10320)">
<path fill-rule="evenodd" clip-rule="evenodd" d="M12 13.7143C15.7871 13.7143 18.8572 10.6442 18.8572 6.85714L18.8568 6.78559C16.9057 6.73301 15.1298 5.97523 13.776 4.75956C12.3721 6.0203 10.5142 6.78857 8.47766 6.78857C7.30507 6.78857 6.19015 6.53361 5.18693 6.07567C5.15784 6.33213 5.14289 6.59289 5.14289 6.85714C5.14289 10.6442 8.21294 13.7143 12 13.7143ZM14.4177 2.97689C15.4638 4.15809 16.9497 4.93706 18.6187 5.05781C17.8283 2.14353 15.1645 0 12 0C9.08894 0 6.60153 1.81404 5.60655 4.37337C6.46459 4.82095 7.44036 5.07429 8.47766 5.07429C10.3309 5.07429 11.9939 4.26461 13.1344 2.97691C13.297 2.79321 13.5307 2.68803 13.776 2.68803C14.0214 2.68803 14.255 2.79321 14.4177 2.97689ZM0.87778 22.9155C2.66117 18.5247 6.96914 15.4286 12.0002 15.4286C17.0313 15.4286 21.3393 18.5247 23.1227 22.9155C23.3385 23.4468 22.9272 24 22.3538 24H1.64658C1.0732 24 0.662011 23.4468 0.87778 22.9155Z" fill="#DBDDE7"/>
<circle cx="12" cy="6.85714" r="6.85714" fill="#DBDDE7"/>
</g>
<defs>
<clipPath id="clip0_2507_10320">
<rect width="24" height="24" fill="white"/>
</clipPath>
</defs>
</svg>
