<svg width="90" height="90" viewBox="0 0 90 90" fill="none" xmlns="http://www.w3.org/2000/svg">
<rect width="90" height="90" rx="19.0678" fill="white"/>
<path d="M10.4008 27.9384C11.3529 39.3384 12.2778 50.6926 10.4143 65.4376C10.2522 66.7205 10.4255 68.0779 11.1553 69.2821C11.8911 70.4962 13.0128 71.2567 14.1991 71.6513C16.4392 72.3965 19.0742 71.9329 21.4854 70.9217C26.1281 68.9747 33.8031 65.4416 39.8281 59.3083C45.9776 53.0481 50.3795 44.089 48.2926 31.7282C47.4107 26.5046 44.5097 21.5382 40.5998 17.8156C36.6883 14.0916 31.5482 11.4082 26.0044 11.1002C22.2701 10.8928 17.9723 11.4121 14.7308 14.1667C11.3502 17.0395 9.87709 21.6673 10.4008 27.9384Z" fill="#48D4A0" stroke="white" stroke-width="6.1017"/>
<path d="M79.6027 61.6216C78.6506 50.2216 77.7258 38.8674 79.5892 24.1224C79.7513 22.8395 79.578 21.4821 78.8482 20.2779C78.1124 19.0638 76.9908 18.3033 75.8045 17.9087C73.5644 17.1635 70.9294 17.6271 68.5182 18.6383C63.8755 20.5853 56.2004 24.1184 50.1755 30.2517C44.0259 36.5119 39.624 45.471 41.7109 57.8318C42.5928 63.0554 45.4938 68.0218 49.4038 71.7444C53.3152 75.4684 58.4554 78.1518 63.9991 78.4597C67.7334 78.6672 72.0312 78.1479 75.2727 75.3933C78.6533 72.5205 80.1264 67.8926 79.6027 61.6216Z" fill="#48D4A0" stroke="white" stroke-width="6.1017"/>
</svg>
