<svg width="426" height="102" viewBox="0 0 426 102" fill="none" xmlns="http://www.w3.org/2000/svg">
<circle cx="222" cy="29" r="9" fill="#296C53"/>
<path fill-rule="evenodd" clip-rule="evenodd" d="M330 50C330 66.5685 316.569 80 300 80C296.812 80 293.741 79.5028 290.859 78.5818C289.485 78.1429 288 79.1183 288 80.5601V93C288 97.9706 283.971 102 279 102C274.029 102 270 97.9706 270 93V50C270 33.4315 283.431 20 300 20C316.569 20 330 33.4315 330 50ZM288 50C288 56.6274 293.373 62 300 62C306.627 62 312 56.6274 312 50C312 43.3726 306.627 38 300 38C293.373 38 288 43.3726 288 50Z" fill="#296C53"/>
<circle cx="351" cy="9" r="9" fill="#296C53"/>
<path d="M342 29C342 24.0294 346.029 20 351 20V20C355.971 20 360 24.0294 360 29V71C360 75.9706 355.971 80 351 80V80C346.029 80 342 75.9706 342 71V29Z" fill="#296C53"/>
<circle cx="246" cy="9" r="9" fill="#296C53"/>
<rect x="237" y="20" width="18" height="60" rx="9" fill="#296C53"/>
<path fill-rule="evenodd" clip-rule="evenodd" d="M57.7164 38.5195C59.224 42.1593 60 46.0603 60 50V71C60 75.9706 55.9706 80 51 80C46.0294 80 42 75.9706 42 71V50C42 43.3726 36.6274 38 30 38C23.3726 38 18 43.3726 18 50L18 71C18 75.9706 13.9706 80 9 80C4.02944 80 0 75.9706 0 71V50V29C0 24.0294 4.02944 20 9 20C11.2705 20 13.3447 20.8408 14.9281 22.228C15.6522 22.8623 16.685 23.0995 17.561 22.7003C17.8778 22.556 18.1974 22.417 18.5195 22.2836C22.1593 20.776 26.0603 20 30 20C33.9397 20 37.8407 20.776 41.4805 22.2836C45.1203 23.7913 48.4274 26.001 51.2132 28.7868C53.999 31.5726 56.2087 34.8797 57.7164 38.5195Z" fill="#296C53"/>
<path fill-rule="evenodd" clip-rule="evenodd" d="M72 29C72 24.0294 76.0294 20 81 20C85.9706 20 90 24.0294 90 29V50C90 56.6274 95.3726 62 102 62C108.627 62 114 56.6274 114 50V29C114 24.0294 118.029 20 123 20C127.971 20 132 24.0294 132 29V50C132 53.9397 131.224 57.8407 129.716 61.4805C128.209 65.1203 125.999 68.4275 123.213 71.2132C120.427 73.999 117.12 76.2087 113.481 77.7164C109.841 79.224 105.94 80 102 80C98.0603 80 94.1593 79.224 90.5195 77.7164C86.8797 76.2088 83.5726 73.999 80.7868 71.2132C78.001 68.4275 75.7913 65.1203 74.2836 61.4805C72.776 57.8407 72 53.9397 72 50V29Z" fill="#296C53"/>
<path fill-rule="evenodd" clip-rule="evenodd" d="M144 11C144 6.02944 148.029 2 153 2C157.971 2 162 6.02944 162 11V17L173 17C177.971 17 182 21.0294 182 26C182 30.9706 177.971 35 173 35H162V50C162 56.6274 167.373 62 174 62L174 65L174 72.5V80C170.06 80 166.159 79.224 162.519 77.7164C158.88 76.2088 155.573 73.999 152.787 71.2132C150.001 68.4275 147.791 65.1203 146.284 61.4805C144.776 57.8407 144 53.9397 144 50V35V17V11Z" fill="#296C53"/>
<path fill-rule="evenodd" clip-rule="evenodd" d="M201 20C196.029 20 192 24.0294 192 29V50V71C192 75.9706 196.029 80 201 80C205.971 80 210 75.9706 210 71V50C210 43.3726 215.373 38 222 38V20C218.06 20 214.159 20.776 210.519 22.2836C209.685 22.6294 208.867 23.0121 208.07 23.4302C206.422 21.3411 203.868 20 201 20Z" fill="#296C53"/>
<path fill-rule="evenodd" clip-rule="evenodd" d="M418.414 58C423.7 58 427.492 63.1351 424.417 67.4338C418.976 75.0416 410.067 80 400 80C383.431 80 370 66.5685 370 50C370 33.4315 383.431 20 400 20C410.067 20 418.976 24.9584 424.417 32.5662C427.492 36.8649 423.7 42 418.414 42H412.521C410.245 42 408.149 40.9028 406.202 39.725C404.392 38.6301 402.27 38 400 38C393.373 38 388 43.3726 388 50C388 56.6274 393.373 62 400 62C402.27 62 404.392 61.3699 406.202 60.275C408.149 59.0972 410.245 58 412.521 58H418.414Z" fill="#296C53"/>
<circle cx="174" cy="71" r="9" fill="#296C53"/>
</svg>
