<svg width="214" height="51" viewBox="0 0 214 51" fill="none" xmlns="http://www.w3.org/2000/svg">
<g clip-path="url(#clip0_2502_9888)">
<circle cx="111.5" cy="14.5" r="4.5" fill="#3AA980"/>
<path fill-rule="evenodd" clip-rule="evenodd" d="M165.5 25C165.5 33.2843 158.784 40 150.5 40C148.906 40 147.37 39.7514 145.929 39.2909C145.243 39.0714 144.5 39.5591 144.5 40.2801V46.5C144.5 48.9853 142.485 51 140 51C137.515 51 135.5 48.9853 135.5 46.5V25C135.5 16.7157 142.216 10 150.5 10C158.784 10 165.5 16.7157 165.5 25ZM144.5 25C144.5 28.3137 147.186 31 150.5 31C153.814 31 156.5 28.3137 156.5 25C156.5 21.6863 153.814 19 150.5 19C147.186 19 144.5 21.6863 144.5 25Z" fill="#3AA980"/>
<circle cx="176" cy="4.5" r="4.5" fill="#3AA980"/>
<path d="M171.5 14.5C171.5 12.0147 173.515 10 176 10C178.485 10 180.5 12.0147 180.5 14.5V35.5C180.5 37.9853 178.485 40 176 40C173.515 40 171.5 37.9853 171.5 35.5V14.5Z" fill="#3AA980"/>
<circle cx="123.5" cy="4.5" r="4.5" fill="#3AA980"/>
<rect x="119" y="10" width="9" height="30" rx="4.5" fill="#3AA980"/>
<path fill-rule="evenodd" clip-rule="evenodd" d="M29.3582 19.2597C30.112 21.0796 30.5 23.0302 30.5 25V35.5C30.5 37.9853 28.4853 40 26 40C23.5147 40 21.5 37.9853 21.5 35.5V25C21.5 21.6863 18.8137 19 15.5 19C12.1863 19 9.5 21.6863 9.5 25L9.5 35.5C9.5 37.9853 7.48528 40 5 40C2.51472 40 0.5 37.9853 0.5 35.5V25V14.5C0.5 12.0147 2.51472 10 5 10C6.13526 10 7.17233 10.4204 7.96403 11.114C8.32607 11.4312 8.84251 11.5497 9.28051 11.3502C9.43891 11.278 9.59868 11.2085 9.75975 11.1418C11.5796 10.388 13.5302 10 15.5 10C17.4698 10 19.4204 10.388 21.2403 11.1418C23.0601 11.8956 24.7137 13.0005 26.1066 14.3934C27.4995 15.7863 28.6044 17.4399 29.3582 19.2597Z" fill="#3AA980"/>
<path fill-rule="evenodd" clip-rule="evenodd" d="M36.5 14.5C36.5 12.0147 38.5147 10 41 10C43.4853 10 45.5 12.0147 45.5 14.5V25H36.5V14.5ZM36.5 25C36.5 26.9698 36.888 28.9204 37.6418 30.7403C38.3956 32.5601 39.5005 34.2137 40.8934 35.6066C42.2863 36.9995 43.9399 38.1044 45.7597 38.8582C47.5796 39.612 49.5302 40 51.5 40C53.4698 40 55.4204 39.612 57.2403 38.8582C59.0601 38.1044 60.7137 36.9995 62.1066 35.6066C63.4995 34.2137 64.6044 32.5601 65.3582 30.7403C66.112 28.9204 66.5 26.9698 66.5 25V14.5C66.5 12.0147 64.4853 10 62 10C59.5147 10 57.5 12.0147 57.5 14.5V25C57.5 28.3137 54.8137 31 51.5 31C48.1863 31 45.5 28.3137 45.5 25H36.5Z" fill="#3AA980"/>
<path fill-rule="evenodd" clip-rule="evenodd" d="M72.5 5.5C72.5 3.01472 74.5147 1 77 1C79.4853 1 81.5 3.01472 81.5 5.5V8.5L87 8.5C89.4853 8.5 91.5 10.5147 91.5 13C91.5 15.4853 89.4853 17.5 87 17.5H81.5V25C81.5 28.3137 84.1863 31 87.5 31L87.5 32.5L87.5 36.25V40C85.5302 40 83.5796 39.612 81.7597 38.8582C79.9399 38.1044 78.2863 36.9995 76.8934 35.6066C75.5005 34.2137 74.3956 32.5601 73.6418 30.7403C72.888 28.9204 72.5 26.9698 72.5 25V17.5V8.5V5.5Z" fill="#3AA980"/>
<path fill-rule="evenodd" clip-rule="evenodd" d="M101 10C98.5147 10 96.5 12.0147 96.5 14.5V25V35.5C96.5 37.9853 98.5147 40 101 40C103.485 40 105.5 37.9853 105.5 35.5V25C105.5 21.6863 108.186 19 111.5 19V10C109.53 10 107.58 10.388 105.76 11.1418C105.342 11.3147 104.934 11.506 104.535 11.7151C103.711 10.6705 102.434 10 101 10Z" fill="#3AA980"/>
<path fill-rule="evenodd" clip-rule="evenodd" d="M209.707 29C212.35 29 214.246 31.5676 212.709 33.7169C209.988 37.5208 205.533 40 200.5 40C192.216 40 185.5 33.2843 185.5 25C185.5 16.7157 192.216 10 200.5 10C205.533 10 209.988 12.4792 212.709 16.2831C214.246 18.4324 212.35 21 209.707 21H206.76C205.622 21 204.575 20.4514 203.601 19.8625C202.696 19.3151 201.635 19 200.5 19C197.186 19 194.5 21.6863 194.5 25C194.5 28.3137 197.186 31 200.5 31C201.635 31 202.696 30.6849 203.601 30.1375C204.575 29.5486 205.622 29 206.76 29H209.707Z" fill="#3AA980"/>
<circle cx="87.5" cy="35.5" r="4.5" fill="#3AA980"/>
</g>
<defs>
<clipPath id="clip0_2502_9888">
<rect width="213" height="51" fill="white" transform="translate(0.5)"/>
</clipPath>
</defs>
</svg>
