<svg width="30" height="30" viewBox="0 0 30 30" fill="none" xmlns="http://www.w3.org/2000/svg">
<rect x="5.45459" y="-0.000244141" width="2.72727" height="6.52174" rx="1.36364" fill="#DBDDE7"/>
<rect x="21.8184" y="-0.000244141" width="2.72727" height="6.52174" rx="1.36364" fill="#DBDDE7"/>
<path fill-rule="evenodd" clip-rule="evenodd" d="M21.1381 5.2168H8.86195C8.81532 6.30514 7.91823 7.17317 6.8184 7.17317C5.71858 7.17317 4.82149 6.30514 4.77485 5.2168H4.09091C1.83156 5.2168 0 7.04836 0 9.3077V11.7385H30V9.30771C30 7.04836 28.1684 5.2168 25.9091 5.2168H25.2252C25.1786 6.30514 24.2815 7.17317 23.1817 7.17317C22.0819 7.17317 21.1848 6.30514 21.1381 5.2168Z" fill="#DBDDE7"/>
<path fill-rule="evenodd" clip-rule="evenodd" d="M25.9091 30C28.1684 30 30 28.1684 30 25.9091L30 13.0435L0 13.0435V25.9091C0 28.1684 1.83156 30 4.09091 30L25.9091 30ZM9.48599 19.5651C8.76562 19.5651 8.18164 20.1491 8.18164 20.8695C8.18164 21.5898 8.76562 22.1738 9.48599 22.1738H20.5137C21.234 22.1738 21.818 21.5898 21.818 20.8695C21.818 20.1491 21.234 19.5651 20.5137 19.5651H9.48599Z" fill="#DBDDE7"/>
</svg>
