<svg width="24" height="24" viewBox="0 0 24 24" fill="none" xmlns="http://www.w3.org/2000/svg">
<path fill-rule="evenodd" clip-rule="evenodd" d="M5.9999 0C4.59728 0 3.42847 1.11749 3.42847 2.53478V9.21538C3.44472 9.21466 3.46106 9.21429 3.47748 9.21429H20.5223C20.5388 9.21429 20.555 9.21466 20.5713 9.21538V2.53478C20.5713 1.11749 19.4025 0 17.9999 0H5.9999ZM3.42847 19.3111V11.356C3.44472 11.3568 3.46106 11.3571 3.47748 11.3571H20.5223C20.5388 11.3571 20.555 11.3568 20.5713 11.356V19.3111C20.5713 20.5812 19.6328 21.6105 18.4285 21.8107V22.7031C18.4285 23.4132 17.8528 23.9889 17.1428 23.9889C16.4327 23.9889 15.857 23.4132 15.857 22.7031V21.846H8.14275V22.7031C8.14275 23.4132 7.56711 23.9889 6.85704 23.9889C6.14696 23.9889 5.57132 23.4132 5.57132 22.7031V21.8107C4.36702 21.6105 3.42847 20.5812 3.42847 19.3111ZM8.64205 4.47305C8.64205 3.88133 8.16236 3.40162 7.57063 3.40162C6.97889 3.40162 6.4992 3.88133 6.4992 4.47305V5.33019C6.4992 5.92193 6.97889 6.40162 7.57063 6.40162C8.16236 6.40162 8.64205 5.92193 8.64205 5.33019V4.47305Z" fill="#DBDDE7"/>
</svg>
