<svg width="25" height="30" viewBox="0 0 25 30" fill="none" xmlns="http://www.w3.org/2000/svg">
<path fill-rule="evenodd" clip-rule="evenodd" d="M3.75 0C1.67893 0 0 1.67893 0 3.75V8.75C0 9.44036 0.559644 10 1.25 10H23.75C24.4404 10 25 9.44036 25 8.75V3.75C25 1.67893 23.3211 0 21.25 0H3.75ZM3.75 3.75C3.05964 3.75 2.5 4.30964 2.5 5C2.5 5.69036 3.05964 6.25 3.75 6.25H7.5C8.19036 6.25 8.75 5.69036 8.75 5C8.75 4.30964 8.19036 3.75 7.5 3.75H3.75Z" fill="#296C53"/>
<path fill-rule="evenodd" clip-rule="evenodd" d="M1.25 11.25C0.559644 11.25 0 11.8096 0 12.5V26.25C0 28.3211 1.67893 30 3.75 30H21.25C23.3211 30 25 28.3211 25 26.25V12.5C25 11.8096 24.4404 11.25 23.75 11.25H1.25ZM5 16.25C5 15.5596 4.44036 15 3.75 15C3.05964 15 2.5 15.5596 2.5 16.25L2.5 21.25C2.5 21.9404 3.05964 22.5 3.75 22.5C4.44036 22.5 5 21.9404 5 21.25L5 16.25Z" fill="#296C53"/>
</svg>
