<svg width="24" height="24" viewBox="0 0 24 24" fill="none" xmlns="http://www.w3.org/2000/svg">
<g clip-path="url(#clip0_2507_10317)">
<path fill-rule="evenodd" clip-rule="evenodd" d="M3.42857 10.2857C3.42857 6.49862 6.49862 3.42857 10.2857 3.42857C14.0728 3.42857 17.1429 6.49862 17.1429 10.2857C17.1429 14.0728 14.0728 17.1429 10.2857 17.1429C6.49862 17.1429 3.42857 14.0728 3.42857 10.2857ZM10.2857 0C4.60507 0 0 4.60507 0 10.2857C0 15.9664 4.60507 20.5714 10.2857 20.5714C12.5071 20.5714 14.5639 19.8672 16.2453 18.6699L21.0735 23.4982C21.743 24.1677 22.8285 24.1677 23.4979 23.4982C24.1673 22.8288 24.1673 21.7433 23.4979 21.0739L18.6698 16.2457C19.8672 14.5642 20.5714 12.5072 20.5714 10.2857C20.5714 4.60507 15.9664 0 10.2857 0Z" fill="#DBDDE7"/>
</g>
<defs>
<clipPath id="clip0_2507_10317">
<rect width="24" height="24" fill="white"/>
</clipPath>
</defs>
</svg>
